{
	"asset":{
		"generator":"Khronos glTF Blender I/O v3.5.30",
		"version":"2.0"
	},
	"extensionsUsed":[
		"KHR_materials_specular",
		"KHR_materials_ior"
	],
	"scene":0,
	"scenes":[
		{
			"name":"Scene",
			"nodes":[
				0
			]
		}
	],
	"nodes":[
		{
			"mesh":0,
			"name":"AErBoKe"
		}
	],
	"materials":[
		{
			"doubleSided":true,
			"extensions":{
				"KHR_materials_specular":{
					"specularColorFactor":[
						0.09485421411754184,
						0.09485421411754184,
						0.09485421411754184
					]
				},
				"KHR_materials_ior":{
					"ior":1.4500000476837158
				}
			},
			"name":"lambert2.001",
			"pbrMetallicRoughness":{
				"baseColorTexture":{
					"index":0
				},
				"metallicFactor":0,
				"roughnessFactor":0.5527864098548889
			}
		},
		{
			"doubleSided":true,
			"extensions":{
				"KHR_materials_specular":{
					"specularColorFactor":[
						0.09485421411754184,
						0.09485421411754184,
						0.09485421411754184
					]
				},
				"KHR_materials_ior":{
					"ior":1.4500000476837158
				}
			},
			"name":"lambert2.002",
			"pbrMetallicRoughness":{
				"baseColorTexture":{
					"index":1
				},
				"metallicFactor":0,
				"roughnessFactor":0.5527864098548889
			}
		}
	],
	"meshes":[
		{
			"name":"Mesh.008",
			"primitives":[
				{
					"attributes":{
						"POSITION":0,
						"TEXCOORD_0":1,
						"TEXCOORD_1":2,
						"NORMAL":3
					},
					"indices":4,
					"material":0
				},
				{
					"attributes":{
						"POSITION":5,
						"TEXCOORD_0":6,
						"TEXCOORD_1":7,
						"NORMAL":8
					},
					"indices":9,
					"material":1
				}
			]
		}
	],
	"textures":[
		{
			"sampler":0,
			"source":0
		},
		{
			"sampler":0,
			"source":0
		}
	],
	"images":[
		{
			"bufferView":5,
			"mimeType":"image/png",
			"name":"DDG51_d"
		}
	],
	"accessors":[
		{
			"bufferView":0,
			"componentType":5126,
			"count":3141,
			"max":[
				11.04686450958252,
				46.81259536743164,
				79.93922424316406
			],
			"min":[
				-11.041186332702637,
				-8.30456829071045,
				-79.61882019042969
			],
			"type":"VEC3"
		},
		{
			"bufferView":1,
			"componentType":5126,
			"count":3141,
			"type":"VEC2"
		},
		{
			"bufferView":2,
			"componentType":5126,
			"count":3141,
			"type":"VEC2"
		},
		{
			"bufferView":3,
			"componentType":5126,
			"count":3141,
			"type":"VEC3"
		},
		{
			"bufferView":4,
			"componentType":5123,
			"count":5523,
			"type":"SCALAR"
		},
		{
			"bufferView":6,
			"componentType":5126,
			"count":246,
			"max":[
				8.105576515197754,
				43.01688766479492,
				19.425823211669922
			],
			"min":[
				-8.040278434753418,
				28.936677932739258,
				11.617546081542969
			],
			"type":"VEC3"
		},
		{
			"bufferView":7,
			"componentType":5126,
			"count":246,
			"type":"VEC2"
		},
		{
			"bufferView":8,
			"componentType":5126,
			"count":246,
			"type":"VEC2"
		},
		{
			"bufferView":9,
			"componentType":5126,
			"count":246,
			"type":"VEC3"
		},
		{
			"bufferView":10,
			"componentType":5123,
			"count":366,
			"type":"SCALAR"
		}
	],
	"bufferViews":[
		{
			"buffer":0,
			"byteLength":37692,
			"byteOffset":0,
			"target":34962
		},
		{
			"buffer":0,
			"byteLength":25128,
			"byteOffset":37692,
			"target":34962
		},
		{
			"buffer":0,
			"byteLength":25128,
			"byteOffset":62820,
			"target":34962
		},
		{
			"buffer":0,
			"byteLength":37692,
			"byteOffset":87948,
			"target":34962
		},
		{
			"buffer":0,
			"byteLength":11046,
			"byteOffset":125640,
			"target":34963
		},
		{
			"buffer":0,
			"byteLength":342260,
			"byteOffset":136688
		},
		{
			"buffer":0,
			"byteLength":2952,
			"byteOffset":478948,
			"target":34962
		},
		{
			"buffer":0,
			"byteLength":1968,
			"byteOffset":481900,
			"target":34962
		},
		{
			"buffer":0,
			"byteLength":1968,
			"byteOffset":483868,
			"target":34962
		},
		{
			"buffer":0,
			"byteLength":2952,
			"byteOffset":485836,
			"target":34962
		},
		{
			"buffer":0,
			"byteLength":732,
			"byteOffset":488788,
			"target":34963
		}
	],
	"samplers":[
		{
			"magFilter":9729,
			"minFilter":9987
		}
	],
	"buffers":[
		{
			"byteLength":489520,
			"uri":"data:application/octet-stream;base64,"
		}
	]
}
