{
	"asset":{
		"version":"2.0",
		"generator":"Created using the official Cinema 4D glTF Exporter 1.000x284978"
	},
	"scenes":[{
		"nodes":[0,
		3,
		6]
	}],
	"nodes":[{
		"name":"01",
		"translation":[-386.2618408203125,
		-1.432912826538086,
		-8.11986255645752],
		"rotation":[0.0,
		0.0,
		0.0,
		-1.0],
		"scale":[1.0,
		1.0,
		1.0],
		"children":[1,
		2]
	},
	{
		"name":"01-材质",
		"mesh":0
	},
	{
		"name":"01-材质",
		"mesh":1
	},
	{
		"name":"01_1",
		"translation":[384.7635498046875,
		-1.432912826538086,
		-5.211670398712158],
		"rotation":[0.0,
		-1.2246468525851679e-16,
		0.0,
		-1.0],
		"scale":[1.0,
		1.0,
		1.0],
		"children":[4,
		5]
	},
	{
		"name":"01_1-材质",
		"mesh":2
	},
	{
		"name":"01_1-材质",
		"mesh":3
	},
	{
		"name":"主体",
		"translation":[0.12331852316856384,
		33.1932487487793,
		-38.52088165283203],
		"rotation":[0.0,
		0.0,
		0.0,
		-1.0],
		"scale":[1.0,
		1.0,
		1.0],
		"children":[7,
		8,
		9]
	},
	{
		"name":"主体-材质",
		"mesh":4
	},
	{
		"name":"主体-材质",
		"mesh":5
	},
	{
		"name":"主体-材质",
		"mesh":6
	}],
	"meshes":[{
		"name":"01-材质",
		"primitives":[{
			"attributes":{
				"POSITION":1,
				"NORMAL":2,
				"TEXCOORD_0":3
			},
			"indices":0,
			"material":0
		}]
	},
	{
		"name":"01-材质",
		"primitives":[{
			"attributes":{
				"POSITION":5,
				"NORMAL":6,
				"TEXCOORD_0":7
			},
			"indices":4,
			"material":1
		}]
	},
	{
		"name":"01_1-材质",
		"primitives":[{
			"attributes":{
				"POSITION":9,
				"NORMAL":10,
				"TEXCOORD_0":11
			},
			"indices":8,
			"material":0
		}]
	},
	{
		"name":"01_1-材质",
		"primitives":[{
			"attributes":{
				"POSITION":13,
				"NORMAL":14,
				"TEXCOORD_0":15
			},
			"indices":12,
			"material":1
		}]
	},
	{
		"name":"主体-材质",
		"primitives":[{
			"attributes":{
				"POSITION":17,
				"NORMAL":18,
				"TEXCOORD_0":19
			},
			"indices":16,
			"material":2
		}]
	},
	{
		"name":"主体-材质",
		"primitives":[{
			"attributes":{
				"POSITION":21,
				"NORMAL":22,
				"TEXCOORD_0":23
			},
			"indices":20,
			"material":3
		}]
	},
	{
		"name":"主体-材质",
		"primitives":[{
			"attributes":{
				"POSITION":25,
				"NORMAL":26,
				"TEXCOORD_0":27
			},
			"indices":24,
			"material":0
		}]
	}],
	"accessors":[{
		"bufferView":0,
		"type":"SCALAR",
		"componentType":5123,
		"count":3936,
		"byteOffset":0,
		"min":[0],
		"max":[1295]
	},
	{
		"bufferView":1,
		"type":"VEC3",
		"componentType":5126,
		"count":1296,
		"byteOffset":0,
		"min":[-662.8973999023438,
		-7.4306793212890629,
		-100.48082733154297],
		"max":[254.27713012695313,
		8.677873611450196,
		100.94685363769531]
	},
	{
		"bufferView":1,
		"type":"VEC3",
		"componentType":5126,
		"count":1296,
		"byteOffset":12,
		"min":[-1.0,
		-1.0,
		-1.0],
		"max":[1.0,
		1.0,
		1.0]
	},
	{
		"bufferView":1,
		"type":"VEC2",
		"componentType":5126,
		"count":1296,
		"byteOffset":24,
		"min":[0.0016670925542712212,
		0.0016670925542712212],
		"max":[0.7495320439338684,
		0.816672682762146]
	},
	{
		"bufferView":2,
		"type":"SCALAR",
		"componentType":5123,
		"count":108,
		"byteOffset":0,
		"min":[0],
		"max":[71]
	},
	{
		"bufferView":3,
		"type":"VEC3",
		"componentType":5126,
		"count":72,
		"byteOffset":0,
		"min":[-662.597412109375,
		-0.06708717346191406,
		-99.9981460571289],
		"max":[119.40259552001953,
		2.932912826538086,
		100.0018539428711]
	},
	{
		"bufferView":3,
		"type":"VEC3",
		"componentType":5126,
		"count":72,
		"byteOffset":12,
		"min":[-1.0,
		-1.0,
		-1.0],
		"max":[1.0,
		1.0,
		1.0]
	},
	{
		"bufferView":3,
		"type":"VEC2",
		"componentType":5126,
		"count":72,
		"byteOffset":24,
		"min":[0.0016670925542712212,
		0.4302061200141907],
		"max":[0.7331515550613403,
		0.9950248003005981]
	},
	{
		"bufferView":4,
		"type":"SCALAR",
		"componentType":5123,
		"count":3936,
		"byteOffset":0,
		"min":[0],
		"max":[1295]
	},
	{
		"bufferView":5,
		"type":"VEC3",
		"componentType":5126,
		"count":1296,
		"byteOffset":0,
		"min":[-254.27713012695313,
		-7.4306793212890629,
		-100.94685363769531],
		"max":[662.8973999023438,
		8.677873611450196,
		100.48082733154297]
	},
	{
		"bufferView":5,
		"type":"VEC3",
		"componentType":5126,
		"count":1296,
		"byteOffset":12,
		"min":[-1.0,
		-1.0,
		-1.0],
		"max":[1.0,
		1.0,
		1.0]
	},
	{
		"bufferView":5,
		"type":"VEC2",
		"componentType":5126,
		"count":1296,
		"byteOffset":24,
		"min":[0.0016670925542712212,
		0.0016670925542712212],
		"max":[0.7495250701904297,
		0.816672682762146]
	},
	{
		"bufferView":6,
		"type":"SCALAR",
		"componentType":5123,
		"count":108,
		"byteOffset":0,
		"min":[0],
		"max":[71]
	},
	{
		"bufferView":7,
		"type":"VEC3",
		"componentType":5126,
		"count":72,
		"byteOffset":0,
		"min":[-119.40259552001953,
		-0.06708717346191406,
		-100.0018539428711],
		"max":[662.597412109375,
		2.932912826538086,
		99.9981460571289]
	},
	{
		"bufferView":7,
		"type":"VEC3",
		"componentType":5126,
		"count":72,
		"byteOffset":12,
		"min":[-1.0,
		-1.0,
		-1.0],
		"max":[1.0,
		1.0,
		1.0]
	},
	{
		"bufferView":7,
		"type":"VEC2",
		"componentType":5126,
		"count":72,
		"byteOffset":24,
		"min":[0.0016670925542712212,
		0.4302061200141907],
		"max":[0.7331515550613403,
		0.9950248003005981]
	},
	{
		"bufferView":8,
		"type":"SCALAR",
		"componentType":5123,
		"count":35376,
		"byteOffset":0,
		"min":[0],
		"max":[7261]
	},
	{
		"bufferView":9,
		"type":"VEC3",
		"componentType":5126,
		"count":7262,
		"byteOffset":0,
		"min":[-146.01036071777345,
		-221.8827362060547,
		-102.1468505859375],
		"max":[146.1498260498047,
		176.80674743652345,
		165.048583984375]
	},
	{
		"bufferView":9,
		"type":"VEC3",
		"componentType":5126,
		"count":7262,
		"byteOffset":12,
		"min":[-1.0,
		-1.0,
		-1.0],
		"max":[1.0,
		1.0,
		1.0]
	},
	{
		"bufferView":9,
		"type":"VEC2",
		"componentType":5126,
		"count":7262,
		"byteOffset":24,
		"min":[0.0016699074767529965,
		0.0016699074767529965],
		"max":[0.994323194026947,
		0.9880473613739014]
	},
	{
		"bufferView":10,
		"type":"SCALAR",
		"componentType":5123,
		"count":15012,
		"byteOffset":0,
		"min":[0],
		"max":[4725]
	},
	{
		"bufferView":11,
		"type":"VEC3",
		"componentType":5126,
		"count":4726,
		"byteOffset":0,
		"min":[-119.72286224365235,
		174.0635986328125,
		-77.42720794677735],
		"max":[132.64410400390626,
		258.9145812988281,
		140.98851013183595]
	},
	{
		"bufferView":11,
		"type":"VEC3",
		"componentType":5126,
		"count":4726,
		"byteOffset":12,
		"min":[-1.0,
		-1.0,
		-1.0],
		"max":[1.0,
		1.0,
		1.0]
	},
	{
		"bufferView":11,
		"type":"VEC2",
		"componentType":5126,
		"count":4726,
		"byteOffset":24,
		"min":[0.0016699074767529965,
		0.0016699074767529965],
		"max":[0.9931696057319641,
		0.9916832447052002]
	},
	{
		"bufferView":12,
		"type":"SCALAR",
		"componentType":5123,
		"count":14154,
		"byteOffset":0,
		"min":[0],
		"max":[3416]
	},
	{
		"bufferView":13,
		"type":"VEC3",
		"componentType":5126,
		"count":3417,
		"byteOffset":0,
		"min":[-141.6143035888672,
		-265.75689697265627,
		-226.2879180908203],
		"max":[137.81300354003907,
		229.75225830078126,
		168.8957061767578]
	},
	{
		"bufferView":13,
		"type":"VEC3",
		"componentType":5126,
		"count":3417,
		"byteOffset":12,
		"min":[-1.0,
		-1.0,
		-1.0],
		"max":[1.0,
		1.0,
		1.0]
	},
	{
		"bufferView":13,
		"type":"VEC2",
		"componentType":5126,
		"count":3417,
		"byteOffset":24,
		"min":[0.0016699074767529965,
		0.0016699074767529965],
		"max":[0.9646692276000977,
		0.9950248003005981]
	}],
	"bufferViews":[{
		"buffer":0,
		"byteOffset":0,
		"byteLength":7872,
		"target":34963
	},
	{
		"buffer":0,
		"byteOffset":7872,
		"byteLength":41472,
		"target":34962,
		"byteStride":32
	},
	{
		"buffer":1,
		"byteOffset":0,
		"byteLength":216,
		"target":34963
	},
	{
		"buffer":1,
		"byteOffset":216,
		"byteLength":2304,
		"target":34962,
		"byteStride":32
	},
	{
		"buffer":2,
		"byteOffset":0,
		"byteLength":7872,
		"target":34963
	},
	{
		"buffer":2,
		"byteOffset":7872,
		"byteLength":41472,
		"target":34962,
		"byteStride":32
	},
	{
		"buffer":3,
		"byteOffset":0,
		"byteLength":216,
		"target":34963
	},
	{
		"buffer":3,
		"byteOffset":216,
		"byteLength":2304,
		"target":34962,
		"byteStride":32
	},
	{
		"buffer":4,
		"byteOffset":0,
		"byteLength":70752,
		"target":34963
	},
	{
		"buffer":4,
		"byteOffset":70752,
		"byteLength":232384,
		"target":34962,
		"byteStride":32
	},
	{
		"buffer":5,
		"byteOffset":0,
		"byteLength":30024,
		"target":34963
	},
	{
		"buffer":5,
		"byteOffset":30024,
		"byteLength":151232,
		"target":34962,
		"byteStride":32
	},
	{
		"buffer":6,
		"byteOffset":0,
		"byteLength":28308,
		"target":34963
	},
	{
		"buffer":6,
		"byteOffset":28308,
		"byteLength":109344,
		"target":34962,
		"byteStride":32
	}],
	"buffers":[{
		"uri":"data:application/octet-stream;base64,",
		"byteLength":49344
	},
	{
		"uri":"data:application/octet-stream;base64,",
		"byteLength":2520
	},
	{
		"uri":"data:application/octet-stream;base64,",
		"byteLength":49344
	},
	{
		"uri":"data:application/octet-stream;base64,",
		"byteLength":2520
	},
	{
		"uri":"data:application/octet-stream;base64,",
		"byteLength":303136
	},
	{
		"uri":"data:application/octet-stream;base64,",
		"byteLength":181256
	},
	{
		"uri":"data:application/octet-stream;base64,",
		"byteLength":137652
	}],
	"materials":[{
		"pbrMetallicRoughness":{
			"baseColorFactor":[0.9500000000000001,
			0.9500000000000001,
			0.9500000000000001,
			1.0],
			"metallicFactor":0.0,
			"roughnessFactor":0.5
		},
		"emissiveFactor":[0.0,
		0.0,
		0.0],
		"alphaMode":"OPAQUE",
		"doubleSided":false,
		"name":"材质"
	},
	{
		"pbrMetallicRoughness":{
			"baseColorFactor":[0.0,
			0.04888888659545918,
			0.36,
			1.0],
			"metallicFactor":0.0,
			"roughnessFactor":0.5
		},
		"emissiveFactor":[0.0,
		0.0,
		0.0],
		"alphaMode":"OPAQUE",
		"doubleSided":false,
		"name":"材质"
	},
	{
		"pbrMetallicRoughness":{
			"baseColorFactor":[0.47000000000000005,
			0.3805379427564693,
			0.14569999999999995,
			1.0],
			"metallicFactor":0.0,
			"roughnessFactor":0.5
		},
		"emissiveFactor":[0.0,
		0.0,
		0.0],
		"alphaMode":"OPAQUE",
		"doubleSided":false,
		"name":"材质"
	},
	{
		"pbrMetallicRoughness":{
			"baseColorFactor":[0.003360655839822524,
			0.004262295127920137,
			0.01,
			1.0],
			"metallicFactor":0.0,
			"roughnessFactor":0.5
		},
		"emissiveFactor":[0.0,
		0.0,
		0.0],
		"alphaMode":"OPAQUE",
		"doubleSided":false,
		"name":"材质"
	}]
}