OFF
519 1012 0
0.000000 0.000000 1.000000
0.000000 0.000000 0.000000
0.035520 28022.000000 0.000000
0.071041 56044.000000 0.000000
0.106561 84066.000000 0.000000
0.142082 112088.000000 0.000000
0.177602 140110.000000 0.000000
0.174904 137981.406250 24329.845703
0.153808 121338.851562 70054.953125
0.123046 97071.085938 56043.964844
0.092285 72803.312500 42032.972656
0.061523 48535.542969 28021.982422
0.030762 24267.771484 14010.991211
3899.835205 27749.394531 0.000000
7799.670410 55498.789062 0.000000
11699.505859 83248.187500 0.000000
15599.340820 110997.578125 0.000000
19499.175781 138746.968750 0.000000
19202.939453 136639.093750 24329.925781
16886.785156 120158.429688 70055.179688
13509.428711 96126.742188 56044.144531
10132.071289 72095.062500 42033.109375
6754.714355 48063.371094 28022.072266
3377.357178 24031.685547 14011.036133
7729.434570 26955.791016 0.000000
15458.869141 53911.582031 0.000000
23188.304688 80867.375000 0.000000
30917.738281 107823.164062 0.000000
38647.171875 134778.953125 0.000000
38060.035156 132731.359375 24347.289062
33469.441406 116722.023438 70105.171875
26775.552734 93377.617188 56084.136719
20081.666016 70033.218750 42063.105469
13387.776367 46688.808594 28042.068359
6693.888184 23344.404297 14021.034180
11405.632812 25617.585938 0.000000
22811.265625 51235.171875 0.000000
34216.898438 76852.757812 0.000000
45622.531250 102470.343750 0.000000
57028.164062 128087.929688 0.000000
56161.777344 126141.984375 24347.140625
49387.851562 110927.429688 70104.750000
39510.281250 88741.945312 56083.800781
29632.712891 66556.460938 42062.851562
19755.140625 44370.972656 28041.900391
9877.570312 22185.486328 14020.950195
14860.030273 23780.982422 0.000000
29720.060547 47561.964844 0.000000
44580.089844 71342.945312 0.000000
59440.121094 95123.929688 0.000000
74300.148438 118904.906250 0.000000
73171.359375 117098.468750 24347.238281
64345.832031 102974.695312 70105.031250
51476.667969 82379.757812 56084.027344
38607.500000 61784.820312 42063.019531
25738.333984 41189.878906 28042.013672
12869.166992 20594.939453 14021.006836
18037.826172 21496.777344 0.000000
36075.652344 42993.554688 0.000000
54113.480469 64490.332031 0.000000
72151.304688 85987.109375 0.000000
90189.132812 107483.882812 0.000000
88818.953125 105850.960938 24364.556641
78106.101562 93083.796875 70154.898438
62484.882812 74467.039062 56123.917969
46863.664062 55850.281250 42092.941406
31242.441406 37233.519531 28061.958984
15621.220703 18616.759766 14030.979492
20854.224609 18777.154297 0.000000
41708.449219 37554.308594 0.000000
62562.671875 56331.460938 0.000000
83416.898438 75108.617188 0.000000
104271.117188 93885.765625 0.000000
102687.000000 92459.429688 24364.642578
90301.460938 81307.476562 70155.140625
72241.171875 65045.980469 56124.113281
54180.878906 48784.488281 42093.085938
36120.585938 32522.990234 28062.056641
18060.292969 16261.495117 14031.028320
23264.419922 15692.070312 0.000000
46528.839844 31384.140625 0.000000
69793.265625 47076.210938 0.000000
93057.679688 62768.281250 0.000000
116322.101562 78460.351562 0.000000
114554.906250 77268.359375 24364.552734
100737.921875 67948.671875 70154.882812
80590.335938 54358.937500 56123.906250
60442.753906 40769.203125 42092.929688
40295.167969 27179.468750 28061.953125
20147.583984 13589.734375 14030.976562
25240.015625 12310.328125 0.000000
50480.031250 24620.656250 0.000000
75720.046875 36930.984375 0.000000
100960.062500 49241.312500 0.000000
126200.078125 61551.640625 0.000000
124282.812500 60616.531250 24382.000000
109292.500000 53305.296875 70205.125000
87434.000000 42644.238281 56164.101562
65575.500000 31983.179688 42123.078125
43717.000000 21322.119141 28082.050781
21858.500000 10661.059570 14041.025391
26707.613281 8677.806641 0.000000
53415.226562 17355.613281 0.000000
80122.843750 26033.419922 0.000000
106830.453125 34711.226562 0.000000
133538.062500 43389.031250 0.000000
131509.312500 42729.851562 24381.974609
115647.382812 37576.011719 70205.046875
92517.906250 30060.810547 56164.039062
69388.429688 22545.607422 42123.031250
46258.953125 15030.405273 28082.019531
23129.476562 7515.202637 14041.009766
27655.406250 4876.364746 0.000000
55310.812500 9752.729492 0.000000
82966.218750 14629.094727 0.000000
110621.625000 19505.458984 0.000000
138277.031250 24381.824219 0.000000
136176.296875 24011.408203 24381.966797
119751.453125 21115.285156 70205.023438
95801.164062 16892.228516 56164.019531
71850.875000 12669.171875 42123.015625
47900.582031 8446.114258 28082.009766
23950.291016 4223.057129 14041.004883
28065.000000 980.014465 0.000000
56130.000000 1960.028931 0.000000
84195.000000 2940.043457 0.000000
112260.000000 3920.057861 0.000000
140325.000000 4900.072266 0.000000
138193.140625 4825.628906 24382.033203
121525.046875 4243.588379 70205.218750
97220.039062 3394.870850 56164.175781
72915.031250 2546.153076 42123.132812
48610.019531 1697.435425 28082.087891
24305.009766 848.717712 14041.043945
27928.197266 -2935.415527 0.000000
55856.394531 -5870.831055 0.000000
83784.593750 -8806.247070 0.000000
111712.789062 -11741.662109 0.000000
139640.984375 -14677.077148 0.000000
137519.515625 -14454.098633 24381.972656
120932.671875 -12710.724609 70205.046875
96746.140625 -10168.580078 56164.039062
72559.609375 -7626.435059 42123.031250
48373.070312 -5084.290039 28082.019531
24186.535156 -2542.145020 14041.009766
27247.791016 -6793.694824 0.000000
54495.582031 -13587.389648 0.000000
81743.375000 -20381.083984 0.000000
108991.164062 -27174.779297 0.000000
136238.953125 -33968.472656 0.000000
134169.171875 -33452.414062 24381.904297
117986.421875 -29417.568359 70204.843750
94389.140625 -23534.054688 56163.875000
70791.859375 -17650.541016 42122.906250
47194.570312 -11767.027344 28081.937500
23597.285156 -5883.513672 14040.968750
26037.185547 -10519.752930 0.000000
52074.371094 -21039.505859 0.000000
78111.562500 -31559.259766 0.000000
104148.742188 -42079.011719 0.000000
130185.929688 -52598.765625 0.000000
128208.109375 -51799.671875 24381.964844
112744.351562 -45551.878906 70205.015625
90195.484375 -36441.503906 56164.011719
67646.617188 -27331.128906 42123.011719
45097.742188 -18220.751953 28082.005859
22548.871094 -9110.375977 14041.002930
24302.382812 -14031.051758 0.000000
48604.765625 -28062.103516 0.000000
72907.148438 -42093.156250 0.000000
97209.531250 -56124.207031 0.000000
121511.914062 -70155.257812 0.000000
119665.875000 -69089.437500 24364.582031
105232.429688 -60756.250000 70154.968750
84185.945312 -48605.000000 56123.976562
63139.460938 -36453.750000 42092.984375
42092.972656 -24302.500000 28061.988281
21046.486328 -12151.250000 14030.994141
22113.177734 -17276.748047 0.000000
44226.355469 -34553.496094 0.000000
66339.539062 -51830.246094 0.000000
88452.710938 -69106.992188 0.000000
110565.890625 -86383.742188 0.000000
108886.140625 -85071.375000 24364.619141
95752.898438 -74810.531250 70155.078125
76602.320312 -59848.425781 56124.062500
57451.742188 -44886.320312 42093.046875
38301.160156 -29924.212891 28062.031250
19150.580078 -14962.106445 14031.015625
19493.375000 -20186.224609 0.000000
38986.750000 -40372.449219 0.000000
58480.128906 -60558.675781 0.000000
77973.500000 -80744.898438 0.000000
97466.875000 -100931.125000 0.000000
95986.132812 -99397.750000 24364.568359
84408.812500 -87408.937500 70154.929688
67527.054688 -69927.148438 56123.945312
50645.289062 -52445.363281 42092.960938
33763.527344 -34963.574219 28061.972656
16881.763672 -17481.787109 14030.986328
16482.572266 -22686.419922 0.000000
32965.144531 -45372.839844 0.000000
49447.718750 -68059.265625 0.000000
65930.289062 -90745.679688 0.000000
82412.859375 -113432.101562 0.000000
81160.820312 -111708.812500 24347.134766
71371.648438 -98235.109375 70104.734375
57097.320312 -78588.085938 56083.789062
42822.992188 -58941.066406 42062.843750
28548.660156 -39294.042969 28041.894531
14274.330078 -19647.021484 14020.947266
13164.768555 -24759.617188 0.000000
26329.537109 -49519.234375 0.000000
39494.308594 -74278.851562 0.000000
52659.074219 -99038.468750 0.000000
65823.843750 -123798.085938 0.000000
64823.832031 -121917.312500 24347.148438
57005.136719 -107212.312500 70104.773438
45604.109375 -85769.851562 56083.820312
34203.082031 -64327.390625 42062.867188
22802.054688 -42884.925781 28041.910156
11401.027344 -21442.462891 14020.955078
9590.766602 -26351.013672 0.000000
19181.533203 -52702.027344 0.000000
28772.300781 -79053.039062 0.000000
38363.066406 -105404.054688 0.000000
47953.832031 -131755.062500 0.000000
47225.304688 -129753.406250 24347.287109
41529.246094 -114103.257812 70105.171875
33223.398438 -91282.609375 56084.136719
24917.548828 -68461.960938 42063.105469
16611.699219 -45641.304688 28042.068359
8305.849609 -22820.652344 14021.034180
5830.165527 -27429.207031 0.000000
11660.331055 -54858.414062 0.000000
17490.496094 -82287.625000 0.000000
23320.662109 -109716.828125 0.000000
29150.826172 -137146.031250 0.000000
28707.958984 -135062.468750 24347.185547
25245.363281 -118771.976562 70104.882812
20196.291016 -95017.585938 56083.906250
15147.218750 -71263.187500 42062.929688
10098.145508 -47508.792969 28041.953125
5049.072754 -23754.396484 14020.976562
1954.564697 -27953.802734 0.000000
3909.129395 -55907.605469 0.000000
5863.694336 -83861.414062 0.000000
7818.258789 -111815.210938 0.000000
9772.823242 -139769.015625 0.000000
9624.351562 -137645.609375 24329.892578
8463.515625 -121043.546875 70055.085938
6770.812500 -96834.835938 56044.070312
5078.109375 -72626.132812 42033.054688
3385.406250 -48417.417969 28022.035156
1692.703125 -24208.708984 14011.017578
-1954.635376 -27953.796875 0.000000
-3909.270752 -55907.593750 0.000000
-5863.906250 -83861.390625 0.000000
-7818.541504 -111815.187500 0.000000
-9773.176758 -139768.984375 0.000000
-9624.700195 -137645.578125 24329.890625
-8463.821289 -121043.523438 70055.078125
-6771.057129 -96834.820312 56044.062500
-5078.292969 -72626.117188 42033.046875
-3385.528564 -48417.410156 28022.031250
-1692.764282 -24208.705078 14011.015625
-5830.234863 -27429.193359 0.000000
-11660.469727 -54858.386719 0.000000
-17490.705078 -82287.585938 0.000000
-23320.939453 -109716.773438 0.000000
-29151.173828 -137145.968750 0.000000
-28708.300781 -135062.406250 24347.187500
-25245.664062 -118771.921875 70104.882812
-20196.531250 -95017.539062 56083.906250
-15147.399414 -71263.156250 42062.929688
-10098.265625 -47508.769531 28041.953125
-5049.132812 -23754.384766 14020.976562
-9590.833984 -26350.988281 0.000000
-19181.667969 -52701.976562 0.000000
-28772.501953 -79052.968750 0.000000
-38363.335938 -105403.953125 0.000000
-47954.167969 -131754.937500 0.000000
-47225.636719 -129753.281250 24347.287109
-41529.539062 -114103.148438 70105.171875
-33223.632812 -91282.523438 56084.136719
-24917.724609 -68461.890625 42063.105469
-16611.816406 -45641.261719 28042.068359
-8305.908203 -22820.630859 14021.034180
-13164.831055 -24759.583984 0.000000
-26329.662109 -49519.167969 0.000000
-39494.496094 -74278.750000 0.000000
-52659.324219 -99038.335938 0.000000
-65824.156250 -123797.914062 0.000000
-64824.136719 -121917.140625 24347.148438
-57005.406250 -107212.164062 70104.773438
-45604.324219 -85769.734375 56083.820312
-34203.246094 -64327.300781 42062.867188
-22802.162109 -42884.867188 28041.910156
-11401.081055 -21442.433594 14020.955078
-16482.628906 -22686.380859 0.000000
-32965.257812 -45372.761719 0.000000
-49447.886719 -68059.140625 0.000000
-65930.515625 -90745.523438 0.000000
-82413.140625 -113431.898438 0.000000
-81161.101562 -111708.609375 24347.134766
-71371.890625 -98234.929688 70104.734375
-57097.511719 -78587.945312 56083.789062
-42823.136719 -58940.960938 42062.843750
-28548.755859 -39293.972656 28041.894531
-14274.377930 -19646.986328 14020.947266
-19493.425781 -20186.175781 0.000000
-38986.851562 -40372.351562 0.000000
-58480.277344 -60558.527344 0.000000
-77973.703125 -80744.703125 0.000000
-97467.125000 -100930.875000 0.000000
-95986.375000 -99397.507812 24364.566406
-84409.031250 -87408.726562 70154.929688
-67527.226562 -69926.984375 56123.945312
-50645.421875 -52445.238281 42092.960938
-33763.613281 -34963.492188 28061.972656
-16881.806641 -17481.746094 14030.986328
-22113.222656 -17276.693359 0.000000
-44226.445312 -34553.386719 0.000000
-66339.671875 -51830.078125 0.000000
-88452.890625 -69106.773438 0.000000
-110566.109375 -86383.460938 0.000000
-108886.359375 -85071.101562 24364.619141
-95753.085938 -74810.289062 70155.078125
-76602.468750 -59848.230469 56124.062500
-57451.855469 -44886.175781 42093.046875
-38301.234375 -29924.115234 28062.031250
-19150.617188 -14962.057617 14031.015625
-24302.417969 -14030.989258 0.000000
-48604.835938 -28061.978516 0.000000
-72907.257812 -42092.968750 0.000000
-97209.671875 -56123.957031 0.000000
-121512.085938 -70154.945312 0.000000
-119666.039062 -69089.132812 24364.580078
-105232.578125 -60755.980469 70154.960938
-84186.062500 -48604.785156 56123.968750
-63139.550781 -36453.589844 42092.976562
-42093.031250 -24302.392578 28061.984375
-21046.515625 -12151.196289 14030.992188
-26037.214844 -10519.687500 0.000000
-52074.429688 -21039.375000 0.000000
-78111.648438 -31559.064453 0.000000
-104148.859375 -42078.750000 0.000000
-130186.070312 -52598.437500 0.000000
-128208.250000 -51799.347656 24381.964844
-112744.476562 -45551.593750 70205.023438
-90195.585938 -36441.277344 56164.019531
-67646.687500 -27330.957031 42123.015625
-45097.792969 -18220.638672 28082.009766
-22548.896484 -9110.319336 14041.004883
-27247.810547 -6793.625977 0.000000
-54495.621094 -13587.251953 0.000000
-81743.429688 -20380.878906 0.000000
-108991.242188 -27174.503906 0.000000
-136239.046875 -33968.128906 0.000000
-134169.265625 -33452.074219 24381.906250
-117986.507812 -29417.269531 70204.851562
-94389.210938 -23533.816406 56163.882812
-70791.906250 -17650.363281 42122.914062
-47194.605469 -11766.908203 28081.941406
-23597.302734 -5883.454102 14040.970703
-27928.203125 -2935.344727 0.000000
-55856.406250 -5870.689453 0.000000
-83784.609375 -8806.034180 0.000000
-111712.812500 -11741.378906 0.000000
-139641.015625 -14676.723633 0.000000
-137519.546875 -14453.750977 24381.972656
-120932.695312 -12710.418945 70205.039062
-96746.156250 -10168.334961 56164.031250
-72559.617188 -7626.251465 42123.023438
-48373.078125 -5084.167480 28082.015625
-24186.539062 -2542.083740 14041.007812
-28065.000000 980.085571 0.000000
-56130.000000 1960.171143 0.000000
-84195.000000 2940.256836 0.000000
-112260.000000 3920.342285 0.000000
-140325.000000 4900.427734 0.000000
-138193.140625 4825.979004 24382.035156
-121525.046875 4243.895996 70205.218750
-97220.039062 3395.116943 56164.175781
-72915.031250 2546.337646 42123.132812
-48610.019531 1697.558472 28082.087891
-24305.009766 848.779236 14041.043945
-27655.394531 4876.435059 0.000000
-55310.789062 9752.870117 0.000000
-82966.187500 14629.305664 0.000000
-110621.578125 19505.740234 0.000000
-138276.968750 24382.175781 0.000000
-136176.234375 24011.755859 24381.966797
-119751.398438 21115.589844 70205.023438
-95801.117188 16892.472656 56164.019531
-71850.843750 12669.354492 42123.015625
-47900.558594 8446.236328 28082.009766
-23950.279297 4223.118164 14041.004883
-26707.587891 8677.874023 0.000000
-53415.175781 17355.748047 0.000000
-80122.765625 26033.621094 0.000000
-106830.351562 34711.496094 0.000000
-133537.937500 43389.367188 0.000000
-131509.187500 42730.183594 24381.970703
-115647.273438 37576.304688 70205.039062
-92517.820312 30061.044922 56164.031250
-69388.367188 22545.783203 42123.023438
-46258.910156 15030.522461 28082.015625
-23129.455078 7515.261230 14041.007812
-25239.984375 12310.392578 0.000000
-50479.968750 24620.785156 0.000000
-75719.953125 36931.179688 0.000000
-100959.937500 49241.570312 0.000000
-126199.921875 61551.960938 0.000000
-124282.656250 60616.847656 24382.000000
-109292.367188 53305.574219 70205.125000
-87433.898438 42644.460938 56164.101562
-65575.421875 31983.345703 42123.078125
-43716.949219 21322.230469 28082.050781
-21858.474609 10661.115234 14041.025391
-23264.380859 15692.129883 0.000000
-46528.761719 31384.259766 0.000000
-69793.140625 47076.390625 0.000000
-93057.523438 62768.519531 0.000000
-116321.898438 78460.648438 0.000000
-114554.703125 77268.656250 24364.552734
-100737.742188 67948.929688 70154.882812
-80590.195312 54359.144531 56123.906250
-60442.648438 40769.359375 42092.929688
-40295.097656 27179.572266 28061.953125
-20147.548828 13589.786133 14030.976562
-20854.177734 18777.207031 0.000000
-41708.355469 37554.414062 0.000000
-62562.531250 56331.621094 0.000000
-83416.710938 75108.828125 0.000000
-104270.882812 93886.031250 0.000000
-102686.773438 92459.687500 24364.642578
-90301.257812 81307.710938 70155.140625
-72241.007812 65046.167969 56124.113281
-54180.757812 48784.628906 42093.085938
-36120.503906 32523.083984 28062.056641
-18060.251953 16261.541992 14031.028320
-18037.773438 21496.824219 0.000000
-36075.546875 42993.648438 0.000000
-54113.324219 64490.472656 0.000000
-72151.093750 85987.296875 0.000000
-90188.867188 107484.117188 0.000000
-88818.695312 105851.187500 24364.558594
-78105.867188 93084.000000 70154.898438
-62484.695312 74467.203125 56123.917969
-46863.523438 55850.402344 42092.941406
-31242.347656 37233.601562 28061.958984
-15621.173828 18616.800781 14030.979492
-14859.970703 23781.019531 0.000000
-29719.941406 47562.039062 0.000000
-44579.914062 71343.062500 0.000000
-59439.882812 95124.078125 0.000000
-74299.851562 118905.093750 0.000000
-73171.070312 117098.656250 24347.238281
-64345.574219 102974.859375 70105.031250
-51476.460938 82379.890625 56084.027344
-38607.347656 61784.917969 42063.019531
-25738.230469 41189.945312 28042.013672
-12869.115234 20594.972656 14021.006836
-11405.567383 25617.615234 0.000000
-22811.134766 51235.230469 0.000000
-34216.703125 76852.843750 0.000000
-45622.269531 102470.460938 0.000000
-57027.835938 128088.070312 0.000000
-56161.453125 126142.125000 24347.138672
-49387.566406 110927.554688 70104.742188
-39510.054688 88742.046875 56083.792969
-29632.541016 66556.539062 42062.847656
-19755.027344 44371.023438 28041.896484
-9877.513672 22185.511719 14020.948242
-7729.365723 26955.810547 0.000000
-15458.731445 53911.621094 0.000000
-23188.097656 80867.429688 0.000000
-30917.462891 107823.242188 0.000000
-38646.828125 134779.046875 0.000000
-38059.695312 132731.453125 24347.289062
-33469.144531 116722.109375 70105.171875
-26775.316406 93377.687500 56084.136719
-20081.488281 70033.265625 42063.105469
-13387.658203 46688.843750 28042.068359
-6693.829102 23344.421875 14021.034180
-3899.764893 27749.406250 0.000000
-7799.529785 55498.812500 0.000000
-11699.294922 83248.218750 0.000000
-15599.059570 110997.625000 0.000000
-19498.824219 138747.031250 0.000000
-19202.593750 136639.156250 24329.927734
-16886.482422 120158.484375 70055.187500
-13509.186523 96126.789062 56044.152344
-10131.889648 72095.093750 42033.113281
-6754.593262 48063.394531 28022.076172
-3377.296631 24031.697266 14011.038086
0.035520 28022.000000 0.000000
0.071041 56044.000000 0.000000
0.106561 84066.000000 0.000000
0.142082 112088.000000 0.000000
0.177602 140110.000000 0.000000
0.174904 137981.406250 24329.845703
0.153808 121338.851562 70054.953125
0.123046 97071.085938 56043.964844
0.092285 72803.312500 42032.972656
0.061523 48535.542969 28021.982422
0.030762 24267.771484 14010.991211
0.035520 28022.000000 0.000000
0.071041 56044.000000 0.000000
0.106561 84066.000000 0.000000
0.142082 112088.000000 0.000000
0.177602 140110.000000 0.000000
0.174904 137981.406250 24329.845703
0.153808 121338.851562 70054.953125
0.123046 97071.085938 56043.964844
0.092285 72803.312500 42032.972656
0.061523 48535.542969 28021.982422
0.030762 24267.771484 14010.991211
3 17 16 6
3 5 6 16
3 16 15 5
3 4 5 15
3 15 14 4
3 3 4 14
3 14 13 3
3 2 3 13
3 13 1 2
3 17 6 7
3 18 17 7
3 18 7 8
3 19 18 8
3 19 8 20
3 9 20 8
3 20 9 21
3 10 21 9
3 21 10 22
3 11 22 10
3 22 11 23
3 12 23 11
3 23 12 0
3 28 27 17
3 16 17 27
3 27 26 16
3 15 16 26
3 26 25 15
3 14 15 25
3 25 24 14
3 13 14 24
3 24 1 13
3 28 17 18
3 29 28 18
3 29 18 19
3 30 29 19
3 30 19 31
3 20 31 19
3 31 20 32
3 21 32 20
3 32 21 33
3 22 33 21
3 33 22 34
3 23 34 22
3 34 23 0
3 39 38 28
3 27 28 38
3 38 37 27
3 26 27 37
3 37 36 26
3 25 26 36
3 36 35 25
3 24 25 35
3 35 1 24
3 39 28 29
3 40 39 29
3 40 29 30
3 41 40 30
3 41 30 42
3 31 42 30
3 42 31 43
3 32 43 31
3 43 32 44
3 33 44 32
3 44 33 45
3 34 45 33
3 45 34 0
3 50 49 39
3 38 39 49
3 49 48 38
3 37 38 48
3 48 47 37
3 36 37 47
3 47 46 36
3 35 36 46
3 46 1 35
3 50 39 40
3 51 50 40
3 51 40 41
3 52 51 41
3 52 41 53
3 42 53 41
3 53 42 54
3 43 54 42
3 54 43 55
3 44 55 43
3 55 44 56
3 45 56 44
3 56 45 0
3 61 60 50
3 49 50 60
3 60 59 49
3 48 49 59
3 59 58 48
3 47 48 58
3 58 57 47
3 46 47 57
3 57 1 46
3 61 50 51
3 62 61 51
3 62 51 52
3 63 62 52
3 63 52 64
3 53 64 52
3 64 53 65
3 54 65 53
3 65 54 66
3 55 66 54
3 66 55 67
3 56 67 55
3 67 56 0
3 72 71 61
3 60 61 71
3 71 70 60
3 59 60 70
3 70 69 59
3 58 59 69
3 69 68 58
3 57 58 68
3 68 1 57
3 72 61 62
3 73 72 62
3 73 62 63
3 74 73 63
3 74 63 75
3 64 75 63
3 75 64 76
3 65 76 64
3 76 65 77
3 66 77 65
3 77 66 78
3 67 78 66
3 78 67 0
3 83 82 72
3 71 72 82
3 82 81 71
3 70 71 81
3 81 80 70
3 69 70 80
3 80 79 69
3 68 69 79
3 79 1 68
3 83 72 73
3 84 83 73
3 84 73 74
3 85 84 74
3 85 74 86
3 75 86 74
3 86 75 87
3 76 87 75
3 87 76 88
3 77 88 76
3 88 77 89
3 78 89 77
3 89 78 0
3 94 93 83
3 82 83 93
3 93 92 82
3 81 82 92
3 92 91 81
3 80 81 91
3 91 90 80
3 79 80 90
3 90 1 79
3 94 83 84
3 95 94 84
3 95 84 85
3 96 95 85
3 96 85 97
3 86 97 85
3 97 86 98
3 87 98 86
3 98 87 99
3 88 99 87
3 99 88 100
3 89 100 88
3 100 89 0
3 105 104 94
3 93 94 104
3 104 103 93
3 92 93 103
3 103 102 92
3 91 92 102
3 102 101 91
3 90 91 101
3 101 1 90
3 105 94 95
3 106 105 95
3 106 95 96
3 107 106 96
3 107 96 108
3 97 108 96
3 108 97 109
3 98 109 97
3 109 98 110
3 99 110 98
3 110 99 111
3 100 111 99
3 111 100 0
3 116 115 105
3 104 105 115
3 115 114 104
3 103 104 114
3 114 113 103
3 102 103 113
3 113 112 102
3 101 102 112
3 112 1 101
3 116 105 106
3 117 116 106
3 117 106 107
3 118 117 107
3 118 107 119
3 108 119 107
3 119 108 120
3 109 120 108
3 120 109 121
3 110 121 109
3 121 110 122
3 111 122 110
3 122 111 0
3 127 126 116
3 115 116 126
3 126 125 115
3 114 115 125
3 125 124 114
3 113 114 124
3 124 123 113
3 112 113 123
3 123 1 112
3 127 116 117
3 128 127 117
3 128 117 118
3 129 128 118
3 129 118 130
3 119 130 118
3 130 119 131
3 120 131 119
3 131 120 132
3 121 132 120
3 132 121 133
3 122 133 121
3 133 122 0
3 138 137 127
3 126 127 137
3 137 136 126
3 125 126 136
3 136 135 125
3 124 125 135
3 135 134 124
3 123 124 134
3 134 1 123
3 138 127 128
3 139 138 128
3 139 128 129
3 140 139 129
3 140 129 141
3 130 141 129
3 141 130 142
3 131 142 130
3 142 131 143
3 132 143 131
3 143 132 144
3 133 144 132
3 144 133 0
3 149 148 138
3 137 138 148
3 148 147 137
3 136 137 147
3 147 146 136
3 135 136 146
3 146 145 135
3 134 135 145
3 145 1 134
3 149 138 139
3 150 149 139
3 150 139 140
3 151 150 140
3 151 140 152
3 141 152 140
3 152 141 153
3 142 153 141
3 153 142 154
3 143 154 142
3 154 143 155
3 144 155 143
3 155 144 0
3 160 159 149
3 148 149 159
3 159 158 148
3 147 148 158
3 158 157 147
3 146 147 157
3 157 156 146
3 145 146 156
3 156 1 145
3 160 149 150
3 161 160 150
3 161 150 151
3 162 161 151
3 162 151 163
3 152 163 151
3 163 152 164
3 153 164 152
3 164 153 165
3 154 165 153
3 165 154 166
3 155 166 154
3 166 155 0
3 171 170 160
3 159 160 170
3 170 169 159
3 158 159 169
3 169 168 158
3 157 158 168
3 168 167 157
3 156 157 167
3 167 1 156
3 171 160 161
3 172 171 161
3 172 161 162
3 173 172 162
3 173 162 174
3 163 174 162
3 174 163 175
3 164 175 163
3 175 164 176
3 165 176 164
3 176 165 177
3 166 177 165
3 177 166 0
3 182 181 171
3 170 171 181
3 181 180 170
3 169 170 180
3 180 179 169
3 168 169 179
3 179 178 168
3 167 168 178
3 178 1 167
3 182 171 172
3 183 182 172
3 183 172 173
3 184 183 173
3 184 173 185
3 174 185 173
3 185 174 186
3 175 186 174
3 186 175 187
3 176 187 175
3 187 176 188
3 177 188 176
3 188 177 0
3 193 192 182
3 181 182 192
3 192 191 181
3 180 181 191
3 191 190 180
3 179 180 190
3 190 189 179
3 178 179 189
3 189 1 178
3 193 182 183
3 194 193 183
3 194 183 184
3 195 194 184
3 195 184 196
3 185 196 184
3 196 185 197
3 186 197 185
3 197 186 198
3 187 198 186
3 198 187 199
3 188 199 187
3 199 188 0
3 204 203 193
3 192 193 203
3 203 202 192
3 191 192 202
3 202 201 191
3 190 191 201
3 201 200 190
3 189 190 200
3 200 1 189
3 204 193 194
3 205 204 194
3 205 194 195
3 206 205 195
3 206 195 207
3 196 207 195
3 207 196 208
3 197 208 196
3 208 197 209
3 198 209 197
3 209 198 210
3 199 210 198
3 210 199 0
3 215 214 204
3 203 204 214
3 214 213 203
3 202 203 213
3 213 212 202
3 201 202 212
3 212 211 201
3 200 201 211
3 211 1 200
3 215 204 205
3 216 215 205
3 216 205 206
3 217 216 206
3 217 206 218
3 207 218 206
3 218 207 219
3 208 219 207
3 219 208 220
3 209 220 208
3 220 209 221
3 210 221 209
3 221 210 0
3 226 225 215
3 214 215 225
3 225 224 214
3 213 214 224
3 224 223 213
3 212 213 223
3 223 222 212
3 211 212 222
3 222 1 211
3 226 215 216
3 227 226 216
3 227 216 217
3 228 227 217
3 228 217 229
3 218 229 217
3 229 218 230
3 219 230 218
3 230 219 231
3 220 231 219
3 231 220 232
3 221 232 220
3 232 221 0
3 237 236 226
3 225 226 236
3 236 235 225
3 224 225 235
3 235 234 224
3 223 224 234
3 234 233 223
3 222 223 233
3 233 1 222
3 237 226 227
3 238 237 227
3 238 227 228
3 239 238 228
3 239 228 240
3 229 240 228
3 240 229 241
3 230 241 229
3 241 230 242
3 231 242 230
3 242 231 243
3 232 243 231
3 243 232 0
3 248 247 237
3 236 237 247
3 247 246 236
3 235 236 246
3 246 245 235
3 234 235 245
3 245 244 234
3 233 234 244
3 244 1 233
3 248 237 238
3 249 248 238
3 249 238 239
3 250 249 239
3 250 239 251
3 240 251 239
3 251 240 252
3 241 252 240
3 252 241 253
3 242 253 241
3 253 242 254
3 243 254 242
3 254 243 0
3 259 258 248
3 247 248 258
3 258 257 247
3 246 247 257
3 257 256 246
3 245 246 256
3 256 255 245
3 244 245 255
3 255 1 244
3 259 248 249
3 260 259 249
3 260 249 250
3 261 260 250
3 261 250 262
3 251 262 250
3 262 251 263
3 252 263 251
3 263 252 264
3 253 264 252
3 264 253 265
3 254 265 253
3 265 254 0
3 270 269 259
3 258 259 269
3 269 268 258
3 257 258 268
3 268 267 257
3 256 257 267
3 267 266 256
3 255 256 266
3 266 1 255
3 270 259 260
3 271 270 260
3 271 260 261
3 272 271 261
3 272 261 273
3 262 273 261
3 273 262 274
3 263 274 262
3 274 263 275
3 264 275 263
3 275 264 276
3 265 276 264
3 276 265 0
3 281 280 270
3 269 270 280
3 280 279 269
3 268 269 279
3 279 278 268
3 267 268 278
3 278 277 267
3 266 267 277
3 277 1 266
3 281 270 271
3 282 281 271
3 282 271 272
3 283 282 272
3 283 272 284
3 273 284 272
3 284 273 285
3 274 285 273
3 285 274 286
3 275 286 274
3 286 275 287
3 276 287 275
3 287 276 0
3 292 291 281
3 280 281 291
3 291 290 280
3 279 280 290
3 290 289 279
3 278 279 289
3 289 288 278
3 277 278 288
3 288 1 277
3 292 281 282
3 293 292 282
3 293 282 283
3 294 293 283
3 294 283 295
3 284 295 283
3 295 284 296
3 285 296 284
3 296 285 297
3 286 297 285
3 297 286 298
3 287 298 286
3 298 287 0
3 303 302 292
3 291 292 302
3 302 301 291
3 290 291 301
3 301 300 290
3 289 290 300
3 300 299 289
3 288 289 299
3 299 1 288
3 303 292 293
3 304 303 293
3 304 293 294
3 305 304 294
3 305 294 306
3 295 306 294
3 306 295 307
3 296 307 295
3 307 296 308
3 297 308 296
3 308 297 309
3 298 309 297
3 309 298 0
3 314 313 303
3 302 303 313
3 313 312 302
3 301 302 312
3 312 311 301
3 300 301 311
3 311 310 300
3 299 300 310
3 310 1 299
3 314 303 304
3 315 314 304
3 315 304 305
3 316 315 305
3 316 305 317
3 306 317 305
3 317 306 318
3 307 318 306
3 318 307 319
3 308 319 307
3 319 308 320
3 309 320 308
3 320 309 0
3 325 324 314
3 313 314 324
3 324 323 313
3 312 313 323
3 323 322 312
3 311 312 322
3 322 321 311
3 310 311 321
3 321 1 310
3 325 314 315
3 326 325 315
3 326 315 316
3 327 326 316
3 327 316 328
3 317 328 316
3 328 317 329
3 318 329 317
3 329 318 330
3 319 330 318
3 330 319 331
3 320 331 319
3 331 320 0
3 336 335 325
3 324 325 335
3 335 334 324
3 323 324 334
3 334 333 323
3 322 323 333
3 333 332 322
3 321 322 332
3 332 1 321
3 336 325 326
3 337 336 326
3 337 326 327
3 338 337 327
3 338 327 339
3 328 339 327
3 339 328 340
3 329 340 328
3 340 329 341
3 330 341 329
3 341 330 342
3 331 342 330
3 342 331 0
3 347 346 336
3 335 336 346
3 346 345 335
3 334 335 345
3 345 344 334
3 333 334 344
3 344 343 333
3 332 333 343
3 343 1 332
3 347 336 337
3 348 347 337
3 348 337 338
3 349 348 338
3 349 338 350
3 339 350 338
3 350 339 351
3 340 351 339
3 351 340 352
3 341 352 340
3 352 341 353
3 342 353 341
3 353 342 0
3 358 357 347
3 346 347 357
3 357 356 346
3 345 346 356
3 356 355 345
3 344 345 355
3 355 354 344
3 343 344 354
3 354 1 343
3 358 347 348
3 359 358 348
3 359 348 349
3 360 359 349
3 360 349 361
3 350 361 349
3 361 350 362
3 351 362 350
3 362 351 363
3 352 363 351
3 363 352 364
3 353 364 352
3 364 353 0
3 369 368 358
3 357 358 368
3 368 367 357
3 356 357 367
3 367 366 356
3 355 356 366
3 366 365 355
3 354 355 365
3 365 1 354
3 369 358 359
3 370 369 359
3 370 359 360
3 371 370 360
3 371 360 372
3 361 372 360
3 372 361 373
3 362 373 361
3 373 362 374
3 363 374 362
3 374 363 375
3 364 375 363
3 375 364 0
3 380 379 369
3 368 369 379
3 379 378 368
3 367 368 378
3 378 377 367
3 366 367 377
3 377 376 366
3 365 366 376
3 376 1 365
3 380 369 370
3 381 380 370
3 381 370 371
3 382 381 371
3 382 371 383
3 372 383 371
3 383 372 384
3 373 384 372
3 384 373 385
3 374 385 373
3 385 374 386
3 375 386 374
3 386 375 0
3 391 390 380
3 379 380 390
3 390 389 379
3 378 379 389
3 389 388 378
3 377 378 388
3 388 387 377
3 376 377 387
3 387 1 376
3 391 380 381
3 392 391 381
3 392 381 382
3 393 392 382
3 393 382 394
3 383 394 382
3 394 383 395
3 384 395 383
3 395 384 396
3 385 396 384
3 396 385 397
3 386 397 385
3 397 386 0
3 402 401 391
3 390 391 401
3 401 400 390
3 389 390 400
3 400 399 389
3 388 389 399
3 399 398 388
3 387 388 398
3 398 1 387
3 402 391 392
3 403 402 392
3 403 392 393
3 404 403 393
3 404 393 405
3 394 405 393
3 405 394 406
3 395 406 394
3 406 395 407
3 396 407 395
3 407 396 408
3 397 408 396
3 408 397 0
3 413 412 402
3 401 402 412
3 412 411 401
3 400 401 411
3 411 410 400
3 399 400 410
3 410 409 399
3 398 399 409
3 409 1 398
3 413 402 403
3 414 413 403
3 414 403 404
3 415 414 404
3 415 404 416
3 405 416 404
3 416 405 417
3 406 417 405
3 417 406 418
3 407 418 406
3 418 407 419
3 408 419 407
3 419 408 0
3 424 423 413
3 412 413 423
3 423 422 412
3 411 412 422
3 422 421 411
3 410 411 421
3 421 420 410
3 409 410 420
3 420 1 409
3 424 413 414
3 425 424 414
3 425 414 415
3 426 425 415
3 426 415 427
3 416 427 415
3 427 416 428
3 417 428 416
3 428 417 429
3 418 429 417
3 429 418 430
3 419 430 418
3 430 419 0
3 435 434 424
3 423 424 434
3 434 433 423
3 422 423 433
3 433 432 422
3 421 422 432
3 432 431 421
3 420 421 431
3 431 1 420
3 435 424 425
3 436 435 425
3 436 425 426
3 437 436 426
3 437 426 438
3 427 438 426
3 438 427 439
3 428 439 427
3 439 428 440
3 429 440 428
3 440 429 441
3 430 441 429
3 441 430 0
3 446 445 435
3 434 435 445
3 445 444 434
3 433 434 444
3 444 443 433
3 432 433 443
3 443 442 432
3 431 432 442
3 442 1 431
3 446 435 436
3 447 446 436
3 447 436 437
3 448 447 437
3 448 437 449
3 438 449 437
3 449 438 450
3 439 450 438
3 450 439 451
3 440 451 439
3 451 440 452
3 441 452 440
3 452 441 0
3 457 456 446
3 445 446 456
3 456 455 445
3 444 445 455
3 455 454 444
3 443 444 454
3 454 453 443
3 442 443 453
3 453 1 442
3 457 446 447
3 458 457 447
3 458 447 448
3 459 458 448
3 459 448 460
3 449 460 448
3 460 449 461
3 450 461 449
3 461 450 462
3 451 462 450
3 462 451 463
3 452 463 451
3 463 452 0
3 468 467 457
3 456 457 467
3 467 466 456
3 455 456 466
3 466 465 455
3 454 455 465
3 465 464 454
3 453 454 464
3 464 1 453
3 468 457 458
3 469 468 458
3 469 458 459
3 470 469 459
3 470 459 471
3 460 471 459
3 471 460 472
3 461 472 460
3 472 461 473
3 462 473 461
3 473 462 474
3 463 474 462
3 474 463 0
3 479 478 468
3 467 468 478
3 478 477 467
3 466 467 477
3 477 476 466
3 465 466 476
3 476 475 465
3 464 465 475
3 475 1 464
3 479 468 469
3 480 479 469
3 480 469 470
3 481 480 470
3 481 470 482
3 471 482 470
3 482 471 483
3 472 483 471
3 483 472 484
3 473 484 472
3 484 473 485
3 474 485 473
3 485 474 0
3 490 489 479
3 478 479 489
3 489 488 478
3 477 478 488
3 488 487 477
3 476 477 487
3 487 486 476
3 475 476 486
3 486 1 475
3 490 479 480
3 491 490 480
3 491 480 481
3 492 491 481
3 492 481 493
3 482 493 481
3 493 482 494
3 483 494 482
3 494 483 495
3 484 495 483
3 495 484 496
3 485 496 484
3 496 485 0
3 501 500 490
3 489 490 500
3 500 499 489
3 488 489 499
3 499 498 488
3 487 488 498
3 498 497 487
3 486 487 497
3 497 1 486
3 501 490 491
3 502 501 491
3 502 491 492
3 503 502 492
3 503 492 504
3 493 504 492
3 504 493 505
3 494 505 493
3 505 494 506
3 495 506 494
3 506 495 507
3 496 507 495
3 507 496 0
3 512 511 501
3 500 501 511
3 511 510 500
3 499 500 510
3 510 509 499
3 498 499 509
3 509 508 498
3 497 498 508
3 508 1 497
3 512 501 502
3 513 512 502
3 513 502 503
3 514 513 503
3 514 503 515
3 504 515 503
3 515 504 516
3 505 516 504
3 516 505 517
3 506 517 505
3 517 506 518
3 507 518 506
3 518 507 0
