OFF
420 814 0
0.000000 0.000000 1.000000
0.000000 0.000000 0.000000
0.035520 28022.000000 0.000000
0.071041 56044.000000 0.000000
0.106561 84066.000000 0.000000
0.142082 112088.000000 0.000000
0.177602 140110.000000 0.000000
0.174904 137981.406250 24329.845703
0.153808 121338.851562 70054.953125
0.123046 97071.085938 56043.964844
0.092285 72803.312500 42032.972656
0.061523 48535.542969 28021.982422
0.030762 24267.771484 14010.991211
4865.835449 27596.394531 0.000000
9731.670898 55192.789062 0.000000
14597.505859 82789.187500 0.000000
19463.341797 110385.578125 0.000000
24329.175781 137981.968750 0.000000
23959.560547 135885.703125 24329.919922
21069.689453 119495.921875 70055.164062
16855.751953 95596.742188 56044.132812
12641.814453 71697.554688 42033.101562
8427.875977 47798.371094 28022.066406
4213.937988 23899.185547 14011.033203
9590.833984 26350.988281 0.000000
19181.667969 52701.976562 0.000000
28772.501953 79052.968750 0.000000
38363.335938 105403.953125 0.000000
47954.167969 131754.937500 0.000000
47225.636719 129753.281250 24347.287109
41529.539062 114103.148438 70105.171875
33223.632812 91282.523438 56084.136719
24917.724609 68461.890625 42063.105469
16611.816406 45641.261719 28042.068359
8305.908203 22820.630859 14021.034180
14021.031250 24285.183594 0.000000
28042.062500 48570.367188 0.000000
42063.093750 72855.554688 0.000000
56084.125000 97140.734375 0.000000
70105.156250 121425.914062 0.000000
69040.101562 119581.179688 24347.298828
60712.863281 105157.953125 70105.203125
48570.292969 84126.367188 56084.164062
36427.718750 63094.773438 42063.125000
24285.146484 42063.183594 28042.082031
12142.573242 21031.591797 14021.041016
18037.826172 21496.777344 0.000000
36075.652344 42993.554688 0.000000
54113.480469 64490.332031 0.000000
72151.304688 85987.109375 0.000000
90189.132812 107483.882812 0.000000
88818.953125 105850.960938 24364.556641
78106.101562 93083.796875 70154.898438
62484.882812 74467.039062 56123.917969
46863.664062 55850.281250 42092.941406
31242.441406 37233.519531 28061.958984
15621.220703 18616.759766 14030.979492
21496.824219 18037.914062 0.000000
42993.648438 36075.828125 0.000000
64490.472656 54113.746094 0.000000
85987.296875 72151.656250 0.000000
107484.117188 90189.570312 0.000000
105851.187500 88819.382812 24364.636719
93084.000000 78106.476562 70155.125000
74467.203125 62485.183594 56124.101562
55850.402344 46863.886719 42093.078125
37233.601562 31242.591797 28062.050781
18616.800781 15621.295898 14031.025391
24302.417969 14030.989258 0.000000
48604.835938 28061.978516 0.000000
72907.257812 42092.968750 0.000000
97209.671875 56123.957031 0.000000
121512.085938 70154.945312 0.000000
119666.039062 69089.132812 24364.580078
105232.578125 60755.980469 70154.960938
84186.062500 48604.785156 56123.968750
63139.550781 36453.589844 42092.976562
42093.031250 24302.392578 28061.984375
21046.515625 12151.196289 14030.992188
26388.412109 9604.586914 0.000000
52776.824219 19209.173828 0.000000
79165.242188 28813.761719 0.000000
105553.648438 38418.347656 0.000000
131942.062500 48022.933594 0.000000
129937.562500 47293.355469 24381.904297
114265.210938 41589.089844 70204.843750
91412.171875 33271.273438 56163.875000
68559.132812 24953.455078 42122.906250
45706.085938 16635.636719 28081.937500
22853.042969 8317.818359 14040.968750
27655.406250 4876.364746 0.000000
55310.812500 9752.729492 0.000000
82966.218750 14629.094727 0.000000
110621.625000 19505.458984 0.000000
138277.031250 24381.824219 0.000000
136176.296875 24011.408203 24381.966797
119751.453125 21115.285156 70205.023438
95801.164062 16892.228516 56164.019531
71850.875000 12669.171875 42123.015625
47900.582031 8446.114258 28082.009766
23950.291016 4223.057129 14041.004883
28082.000000 -0.035596 0.000000
56164.000000 -0.071193 0.000000
84246.000000 -0.106789 0.000000
112328.000000 -0.142386 0.000000
140410.000000 -0.177982 0.000000
138276.859375 -0.175278 24381.941406
121598.656250 -0.154137 70204.953125
97278.929688 -0.123310 56163.964844
72959.195312 -0.092482 42122.972656
48639.464844 -0.061655 28081.982422
24319.732422 -0.030827 14040.991211
27655.394531 -4876.435059 0.000000
55310.789062 -9752.870117 0.000000
82966.187500 -14629.305664 0.000000
110621.578125 -19505.740234 0.000000
138276.968750 -24382.175781 0.000000
136176.234375 -24011.755859 24381.966797
119751.398438 -21115.589844 70205.023438
95801.117188 -16892.472656 56164.019531
71850.843750 -12669.354492 42123.015625
47900.558594 -8446.236328 28082.009766
23950.279297 -4223.118164 14041.004883
26388.388672 -9604.654297 0.000000
52776.777344 -19209.308594 0.000000
79165.164062 -28813.962891 0.000000
105553.554688 -38418.617188 0.000000
131941.937500 -48023.269531 0.000000
129937.437500 -47293.687500 24381.904297
114265.101562 -41589.382812 70204.843750
91412.085938 -33271.507812 56163.875000
68559.062500 -24953.630859 42122.906250
45706.042969 -16635.753906 28081.937500
22853.021484 -8317.876953 14040.968750
24302.382812 -14031.051758 0.000000
48604.765625 -28062.103516 0.000000
72907.148438 -42093.156250 0.000000
97209.531250 -56124.207031 0.000000
121511.914062 -70155.257812 0.000000
119665.875000 -69089.437500 24364.582031
105232.429688 -60756.250000 70154.968750
84185.945312 -48605.000000 56123.976562
63139.460938 -36453.750000 42092.984375
42092.972656 -24302.500000 28061.988281
21046.486328 -12151.250000 14030.994141
21496.777344 -18037.966797 0.000000
42993.554688 -36075.933594 0.000000
64490.332031 -54113.902344 0.000000
85987.109375 -72151.867188 0.000000
107483.882812 -90189.835938 0.000000
105850.960938 -88819.648438 24364.634766
93083.796875 -78106.710938 70155.125000
74467.039062 -62485.371094 56124.101562
55850.281250 -46864.027344 42093.078125
37233.519531 -31242.685547 28062.050781
18616.759766 -15621.342773 14031.025391
18037.773438 -21496.824219 0.000000
36075.546875 -42993.648438 0.000000
54113.324219 -64490.472656 0.000000
72151.093750 -85987.296875 0.000000
90188.867188 -107484.117188 0.000000
88818.695312 -105851.187500 24364.558594
78105.867188 -93084.000000 70154.898438
62484.695312 -74467.203125 56123.917969
46863.523438 -55850.402344 42092.941406
31242.347656 -37233.601562 28061.958984
15621.173828 -18616.800781 14030.979492
14020.968750 -24285.216797 0.000000
28041.937500 -48570.433594 0.000000
42062.906250 -72855.656250 0.000000
56083.875000 -97140.867188 0.000000
70104.843750 -121426.085938 0.000000
69039.789062 -119581.351562 24347.296875
60712.589844 -105158.101562 70105.203125
48570.074219 -84126.484375 56084.164062
36427.554688 -63094.863281 42063.125000
24285.037109 -42063.242188 28042.082031
12142.518555 -21031.621094 14021.041016
9590.766602 -26351.013672 0.000000
19181.533203 -52702.027344 0.000000
28772.300781 -79053.039062 0.000000
38363.066406 -105404.054688 0.000000
47953.832031 -131755.062500 0.000000
47225.304688 -129753.406250 24347.287109
41529.246094 -114103.257812 70105.171875
33223.398438 -91282.609375 56084.136719
24917.548828 -68461.960938 42063.105469
16611.699219 -45641.304688 28042.068359
8305.849609 -22820.652344 14021.034180
4865.765137 -27596.406250 0.000000
9731.530273 -55192.812500 0.000000
14597.294922 -82789.218750 0.000000
19463.060547 -110385.625000 0.000000
24328.824219 -137982.031250 0.000000
23959.214844 -135885.765625 24329.919922
21069.384766 -119495.976562 70055.164062
16855.507812 -95596.781250 56044.132812
12641.631836 -71697.585938 42033.101562
8427.753906 -47798.390625 28022.066406
4213.876953 -23899.195312 14011.033203
-0.035520 -28022.000000 0.000000
-0.071041 -56044.000000 0.000000
-0.106561 -84066.000000 0.000000
-0.142082 -112088.000000 0.000000
-0.177602 -140110.000000 0.000000
-0.174904 -137981.406250 24329.845703
-0.153808 -121338.851562 70054.953125
-0.123046 -97071.085938 56043.964844
-0.092285 -72803.312500 42032.972656
-0.061523 -48535.542969 28021.982422
-0.030762 -24267.771484 14010.991211
-4865.835449 -27596.394531 0.000000
-9731.670898 -55192.789062 0.000000
-14597.505859 -82789.187500 0.000000
-19463.341797 -110385.578125 0.000000
-24329.175781 -137981.968750 0.000000
-23959.560547 -135885.703125 24329.919922
-21069.689453 -119495.921875 70055.164062
-16855.751953 -95596.742188 56044.132812
-12641.814453 -71697.554688 42033.101562
-8427.875977 -47798.371094 28022.066406
-4213.937988 -23899.185547 14011.033203
-9590.833984 -26350.988281 0.000000
-19181.667969 -52701.976562 0.000000
-28772.501953 -79052.968750 0.000000
-38363.335938 -105403.953125 0.000000
-47954.167969 -131754.937500 0.000000
-47225.636719 -129753.281250 24347.287109
-41529.539062 -114103.148438 70105.171875
-33223.632812 -91282.523438 56084.136719
-24917.724609 -68461.890625 42063.105469
-16611.816406 -45641.261719 28042.068359
-8305.908203 -22820.630859 14021.034180
-14021.031250 -24285.183594 0.000000
-28042.062500 -48570.367188 0.000000
-42063.093750 -72855.554688 0.000000
-56084.125000 -97140.734375 0.000000
-70105.156250 -121425.914062 0.000000
-69040.101562 -119581.179688 24347.298828
-60712.863281 -105157.953125 70105.203125
-48570.292969 -84126.367188 56084.164062
-36427.718750 -63094.773438 42063.125000
-24285.146484 -42063.183594 28042.082031
-12142.573242 -21031.591797 14021.041016
-18037.826172 -21496.777344 0.000000
-36075.652344 -42993.554688 0.000000
-54113.480469 -64490.332031 0.000000
-72151.304688 -85987.109375 0.000000
-90189.132812 -107483.882812 0.000000
-88818.953125 -105850.960938 24364.556641
-78106.101562 -93083.796875 70154.898438
-62484.882812 -74467.039062 56123.917969
-46863.664062 -55850.281250 42092.941406
-31242.441406 -37233.519531 28061.958984
-15621.220703 -18616.759766 14030.979492
-21496.824219 -18037.914062 0.000000
-42993.648438 -36075.828125 0.000000
-64490.472656 -54113.746094 0.000000
-85987.296875 -72151.656250 0.000000
-107484.117188 -90189.570312 0.000000
-105851.187500 -88819.382812 24364.636719
-93084.000000 -78106.476562 70155.125000
-74467.203125 -62485.183594 56124.101562
-55850.402344 -46863.886719 42093.078125
-37233.601562 -31242.591797 28062.050781
-18616.800781 -15621.295898 14031.025391
-24302.417969 -14030.989258 0.000000
-48604.835938 -28061.978516 0.000000
-72907.257812 -42092.968750 0.000000
-97209.671875 -56123.957031 0.000000
-121512.085938 -70154.945312 0.000000
-119666.039062 -69089.132812 24364.580078
-105232.578125 -60755.980469 70154.960938
-84186.062500 -48604.785156 56123.968750
-63139.550781 -36453.589844 42092.976562
-42093.031250 -24302.392578 28061.984375
-21046.515625 -12151.196289 14030.992188
-26388.412109 -9604.586914 0.000000
-52776.824219 -19209.173828 0.000000
-79165.242188 -28813.761719 0.000000
-105553.648438 -38418.347656 0.000000
-131942.062500 -48022.933594 0.000000
-129937.562500 -47293.355469 24381.904297
-114265.210938 -41589.089844 70204.843750
-91412.171875 -33271.273438 56163.875000
-68559.132812 -24953.455078 42122.906250
-45706.085938 -16635.636719 28081.937500
-22853.042969 -8317.818359 14040.968750
-27655.406250 -4876.364746 0.000000
-55310.812500 -9752.729492 0.000000
-82966.218750 -14629.094727 0.000000
-110621.625000 -19505.458984 0.000000
-138277.031250 -24381.824219 0.000000
-136176.296875 -24011.408203 24381.966797
-119751.453125 -21115.285156 70205.023438
-95801.164062 -16892.228516 56164.019531
-71850.875000 -12669.171875 42123.015625
-47900.582031 -8446.114258 28082.009766
-23950.291016 -4223.057129 14041.004883
-28082.000000 0.035596 0.000000
-56164.000000 0.071193 0.000000
-84246.000000 0.106789 0.000000
-112328.000000 0.142386 0.000000
-140410.000000 0.177982 0.000000
-138276.859375 0.175278 24381.941406
-121598.656250 0.154137 70204.953125
-97278.929688 0.123310 56163.964844
-72959.195312 0.092482 42122.972656
-48639.464844 0.061655 28081.982422
-24319.732422 0.030827 14040.991211
-27655.394531 4876.435059 0.000000
-55310.789062 9752.870117 0.000000
-82966.187500 14629.305664 0.000000
-110621.578125 19505.740234 0.000000
-138276.968750 24382.175781 0.000000
-136176.234375 24011.755859 24381.966797
-119751.398438 21115.589844 70205.023438
-95801.117188 16892.472656 56164.019531
-71850.843750 12669.354492 42123.015625
-47900.558594 8446.236328 28082.009766
-23950.279297 4223.118164 14041.004883
-26388.388672 9604.654297 0.000000
-52776.777344 19209.308594 0.000000
-79165.164062 28813.962891 0.000000
-105553.554688 38418.617188 0.000000
-131941.937500 48023.269531 0.000000
-129937.437500 47293.687500 24381.904297
-114265.101562 41589.382812 70204.843750
-91412.085938 33271.507812 56163.875000
-68559.062500 24953.630859 42122.906250
-45706.042969 16635.753906 28081.937500
-22853.021484 8317.876953 14040.968750
-24302.382812 14031.051758 0.000000
-48604.765625 28062.103516 0.000000
-72907.148438 42093.156250 0.000000
-97209.531250 56124.207031 0.000000
-121511.914062 70155.257812 0.000000
-119665.875000 69089.437500 24364.582031
-105232.429688 60756.250000 70154.968750
-84185.945312 48605.000000 56123.976562
-63139.460938 36453.750000 42092.984375
-42092.972656 24302.500000 28061.988281
-21046.486328 12151.250000 14030.994141
-21496.777344 18037.966797 0.000000
-42993.554688 36075.933594 0.000000
-64490.332031 54113.902344 0.000000
-85987.109375 72151.867188 0.000000
-107483.882812 90189.835938 0.000000
-105850.960938 88819.648438 24364.634766
-93083.796875 78106.710938 70155.125000
-74467.039062 62485.371094 56124.101562
-55850.281250 46864.027344 42093.078125
-37233.519531 31242.685547 28062.050781
-18616.759766 15621.342773 14031.025391
-18037.773438 21496.824219 0.000000
-36075.546875 42993.648438 0.000000
-54113.324219 64490.472656 0.000000
-72151.093750 85987.296875 0.000000
-90188.867188 107484.117188 0.000000
-88818.695312 105851.187500 24364.558594
-78105.867188 93084.000000 70154.898438
-62484.695312 74467.203125 56123.917969
-46863.523438 55850.402344 42092.941406
-31242.347656 37233.601562 28061.958984
-15621.173828 18616.800781 14030.979492
-14020.968750 24285.216797 0.000000
-28041.937500 48570.433594 0.000000
-42062.906250 72855.656250 0.000000
-56083.875000 97140.867188 0.000000
-70104.843750 121426.085938 0.000000
-69039.789062 119581.351562 24347.296875
-60712.589844 105158.101562 70105.203125
-48570.074219 84126.484375 56084.164062
-36427.554688 63094.863281 42063.125000
-24285.037109 42063.242188 28042.082031
-12142.518555 21031.621094 14021.041016
-9590.766602 26351.013672 0.000000
-19181.533203 52702.027344 0.000000
-28772.300781 79053.039062 0.000000
-38363.066406 105404.054688 0.000000
-47953.832031 131755.062500 0.000000
-47225.304688 129753.406250 24347.287109
-41529.246094 114103.257812 70105.171875
-33223.398438 91282.609375 56084.136719
-24917.548828 68461.960938 42063.105469
-16611.699219 45641.304688 28042.068359
-8305.849609 22820.652344 14021.034180
-4865.765137 27596.406250 0.000000
-9731.530273 55192.812500 0.000000
-14597.294922 82789.218750 0.000000
-19463.060547 110385.625000 0.000000
-24328.824219 137982.031250 0.000000
-23959.214844 135885.765625 24329.919922
-21069.384766 119495.976562 70055.164062
-16855.507812 95596.781250 56044.132812
-12641.631836 71697.585938 42033.101562
-8427.753906 47798.390625 28022.066406
-4213.876953 23899.195312 14011.033203
0.035520 28022.000000 0.000000
0.071041 56044.000000 0.000000
0.106561 84066.000000 0.000000
0.142082 112088.000000 0.000000
0.177602 140110.000000 0.000000
0.174904 137981.406250 24329.845703
0.153808 121338.851562 70054.953125
0.123046 97071.085938 56043.964844
0.092285 72803.312500 42032.972656
0.061523 48535.542969 28021.982422
0.030762 24267.771484 14010.991211
0.035520 28022.000000 0.000000
0.071041 56044.000000 0.000000
0.106561 84066.000000 0.000000
0.142082 112088.000000 0.000000
0.177602 140110.000000 0.000000
0.174904 137981.406250 24329.845703
0.153808 121338.851562 70054.953125
0.123046 97071.085938 56043.964844
0.092285 72803.312500 42032.972656
0.061523 48535.542969 28021.982422
0.030762 24267.771484 14010.991211
3 17 16 6
3 5 6 16
3 16 15 5
3 4 5 15
3 15 14 4
3 3 4 14
3 14 13 3
3 2 3 13
3 13 1 2
3 17 6 7
3 18 17 7
3 18 7 8
3 19 18 8
3 19 8 20
3 9 20 8
3 20 9 21
3 10 21 9
3 21 10 22
3 11 22 10
3 22 11 23
3 12 23 11
3 23 12 0
3 28 27 17
3 16 17 27
3 27 26 16
3 15 16 26
3 26 25 15
3 14 15 25
3 25 24 14
3 13 14 24
3 24 1 13
3 28 17 18
3 29 28 18
3 29 18 19
3 30 29 19
3 30 19 31
3 20 31 19
3 31 20 32
3 21 32 20
3 32 21 33
3 22 33 21
3 33 22 34
3 23 34 22
3 34 23 0
3 39 38 28
3 27 28 38
3 38 37 27
3 26 27 37
3 37 36 26
3 25 26 36
3 36 35 25
3 24 25 35
3 35 1 24
3 39 28 29
3 40 39 29
3 40 29 30
3 41 40 30
3 41 30 42
3 31 42 30
3 42 31 43
3 32 43 31
3 43 32 44
3 33 44 32
3 44 33 45
3 34 45 33
3 45 34 0
3 50 49 39
3 38 39 49
3 49 48 38
3 37 38 48
3 48 47 37
3 36 37 47
3 47 46 36
3 35 36 46
3 46 1 35
3 50 39 40
3 51 50 40
3 51 40 41
3 52 51 41
3 52 41 53
3 42 53 41
3 53 42 54
3 43 54 42
3 54 43 55
3 44 55 43
3 55 44 56
3 45 56 44
3 56 45 0
3 61 60 50
3 49 50 60
3 60 59 49
3 48 49 59
3 59 58 48
3 47 48 58
3 58 57 47
3 46 47 57
3 57 1 46
3 61 50 51
3 62 61 51
3 62 51 52
3 63 62 52
3 63 52 64
3 53 64 52
3 64 53 65
3 54 65 53
3 65 54 66
3 55 66 54
3 66 55 67
3 56 67 55
3 67 56 0
3 72 71 61
3 60 61 71
3 71 70 60
3 59 60 70
3 70 69 59
3 58 59 69
3 69 68 58
3 57 58 68
3 68 1 57
3 72 61 62
3 73 72 62
3 73 62 63
3 74 73 63
3 74 63 75
3 64 75 63
3 75 64 76
3 65 76 64
3 76 65 77
3 66 77 65
3 77 66 78
3 67 78 66
3 78 67 0
3 83 82 72
3 71 72 82
3 82 81 71
3 70 71 81
3 81 80 70
3 69 70 80
3 80 79 69
3 68 69 79
3 79 1 68
3 83 72 73
3 84 83 73
3 84 73 74
3 85 84 74
3 85 74 86
3 75 86 74
3 86 75 87
3 76 87 75
3 87 76 88
3 77 88 76
3 88 77 89
3 78 89 77
3 89 78 0
3 94 93 83
3 82 83 93
3 93 92 82
3 81 82 92
3 92 91 81
3 80 81 91
3 91 90 80
3 79 80 90
3 90 1 79
3 94 83 84
3 95 94 84
3 95 84 85
3 96 95 85
3 96 85 97
3 86 97 85
3 97 86 98
3 87 98 86
3 98 87 99
3 88 99 87
3 99 88 100
3 89 100 88
3 100 89 0
3 105 104 94
3 93 94 104
3 104 103 93
3 92 93 103
3 103 102 92
3 91 92 102
3 102 101 91
3 90 91 101
3 101 1 90
3 105 94 95
3 106 105 95
3 106 95 96
3 107 106 96
3 107 96 108
3 97 108 96
3 108 97 109
3 98 109 97
3 109 98 110
3 99 110 98
3 110 99 111
3 100 111 99
3 111 100 0
3 116 115 105
3 104 105 115
3 115 114 104
3 103 104 114
3 114 113 103
3 102 103 113
3 113 112 102
3 101 102 112
3 112 1 101
3 116 105 106
3 117 116 106
3 117 106 107
3 118 117 107
3 118 107 119
3 108 119 107
3 119 108 120
3 109 120 108
3 120 109 121
3 110 121 109
3 121 110 122
3 111 122 110
3 122 111 0
3 127 126 116
3 115 116 126
3 126 125 115
3 114 115 125
3 125 124 114
3 113 114 124
3 124 123 113
3 112 113 123
3 123 1 112
3 127 116 117
3 128 127 117
3 128 117 118
3 129 128 118
3 129 118 130
3 119 130 118
3 130 119 131
3 120 131 119
3 131 120 132
3 121 132 120
3 132 121 133
3 122 133 121
3 133 122 0
3 138 137 127
3 126 127 137
3 137 136 126
3 125 126 136
3 136 135 125
3 124 125 135
3 135 134 124
3 123 124 134
3 134 1 123
3 138 127 128
3 139 138 128
3 139 128 129
3 140 139 129
3 140 129 141
3 130 141 129
3 141 130 142
3 131 142 130
3 142 131 143
3 132 143 131
3 143 132 144
3 133 144 132
3 144 133 0
3 149 148 138
3 137 138 148
3 148 147 137
3 136 137 147
3 147 146 136
3 135 136 146
3 146 145 135
3 134 135 145
3 145 1 134
3 149 138 139
3 150 149 139
3 150 139 140
3 151 150 140
3 151 140 152
3 141 152 140
3 152 141 153
3 142 153 141
3 153 142 154
3 143 154 142
3 154 143 155
3 144 155 143
3 155 144 0
3 160 159 149
3 148 149 159
3 159 158 148
3 147 148 158
3 158 157 147
3 146 147 157
3 157 156 146
3 145 146 156
3 156 1 145
3 160 149 150
3 161 160 150
3 161 150 151
3 162 161 151
3 162 151 163
3 152 163 151
3 163 152 164
3 153 164 152
3 164 153 165
3 154 165 153
3 165 154 166
3 155 166 154
3 166 155 0
3 171 170 160
3 159 160 170
3 170 169 159
3 158 159 169
3 169 168 158
3 157 158 168
3 168 167 157
3 156 157 167
3 167 1 156
3 171 160 161
3 172 171 161
3 172 161 162
3 173 172 162
3 173 162 174
3 163 174 162
3 174 163 175
3 164 175 163
3 175 164 176
3 165 176 164
3 176 165 177
3 166 177 165
3 177 166 0
3 182 181 171
3 170 171 181
3 181 180 170
3 169 170 180
3 180 179 169
3 168 169 179
3 179 178 168
3 167 168 178
3 178 1 167
3 182 171 172
3 183 182 172
3 183 172 173
3 184 183 173
3 184 173 185
3 174 185 173
3 185 174 186
3 175 186 174
3 186 175 187
3 176 187 175
3 187 176 188
3 177 188 176
3 188 177 0
3 193 192 182
3 181 182 192
3 192 191 181
3 180 181 191
3 191 190 180
3 179 180 190
3 190 189 179
3 178 179 189
3 189 1 178
3 193 182 183
3 194 193 183
3 194 183 184
3 195 194 184
3 195 184 196
3 185 196 184
3 196 185 197
3 186 197 185
3 197 186 198
3 187 198 186
3 198 187 199
3 188 199 187
3 199 188 0
3 204 203 193
3 192 193 203
3 203 202 192
3 191 192 202
3 202 201 191
3 190 191 201
3 201 200 190
3 189 190 200
3 200 1 189
3 204 193 194
3 205 204 194
3 205 194 195
3 206 205 195
3 206 195 207
3 196 207 195
3 207 196 208
3 197 208 196
3 208 197 209
3 198 209 197
3 209 198 210
3 199 210 198
3 210 199 0
3 215 214 204
3 203 204 214
3 214 213 203
3 202 203 213
3 213 212 202
3 201 202 212
3 212 211 201
3 200 201 211
3 211 1 200
3 215 204 205
3 216 215 205
3 216 205 206
3 217 216 206
3 217 206 218
3 207 218 206
3 218 207 219
3 208 219 207
3 219 208 220
3 209 220 208
3 220 209 221
3 210 221 209
3 221 210 0
3 226 225 215
3 214 215 225
3 225 224 214
3 213 214 224
3 224 223 213
3 212 213 223
3 223 222 212
3 211 212 222
3 222 1 211
3 226 215 216
3 227 226 216
3 227 216 217
3 228 227 217
3 228 217 229
3 218 229 217
3 229 218 230
3 219 230 218
3 230 219 231
3 220 231 219
3 231 220 232
3 221 232 220
3 232 221 0
3 237 236 226
3 225 226 236
3 236 235 225
3 224 225 235
3 235 234 224
3 223 224 234
3 234 233 223
3 222 223 233
3 233 1 222
3 237 226 227
3 238 237 227
3 238 227 228
3 239 238 228
3 239 228 240
3 229 240 228
3 240 229 241
3 230 241 229
3 241 230 242
3 231 242 230
3 242 231 243
3 232 243 231
3 243 232 0
3 248 247 237
3 236 237 247
3 247 246 236
3 235 236 246
3 246 245 235
3 234 235 245
3 245 244 234
3 233 234 244
3 244 1 233
3 248 237 238
3 249 248 238
3 249 238 239
3 250 249 239
3 250 239 251
3 240 251 239
3 251 240 252
3 241 252 240
3 252 241 253
3 242 253 241
3 253 242 254
3 243 254 242
3 254 243 0
3 259 258 248
3 247 248 258
3 258 257 247
3 246 247 257
3 257 256 246
3 245 246 256
3 256 255 245
3 244 245 255
3 255 1 244
3 259 248 249
3 260 259 249
3 260 249 250
3 261 260 250
3 261 250 262
3 251 262 250
3 262 251 263
3 252 263 251
3 263 252 264
3 253 264 252
3 264 253 265
3 254 265 253
3 265 254 0
3 270 269 259
3 258 259 269
3 269 268 258
3 257 258 268
3 268 267 257
3 256 257 267
3 267 266 256
3 255 256 266
3 266 1 255
3 270 259 260
3 271 270 260
3 271 260 261
3 272 271 261
3 272 261 273
3 262 273 261
3 273 262 274
3 263 274 262
3 274 263 275
3 264 275 263
3 275 264 276
3 265 276 264
3 276 265 0
3 281 280 270
3 269 270 280
3 280 279 269
3 268 269 279
3 279 278 268
3 267 268 278
3 278 277 267
3 266 267 277
3 277 1 266
3 281 270 271
3 282 281 271
3 282 271 272
3 283 282 272
3 283 272 284
3 273 284 272
3 284 273 285
3 274 285 273
3 285 274 286
3 275 286 274
3 286 275 287
3 276 287 275
3 287 276 0
3 292 291 281
3 280 281 291
3 291 290 280
3 279 280 290
3 290 289 279
3 278 279 289
3 289 288 278
3 277 278 288
3 288 1 277
3 292 281 282
3 293 292 282
3 293 282 283
3 294 293 283
3 294 283 295
3 284 295 283
3 295 284 296
3 285 296 284
3 296 285 297
3 286 297 285
3 297 286 298
3 287 298 286
3 298 287 0
3 303 302 292
3 291 292 302
3 302 301 291
3 290 291 301
3 301 300 290
3 289 290 300
3 300 299 289
3 288 289 299
3 299 1 288
3 303 292 293
3 304 303 293
3 304 293 294
3 305 304 294
3 305 294 306
3 295 306 294
3 306 295 307
3 296 307 295
3 307 296 308
3 297 308 296
3 308 297 309
3 298 309 297
3 309 298 0
3 314 313 303
3 302 303 313
3 313 312 302
3 301 302 312
3 312 311 301
3 300 301 311
3 311 310 300
3 299 300 310
3 310 1 299
3 314 303 304
3 315 314 304
3 315 304 305
3 316 315 305
3 316 305 317
3 306 317 305
3 317 306 318
3 307 318 306
3 318 307 319
3 308 319 307
3 319 308 320
3 309 320 308
3 320 309 0
3 325 324 314
3 313 314 324
3 324 323 313
3 312 313 323
3 323 322 312
3 311 312 322
3 322 321 311
3 310 311 321
3 321 1 310
3 325 314 315
3 326 325 315
3 326 315 316
3 327 326 316
3 327 316 328
3 317 328 316
3 328 317 329
3 318 329 317
3 329 318 330
3 319 330 318
3 330 319 331
3 320 331 319
3 331 320 0
3 336 335 325
3 324 325 335
3 335 334 324
3 323 324 334
3 334 333 323
3 322 323 333
3 333 332 322
3 321 322 332
3 332 1 321
3 336 325 326
3 337 336 326
3 337 326 327
3 338 337 327
3 338 327 339
3 328 339 327
3 339 328 340
3 329 340 328
3 340 329 341
3 330 341 329
3 341 330 342
3 331 342 330
3 342 331 0
3 347 346 336
3 335 336 346
3 346 345 335
3 334 335 345
3 345 344 334
3 333 334 344
3 344 343 333
3 332 333 343
3 343 1 332
3 347 336 337
3 348 347 337
3 348 337 338
3 349 348 338
3 349 338 350
3 339 350 338
3 350 339 351
3 340 351 339
3 351 340 352
3 341 352 340
3 352 341 353
3 342 353 341
3 353 342 0
3 358 357 347
3 346 347 357
3 357 356 346
3 345 346 356
3 356 355 345
3 344 345 355
3 355 354 344
3 343 344 354
3 354 1 343
3 358 347 348
3 359 358 348
3 359 348 349
3 360 359 349
3 360 349 361
3 350 361 349
3 361 350 362
3 351 362 350
3 362 351 363
3 352 363 351
3 363 352 364
3 353 364 352
3 364 353 0
3 369 368 358
3 357 358 368
3 368 367 357
3 356 357 367
3 367 366 356
3 355 356 366
3 366 365 355
3 354 355 365
3 365 1 354
3 369 358 359
3 370 369 359
3 370 359 360
3 371 370 360
3 371 360 372
3 361 372 360
3 372 361 373
3 362 373 361
3 373 362 374
3 363 374 362
3 374 363 375
3 364 375 363
3 375 364 0
3 380 379 369
3 368 369 379
3 379 378 368
3 367 368 378
3 378 377 367
3 366 367 377
3 377 376 366
3 365 366 376
3 376 1 365
3 380 369 370
3 381 380 370
3 381 370 371
3 382 381 371
3 382 371 383
3 372 383 371
3 383 372 384
3 373 384 372
3 384 373 385
3 374 385 373
3 385 374 386
3 375 386 374
3 386 375 0
3 391 390 380
3 379 380 390
3 390 389 379
3 378 379 389
3 389 388 378
3 377 378 388
3 388 387 377
3 376 377 387
3 387 1 376
3 391 380 381
3 392 391 381
3 392 381 382
3 393 392 382
3 393 382 394
3 383 394 382
3 394 383 395
3 384 395 383
3 395 384 396
3 385 396 384
3 396 385 397
3 386 397 385
3 397 386 0
3 402 401 391
3 390 391 401
3 401 400 390
3 389 390 400
3 400 399 389
3 388 389 399
3 399 398 388
3 387 388 398
3 398 1 387
3 402 391 392
3 403 402 392
3 403 392 393
3 404 403 393
3 404 393 405
3 394 405 393
3 405 394 406
3 395 406 394
3 406 395 407
3 396 407 395
3 407 396 408
3 397 408 396
3 408 397 0
3 413 412 402
3 401 402 412
3 412 411 401
3 400 401 411
3 411 410 400
3 399 400 410
3 410 409 399
3 398 399 409
3 409 1 398
3 413 402 403
3 414 413 403
3 414 403 404
3 415 414 404
3 415 404 416
3 405 416 404
3 416 405 417
3 406 417 405
3 417 406 418
3 407 418 406
3 418 407 419
3 408 419 407
3 419 408 0
