OFF
496 962 0
0.000000 0.000000 1.000000
0.000000 0.000000 0.000000
0.035520 28022.000000 0.000000
0.071041 56044.000000 0.000000
0.106561 84066.000000 0.000000
0.142082 112088.000000 0.000000
0.177602 140110.000000 0.000000
0.174904 137981.406250 24329.845703
0.166891 131660.328125 47920.441406
0.153808 121338.820312 70055.000000
0.125584 99072.796875 99072.671875
0.100467 79258.242188 79258.140625
0.075350 59443.679688 59443.605469
0.050234 39629.121094 39629.070312
0.025117 19814.560547 19814.535156
4865.835449 27596.394531 0.000000
9731.670898 55192.789062 0.000000
14597.505859 82789.187500 0.000000
19463.341797 110385.578125 0.000000
24329.175781 137981.968750 0.000000
23959.560547 135885.703125 24329.919922
22861.947266 129660.640625 47920.589844
21069.683594 119495.890625 70055.210938
17203.335938 97568.046875 99072.968750
13762.668945 78054.437500 79258.375000
10322.001953 58540.832031 59443.785156
6881.334473 39027.218750 39629.187500
3440.667236 19513.609375 19814.593750
9590.833984 26350.988281 0.000000
19181.667969 52701.976562 0.000000
28772.501953 79052.968750 0.000000
38363.335938 105403.953125 0.000000
47954.167969 131754.937500 0.000000
47225.636719 129753.281250 24347.287109
45062.175781 123809.140625 47954.792969
41529.527344 114103.117188 70105.218750
33908.738281 93164.867188 99143.687500
27126.990234 74531.898438 79314.953125
20345.244141 55898.921875 59486.214844
13563.495117 37265.949219 39657.476562
6781.747559 18632.974609 19828.738281
14021.031250 24285.183594 0.000000
28042.062500 48570.367188 0.000000
42063.093750 72855.554688 0.000000
56084.125000 97140.734375 0.000000
70105.156250 121425.914062 0.000000
69040.101562 119581.179688 24347.298828
65877.296875 114103.031250 47954.816406
60712.843750 105157.921875 70105.250000
49571.863281 85861.140625 99143.734375
39657.492188 68688.914062 79314.992188
29743.119141 51516.687500 59486.242188
19828.746094 34344.457031 39657.496094
9914.373047 17172.228516 19828.748047
18037.826172 21496.777344 0.000000
36075.652344 42993.554688 0.000000
54113.480469 64490.332031 0.000000
72151.304688 85987.109375 0.000000
90189.132812 107483.882812 0.000000
88818.953125 105850.960938 24364.556641
84750.062500 101001.812500 47988.808594
78106.078125 93083.773438 70154.945312
63773.390625 76002.632812 99214.007812
51018.714844 60802.105469 79371.210938
38264.035156 45601.582031 59528.406250
25509.357422 30401.052734 39685.605469
12754.678711 15200.526367 19842.802734
21496.824219 18037.914062 0.000000
42993.648438 36075.828125 0.000000
64490.472656 54113.746094 0.000000
85987.296875 72151.656250 0.000000
107484.117188 90189.570312 0.000000
105851.187500 88819.382812 24364.636719
101002.031250 84750.476562 47988.964844
93083.976562 78106.460938 70155.171875
76002.796875 63773.699219 99214.335938
60802.238281 51018.960938 79371.468750
45601.679688 38264.222656 59528.605469
30401.119141 25509.480469 39685.734375
15200.559570 12754.740234 19842.867188
24302.417969 14030.989258 0.000000
48604.835938 28061.978516 0.000000
72907.257812 42092.968750 0.000000
97209.671875 56123.957031 0.000000
121512.085938 70154.945312 0.000000
119666.039062 69089.132812 24364.580078
114184.007812 65924.085938 47988.855469
105232.554688 60755.964844 70155.015625
85922.078125 49607.070312 99214.109375
68737.664062 39685.656250 79371.289062
51553.250000 29764.244141 59528.468750
34368.832031 19842.828125 39685.644531
17184.416016 9921.414062 19842.822266
26388.412109 9604.586914 0.000000
52776.824219 19209.173828 0.000000
79165.242188 28813.761719 0.000000
105553.648438 38418.347656 0.000000
131942.062500 48022.933594 0.000000
129937.562500 47293.355469 24381.904297
123984.984375 45126.796875 48022.976562
114265.179688 41589.078125 70204.898438
93297.187500 33957.363281 99284.656250
74637.750000 27165.890625 79427.726562
55978.316406 20374.417969 59570.796875
37318.875000 13582.945312 39713.863281
18659.437500 6791.472656 19856.931641
27655.406250 4876.364746 0.000000
55310.812500 9752.729492 0.000000
82966.218750 14629.094727 0.000000
110621.625000 19505.458984 0.000000
138277.031250 24381.824219 0.000000
136176.296875 24011.408203 24381.966797
129937.906250 22911.419922 48023.101562
119751.421875 21115.279297 70205.078125
97776.687500 17240.564453 99284.906250
78221.351562 13792.452148 79427.929688
58666.015625 10344.338867 59570.945312
39110.675781 6896.226074 39713.964844
19555.337891 3448.113037 19856.982422
28082.000000 -0.035596 0.000000
56164.000000 -0.071193 0.000000
84246.000000 -0.106789 0.000000
112328.000000 -0.142386 0.000000
140410.000000 -0.177982 0.000000
138276.859375 -0.175278 24381.941406
131942.234375 -0.167249 48023.046875
121598.625000 -0.154137 70205.000000
99284.929688 -0.125853 99284.796875
79427.945312 -0.100682 79427.835938
59570.960938 -0.075512 59570.878906
39713.972656 -0.050341 39713.917969
19856.986328 -0.025171 19856.958984
27655.394531 -4876.435059 0.000000
55310.789062 -9752.870117 0.000000
82966.187500 -14629.305664 0.000000
110621.578125 -19505.740234 0.000000
138276.968750 -24382.175781 0.000000
136176.234375 -24011.755859 24381.966797
129937.843750 -22911.750000 48023.101562
119751.367188 -21115.583984 70205.078125
97776.648438 -17240.812500 99284.906250
78221.320312 -13792.650391 79427.929688
58665.992188 -10344.488281 59570.945312
39110.660156 -6896.325195 39713.964844
19555.330078 -3448.162598 19856.982422
26388.388672 -9604.654297 0.000000
52776.777344 -19209.308594 0.000000
79165.164062 -28813.962891 0.000000
105553.554688 -38418.617188 0.000000
131941.937500 -48023.269531 0.000000
129937.437500 -47293.687500 24381.904297
123984.867188 -45127.113281 48022.976562
114265.070312 -41589.371094 70204.898438
93297.101562 -33957.601562 99284.648438
74637.679688 -27166.082031 79427.718750
55978.261719 -20374.562500 59570.792969
37318.839844 -13583.041016 39713.859375
18659.419922 -6791.520508 19856.929688
24302.382812 -14031.051758 0.000000
48604.765625 -28062.103516 0.000000
72907.148438 -42093.156250 0.000000
97209.531250 -56124.207031 0.000000
121511.914062 -70155.257812 0.000000
119665.875000 -69089.437500 24364.582031
114183.851562 -65924.375000 47988.859375
105232.406250 -60756.234375 70155.015625
85921.953125 -49607.292969 99214.109375
68737.562500 -39685.835938 79371.289062
51553.175781 -29764.376953 59528.468750
34368.781250 -19842.917969 39685.644531
17184.390625 -9921.458984 19842.822266
21496.777344 -18037.966797 0.000000
42993.554688 -36075.933594 0.000000
64490.332031 -54113.902344 0.000000
85987.109375 -72151.867188 0.000000
107483.882812 -90189.835938 0.000000
105850.960938 -88819.648438 24364.634766
101001.812500 -84750.726562 47988.960938
93083.773438 -78106.687500 70155.171875
76002.632812 -63773.886719 99214.328125
60802.105469 -51019.109375 79371.460938
45601.582031 -38264.332031 59528.597656
30401.052734 -25509.554688 39685.730469
15200.526367 -12754.777344 19842.865234
18037.773438 -21496.824219 0.000000
36075.546875 -42993.648438 0.000000
54113.324219 -64490.472656 0.000000
72151.093750 -85987.296875 0.000000
90188.867188 -107484.117188 0.000000
88818.695312 -105851.187500 24364.558594
84749.812500 -101002.031250 47988.812500
78105.851562 -93083.976562 70154.945312
63773.203125 -76002.796875 99214.015625
51018.562500 -60802.238281 79371.210938
38263.921875 -45601.679688 59528.410156
25509.281250 -30401.119141 39685.605469
12754.640625 -15200.559570 19842.802734
14020.968750 -24285.216797 0.000000
28041.937500 -48570.433594 0.000000
42062.906250 -72855.656250 0.000000
56083.875000 -97140.867188 0.000000
70104.843750 -121426.085938 0.000000
69039.789062 -119581.351562 24347.296875
65877.007812 -114103.195312 47954.812500
60712.574219 -105158.070312 70105.250000
49571.644531 -85861.265625 99143.726562
39657.316406 -68689.015625 79314.984375
29742.988281 -51516.761719 59486.238281
19828.658203 -34344.507812 39657.492188
9914.329102 -17172.253906 19828.746094
9590.766602 -26351.013672 0.000000
19181.533203 -52702.027344 0.000000
28772.300781 -79053.039062 0.000000
38363.066406 -105404.054688 0.000000
47953.832031 -131755.062500 0.000000
47225.304688 -129753.406250 24347.287109
45061.863281 -123809.257812 47954.792969
41529.234375 -114103.226562 70105.218750
33908.503906 -93164.960938 99143.687500
27126.802734 -74531.968750 79314.953125
20345.103516 -55898.980469 59486.214844
13563.401367 -37265.984375 39657.476562
6781.700684 -18632.992188 19828.738281
4865.765137 -27596.406250 0.000000
9731.530273 -55192.812500 0.000000
14597.294922 -82789.218750 0.000000
19463.060547 -110385.625000 0.000000
24328.824219 -137982.031250 0.000000
23959.214844 -135885.765625 24329.919922
22861.617188 -129660.695312 47920.589844
21069.378906 -119495.945312 70055.218750
17203.087891 -97568.093750 99072.968750
13762.470703 -78054.476562 79258.375000
10321.853516 -58540.859375 59443.785156
6881.235352 -39027.238281 39629.187500
3440.617676 -19513.619141 19814.593750
-0.035520 -28022.000000 0.000000
-0.071041 -56044.000000 0.000000
-0.106561 -84066.000000 0.000000
-0.142082 -112088.000000 0.000000
-0.177602 -140110.000000 0.000000
-0.174904 -137981.406250 24329.845703
-0.166891 -131660.328125 47920.441406
-0.153808 -121338.820312 70055.000000
-0.125584 -99072.796875 99072.671875
-0.100467 -79258.242188 79258.140625
-0.075350 -59443.679688 59443.605469
-0.050234 -39629.121094 39629.070312
-0.025117 -19814.560547 19814.535156
-4865.835449 -27596.394531 0.000000
-9731.670898 -55192.789062 0.000000
-14597.505859 -82789.187500 0.000000
-19463.341797 -110385.578125 0.000000
-24329.175781 -137981.968750 0.000000
-23959.560547 -135885.703125 24329.919922
-22861.947266 -129660.640625 47920.589844
-21069.683594 -119495.890625 70055.210938
-17203.335938 -97568.046875 99072.968750
-13762.668945 -78054.437500 79258.375000
-10322.001953 -58540.832031 59443.785156
-6881.334473 -39027.218750 39629.187500
-3440.667236 -19513.609375 19814.593750
-9590.833984 -26350.988281 0.000000
-19181.667969 -52701.976562 0.000000
-28772.501953 -79052.968750 0.000000
-38363.335938 -105403.953125 0.000000
-47954.167969 -131754.937500 0.000000
-47225.636719 -129753.281250 24347.287109
-45062.175781 -123809.140625 47954.792969
-41529.527344 -114103.117188 70105.218750
-33908.738281 -93164.867188 99143.687500
-27126.990234 -74531.898438 79314.953125
-20345.244141 -55898.921875 59486.214844
-13563.495117 -37265.949219 39657.476562
-6781.747559 -18632.974609 19828.738281
-14021.031250 -24285.183594 0.000000
-28042.062500 -48570.367188 0.000000
-42063.093750 -72855.554688 0.000000
-56084.125000 -97140.734375 0.000000
-70105.156250 -121425.914062 0.000000
-69040.101562 -119581.179688 24347.298828
-65877.296875 -114103.031250 47954.816406
-60712.843750 -105157.921875 70105.250000
-49571.863281 -85861.140625 99143.734375
-39657.492188 -68688.914062 79314.992188
-29743.119141 -51516.687500 59486.242188
-19828.746094 -34344.457031 39657.496094
-9914.373047 -17172.228516 19828.748047
-18037.826172 -21496.777344 0.000000
-36075.652344 -42993.554688 0.000000
-54113.480469 -64490.332031 0.000000
-72151.304688 -85987.109375 0.000000
-90189.132812 -107483.882812 0.000000
-88818.953125 -105850.960938 24364.556641
-84750.062500 -101001.812500 47988.808594
-78106.078125 -93083.773438 70154.945312
-63773.390625 -76002.632812 99214.007812
-51018.714844 -60802.105469 79371.210938
-38264.035156 -45601.582031 59528.406250
-25509.357422 -30401.052734 39685.605469
-12754.678711 -15200.526367 19842.802734
-21496.824219 -18037.914062 0.000000
-42993.648438 -36075.828125 0.000000
-64490.472656 -54113.746094 0.000000
-85987.296875 -72151.656250 0.000000
-107484.117188 -90189.570312 0.000000
-105851.187500 -88819.382812 24364.636719
-101002.031250 -84750.476562 47988.964844
-93083.976562 -78106.460938 70155.171875
-76002.796875 -63773.699219 99214.335938
-60802.238281 -51018.960938 79371.468750
-45601.679688 -38264.222656 59528.605469
-30401.119141 -25509.480469 39685.734375
-15200.559570 -12754.740234 19842.867188
-24302.417969 -14030.989258 0.000000
-48604.835938 -28061.978516 0.000000
-72907.257812 -42092.968750 0.000000
-97209.671875 -56123.957031 0.000000
-121512.085938 -70154.945312 0.000000
-119666.039062 -69089.132812 24364.580078
-114184.007812 -65924.085938 47988.855469
-105232.554688 -60755.964844 70155.015625
-85922.078125 -49607.070312 99214.109375
-68737.664062 -39685.656250 79371.289062
-51553.250000 -29764.244141 59528.468750
-34368.832031 -19842.828125 39685.644531
-17184.416016 -9921.414062 19842.822266
-26388.412109 -9604.586914 0.000000
-52776.824219 -19209.173828 0.000000
-79165.242188 -28813.761719 0.000000
-105553.648438 -38418.347656 0.000000
-131942.062500 -48022.933594 0.000000
-129937.562500 -47293.355469 24381.904297
-123984.984375 -45126.796875 48022.976562
-114265.179688 -41589.078125 70204.898438
-93297.187500 -33957.363281 99284.656250
-74637.750000 -27165.890625 79427.726562
-55978.316406 -20374.417969 59570.796875
-37318.875000 -13582.945312 39713.863281
-18659.437500 -6791.472656 19856.931641
-27655.406250 -4876.364746 0.000000
-55310.812500 -9752.729492 0.000000
-82966.218750 -14629.094727 0.000000
-110621.625000 -19505.458984 0.000000
-138277.031250 -24381.824219 0.000000
-136176.296875 -24011.408203 24381.966797
-129937.906250 -22911.419922 48023.101562
-119751.421875 -21115.279297 70205.078125
-97776.687500 -17240.564453 99284.906250
-78221.351562 -13792.452148 79427.929688
-58666.015625 -10344.338867 59570.945312
-39110.675781 -6896.226074 39713.964844
-19555.337891 -3448.113037 19856.982422
-28082.000000 0.035596 0.000000
-56164.000000 0.071193 0.000000
-84246.000000 0.106789 0.000000
-112328.000000 0.142386 0.000000
-140410.000000 0.177982 0.000000
-138276.859375 0.175278 24381.941406
-131942.234375 0.167249 48023.046875
-121598.625000 0.154137 70205.000000
-99284.929688 0.125853 99284.796875
-79427.945312 0.100682 79427.835938
-59570.960938 0.075512 59570.878906
-39713.972656 0.050341 39713.917969
-19856.986328 0.025171 19856.958984
-27655.394531 4876.435059 0.000000
-55310.789062 9752.870117 0.000000
-82966.187500 14629.305664 0.000000
-110621.578125 19505.740234 0.000000
-138276.968750 24382.175781 0.000000
-136176.234375 24011.755859 24381.966797
-129937.843750 22911.750000 48023.101562
-119751.367188 21115.583984 70205.078125
-97776.648438 17240.812500 99284.906250
-78221.320312 13792.650391 79427.929688
-58665.992188 10344.488281 59570.945312
-39110.660156 6896.325195 39713.964844
-19555.330078 3448.162598 19856.982422
-26388.388672 9604.654297 0.000000
-52776.777344 19209.308594 0.000000
-79165.164062 28813.962891 0.000000
-105553.554688 38418.617188 0.000000
-131941.937500 48023.269531 0.000000
-129937.437500 47293.687500 24381.904297
-123984.867188 45127.113281 48022.976562
-114265.070312 41589.371094 70204.898438
-93297.101562 33957.601562 99284.648438
-74637.679688 27166.082031 79427.718750
-55978.261719 20374.562500 59570.792969
-37318.839844 13583.041016 39713.859375
-18659.419922 6791.520508 19856.929688
-24302.382812 14031.051758 0.000000
-48604.765625 28062.103516 0.000000
-72907.148438 42093.156250 0.000000
-97209.531250 56124.207031 0.000000
-121511.914062 70155.257812 0.000000
-119665.875000 69089.437500 24364.582031
-114183.851562 65924.375000 47988.859375
-105232.406250 60756.234375 70155.015625
-85921.953125 49607.292969 99214.109375
-68737.562500 39685.835938 79371.289062
-51553.175781 29764.376953 59528.468750
-34368.781250 19842.917969 39685.644531
-17184.390625 9921.458984 19842.822266
-21496.777344 18037.966797 0.000000
-42993.554688 36075.933594 0.000000
-64490.332031 54113.902344 0.000000
-85987.109375 72151.867188 0.000000
-107483.882812 90189.835938 0.000000
-105850.960938 88819.648438 24364.634766
-101001.812500 84750.726562 47988.960938
-93083.773438 78106.687500 70155.171875
-76002.632812 63773.886719 99214.328125
-60802.105469 51019.109375 79371.460938
-45601.582031 38264.332031 59528.597656
-30401.052734 25509.554688 39685.730469
-15200.526367 12754.777344 19842.865234
-18037.773438 21496.824219 0.000000
-36075.546875 42993.648438 0.000000
-54113.324219 64490.472656 0.000000
-72151.093750 85987.296875 0.000000
-90188.867188 107484.117188 0.000000
-88818.695312 105851.187500 24364.558594
-84749.812500 101002.031250 47988.812500
-78105.851562 93083.976562 70154.945312
-63773.203125 76002.796875 99214.015625
-51018.562500 60802.238281 79371.210938
-38263.921875 45601.679688 59528.410156
-25509.281250 30401.119141 39685.605469
-12754.640625 15200.559570 19842.802734
-14020.968750 24285.216797 0.000000
-28041.937500 48570.433594 0.000000
-42062.906250 72855.656250 0.000000
-56083.875000 97140.867188 0.000000
-70104.843750 121426.085938 0.000000
-69039.789062 119581.351562 24347.296875
-65877.007812 114103.195312 47954.812500
-60712.574219 105158.070312 70105.250000
-49571.644531 85861.265625 99143.726562
-39657.316406 68689.015625 79314.984375
-29742.988281 51516.761719 59486.238281
-19828.658203 34344.507812 39657.492188
-9914.329102 17172.253906 19828.746094
-9590.766602 26351.013672 0.000000
-19181.533203 52702.027344 0.000000
-28772.300781 79053.039062 0.000000
-38363.066406 105404.054688 0.000000
-47953.832031 131755.062500 0.000000
-47225.304688 129753.406250 24347.287109
-45061.863281 123809.257812 47954.792969
-41529.234375 114103.226562 70105.218750
-33908.503906 93164.960938 99143.687500
-27126.802734 74531.968750 79314.953125
-20345.103516 55898.980469 59486.214844
-13563.401367 37265.984375 39657.476562
-6781.700684 18632.992188 19828.738281
-4865.765137 27596.406250 0.000000
-9731.530273 55192.812500 0.000000
-14597.294922 82789.218750 0.000000
-19463.060547 110385.625000 0.000000
-24328.824219 137982.031250 0.000000
-23959.214844 135885.765625 24329.919922
-22861.617188 129660.695312 47920.589844
-21069.378906 119495.945312 70055.218750
-17203.087891 97568.093750 99072.968750
-13762.470703 78054.476562 79258.375000
-10321.853516 58540.859375 59443.785156
-6881.235352 39027.238281 39629.187500
-3440.617676 19513.619141 19814.593750
0.035520 28022.000000 0.000000
0.071041 56044.000000 0.000000
0.106561 84066.000000 0.000000
0.142082 112088.000000 0.000000
0.177602 140110.000000 0.000000
0.174904 137981.406250 24329.845703
0.166891 131660.328125 47920.441406
0.153808 121338.820312 70055.000000
0.125584 99072.796875 99072.671875
0.100467 79258.242188 79258.140625
0.075350 59443.679688 59443.605469
0.050234 39629.121094 39629.070312
0.025117 19814.560547 19814.535156
0.035520 28022.000000 0.000000
0.071041 56044.000000 0.000000
0.106561 84066.000000 0.000000
0.142082 112088.000000 0.000000
0.177602 140110.000000 0.000000
0.174904 137981.406250 24329.845703
0.166891 131660.328125 47920.441406
0.153808 121338.820312 70055.000000
0.125584 99072.796875 99072.671875
0.100467 79258.242188 79258.140625
0.075350 59443.679688 59443.605469
0.050234 39629.121094 39629.070312
0.025117 19814.560547 19814.535156
3 19 18 6
3 5 6 18
3 18 17 5
3 4 5 17
3 17 16 4
3 3 4 16
3 16 15 3
3 2 3 15
3 15 1 2
3 19 6 7
3 20 19 7
3 20 7 8
3 21 20 8
3 21 8 9
3 22 21 9
3 22 9 10
3 23 22 10
3 23 10 24
3 11 24 10
3 24 11 25
3 12 25 11
3 25 12 26
3 13 26 12
3 26 13 27
3 14 27 13
3 27 14 0
3 32 31 19
3 18 19 31
3 31 30 18
3 17 18 30
3 30 29 17
3 16 17 29
3 29 28 16
3 15 16 28
3 28 1 15
3 32 19 20
3 33 32 20
3 33 20 21
3 34 33 21
3 34 21 22
3 35 34 22
3 35 22 23
3 36 35 23
3 36 23 37
3 24 37 23
3 37 24 38
3 25 38 24
3 38 25 39
3 26 39 25
3 39 26 40
3 27 40 26
3 40 27 0
3 45 44 32
3 31 32 44
3 44 43 31
3 30 31 43
3 43 42 30
3 29 30 42
3 42 41 29
3 28 29 41
3 41 1 28
3 45 32 33
3 46 45 33
3 46 33 34
3 47 46 34
3 47 34 35
3 48 47 35
3 48 35 36
3 49 48 36
3 49 36 50
3 37 50 36
3 50 37 51
3 38 51 37
3 51 38 52
3 39 52 38
3 52 39 53
3 40 53 39
3 53 40 0
3 58 57 45
3 44 45 57
3 57 56 44
3 43 44 56
3 56 55 43
3 42 43 55
3 55 54 42
3 41 42 54
3 54 1 41
3 58 45 46
3 59 58 46
3 59 46 47
3 60 59 47
3 60 47 48
3 61 60 48
3 61 48 49
3 62 61 49
3 62 49 63
3 50 63 49
3 63 50 64
3 51 64 50
3 64 51 65
3 52 65 51
3 65 52 66
3 53 66 52
3 66 53 0
3 71 70 58
3 57 58 70
3 70 69 57
3 56 57 69
3 69 68 56
3 55 56 68
3 68 67 55
3 54 55 67
3 67 1 54
3 71 58 59
3 72 71 59
3 72 59 60
3 73 72 60
3 73 60 61
3 74 73 61
3 74 61 62
3 75 74 62
3 75 62 76
3 63 76 62
3 76 63 77
3 64 77 63
3 77 64 78
3 65 78 64
3 78 65 79
3 66 79 65
3 79 66 0
3 84 83 71
3 70 71 83
3 83 82 70
3 69 70 82
3 82 81 69
3 68 69 81
3 81 80 68
3 67 68 80
3 80 1 67
3 84 71 72
3 85 84 72
3 85 72 73
3 86 85 73
3 86 73 74
3 87 86 74
3 87 74 75
3 88 87 75
3 88 75 89
3 76 89 75
3 89 76 90
3 77 90 76
3 90 77 91
3 78 91 77
3 91 78 92
3 79 92 78
3 92 79 0
3 97 96 84
3 83 84 96
3 96 95 83
3 82 83 95
3 95 94 82
3 81 82 94
3 94 93 81
3 80 81 93
3 93 1 80
3 97 84 85
3 98 97 85
3 98 85 86
3 99 98 86
3 99 86 87
3 100 99 87
3 100 87 88
3 101 100 88
3 101 88 102
3 89 102 88
3 102 89 103
3 90 103 89
3 103 90 104
3 91 104 90
3 104 91 105
3 92 105 91
3 105 92 0
3 110 109 97
3 96 97 109
3 109 108 96
3 95 96 108
3 108 107 95
3 94 95 107
3 107 106 94
3 93 94 106
3 106 1 93
3 110 97 98
3 111 110 98
3 111 98 99
3 112 111 99
3 112 99 100
3 113 112 100
3 113 100 101
3 114 113 101
3 114 101 115
3 102 115 101
3 115 102 116
3 103 116 102
3 116 103 117
3 104 117 103
3 117 104 118
3 105 118 104
3 118 105 0
3 123 122 110
3 109 110 122
3 122 121 109
3 108 109 121
3 121 120 108
3 107 108 120
3 120 119 107
3 106 107 119
3 119 1 106
3 123 110 111
3 124 123 111
3 124 111 112
3 125 124 112
3 125 112 113
3 126 125 113
3 126 113 114
3 127 126 114
3 127 114 128
3 115 128 114
3 128 115 129
3 116 129 115
3 129 116 130
3 117 130 116
3 130 117 131
3 118 131 117
3 131 118 0
3 136 135 123
3 122 123 135
3 135 134 122
3 121 122 134
3 134 133 121
3 120 121 133
3 133 132 120
3 119 120 132
3 132 1 119
3 136 123 124
3 137 136 124
3 137 124 125
3 138 137 125
3 138 125 126
3 139 138 126
3 139 126 127
3 140 139 127
3 140 127 141
3 128 141 127
3 141 128 142
3 129 142 128
3 142 129 143
3 130 143 129
3 143 130 144
3 131 144 130
3 144 131 0
3 149 148 136
3 135 136 148
3 148 147 135
3 134 135 147
3 147 146 134
3 133 134 146
3 146 145 133
3 132 133 145
3 145 1 132
3 149 136 137
3 150 149 137
3 150 137 138
3 151 150 138
3 151 138 139
3 152 151 139
3 152 139 140
3 153 152 140
3 153 140 154
3 141 154 140
3 154 141 155
3 142 155 141
3 155 142 156
3 143 156 142
3 156 143 157
3 144 157 143
3 157 144 0
3 162 161 149
3 148 149 161
3 161 160 148
3 147 148 160
3 160 159 147
3 146 147 159
3 159 158 146
3 145 146 158
3 158 1 145
3 162 149 150
3 163 162 150
3 163 150 151
3 164 163 151
3 164 151 152
3 165 164 152
3 165 152 153
3 166 165 153
3 166 153 167
3 154 167 153
3 167 154 168
3 155 168 154
3 168 155 169
3 156 169 155
3 169 156 170
3 157 170 156
3 170 157 0
3 175 174 162
3 161 162 174
3 174 173 161
3 160 161 173
3 173 172 160
3 159 160 172
3 172 171 159
3 158 159 171
3 171 1 158
3 175 162 163
3 176 175 163
3 176 163 164
3 177 176 164
3 177 164 165
3 178 177 165
3 178 165 166
3 179 178 166
3 179 166 180
3 167 180 166
3 180 167 181
3 168 181 167
3 181 168 182
3 169 182 168
3 182 169 183
3 170 183 169
3 183 170 0
3 188 187 175
3 174 175 187
3 187 186 174
3 173 174 186
3 186 185 173
3 172 173 185
3 185 184 172
3 171 172 184
3 184 1 171
3 188 175 176
3 189 188 176
3 189 176 177
3 190 189 177
3 190 177 178
3 191 190 178
3 191 178 179
3 192 191 179
3 192 179 193
3 180 193 179
3 193 180 194
3 181 194 180
3 194 181 195
3 182 195 181
3 195 182 196
3 183 196 182
3 196 183 0
3 201 200 188
3 187 188 200
3 200 199 187
3 186 187 199
3 199 198 186
3 185 186 198
3 198 197 185
3 184 185 197
3 197 1 184
3 201 188 189
3 202 201 189
3 202 189 190
3 203 202 190
3 203 190 191
3 204 203 191
3 204 191 192
3 205 204 192
3 205 192 206
3 193 206 192
3 206 193 207
3 194 207 193
3 207 194 208
3 195 208 194
3 208 195 209
3 196 209 195
3 209 196 0
3 214 213 201
3 200 201 213
3 213 212 200
3 199 200 212
3 212 211 199
3 198 199 211
3 211 210 198
3 197 198 210
3 210 1 197
3 214 201 202
3 215 214 202
3 215 202 203
3 216 215 203
3 216 203 204
3 217 216 204
3 217 204 205
3 218 217 205
3 218 205 219
3 206 219 205
3 219 206 220
3 207 220 206
3 220 207 221
3 208 221 207
3 221 208 222
3 209 222 208
3 222 209 0
3 227 226 214
3 213 214 226
3 226 225 213
3 212 213 225
3 225 224 212
3 211 212 224
3 224 223 211
3 210 211 223
3 223 1 210
3 227 214 215
3 228 227 215
3 228 215 216
3 229 228 216
3 229 216 217
3 230 229 217
3 230 217 218
3 231 230 218
3 231 218 232
3 219 232 218
3 232 219 233
3 220 233 219
3 233 220 234
3 221 234 220
3 234 221 235
3 222 235 221
3 235 222 0
3 240 239 227
3 226 227 239
3 239 238 226
3 225 226 238
3 238 237 225
3 224 225 237
3 237 236 224
3 223 224 236
3 236 1 223
3 240 227 228
3 241 240 228
3 241 228 229
3 242 241 229
3 242 229 230
3 243 242 230
3 243 230 231
3 244 243 231
3 244 231 245
3 232 245 231
3 245 232 246
3 233 246 232
3 246 233 247
3 234 247 233
3 247 234 248
3 235 248 234
3 248 235 0
3 253 252 240
3 239 240 252
3 252 251 239
3 238 239 251
3 251 250 238
3 237 238 250
3 250 249 237
3 236 237 249
3 249 1 236
3 253 240 241
3 254 253 241
3 254 241 242
3 255 254 242
3 255 242 243
3 256 255 243
3 256 243 244
3 257 256 244
3 257 244 258
3 245 258 244
3 258 245 259
3 246 259 245
3 259 246 260
3 247 260 246
3 260 247 261
3 248 261 247
3 261 248 0
3 266 265 253
3 252 253 265
3 265 264 252
3 251 252 264
3 264 263 251
3 250 251 263
3 263 262 250
3 249 250 262
3 262 1 249
3 266 253 254
3 267 266 254
3 267 254 255
3 268 267 255
3 268 255 256
3 269 268 256
3 269 256 257
3 270 269 257
3 270 257 271
3 258 271 257
3 271 258 272
3 259 272 258
3 272 259 273
3 260 273 259
3 273 260 274
3 261 274 260
3 274 261 0
3 279 278 266
3 265 266 278
3 278 277 265
3 264 265 277
3 277 276 264
3 263 264 276
3 276 275 263
3 262 263 275
3 275 1 262
3 279 266 267
3 280 279 267
3 280 267 268
3 281 280 268
3 281 268 269
3 282 281 269
3 282 269 270
3 283 282 270
3 283 270 284
3 271 284 270
3 284 271 285
3 272 285 271
3 285 272 286
3 273 286 272
3 286 273 287
3 274 287 273
3 287 274 0
3 292 291 279
3 278 279 291
3 291 290 278
3 277 278 290
3 290 289 277
3 276 277 289
3 289 288 276
3 275 276 288
3 288 1 275
3 292 279 280
3 293 292 280
3 293 280 281
3 294 293 281
3 294 281 282
3 295 294 282
3 295 282 283
3 296 295 283
3 296 283 297
3 284 297 283
3 297 284 298
3 285 298 284
3 298 285 299
3 286 299 285
3 299 286 300
3 287 300 286
3 300 287 0
3 305 304 292
3 291 292 304
3 304 303 291
3 290 291 303
3 303 302 290
3 289 290 302
3 302 301 289
3 288 289 301
3 301 1 288
3 305 292 293
3 306 305 293
3 306 293 294
3 307 306 294
3 307 294 295
3 308 307 295
3 308 295 296
3 309 308 296
3 309 296 310
3 297 310 296
3 310 297 311
3 298 311 297
3 311 298 312
3 299 312 298
3 312 299 313
3 300 313 299
3 313 300 0
3 318 317 305
3 304 305 317
3 317 316 304
3 303 304 316
3 316 315 303
3 302 303 315
3 315 314 302
3 301 302 314
3 314 1 301
3 318 305 306
3 319 318 306
3 319 306 307
3 320 319 307
3 320 307 308
3 321 320 308
3 321 308 309
3 322 321 309
3 322 309 323
3 310 323 309
3 323 310 324
3 311 324 310
3 324 311 325
3 312 325 311
3 325 312 326
3 313 326 312
3 326 313 0
3 331 330 318
3 317 318 330
3 330 329 317
3 316 317 329
3 329 328 316
3 315 316 328
3 328 327 315
3 314 315 327
3 327 1 314
3 331 318 319
3 332 331 319
3 332 319 320
3 333 332 320
3 333 320 321
3 334 333 321
3 334 321 322
3 335 334 322
3 335 322 336
3 323 336 322
3 336 323 337
3 324 337 323
3 337 324 338
3 325 338 324
3 338 325 339
3 326 339 325
3 339 326 0
3 344 343 331
3 330 331 343
3 343 342 330
3 329 330 342
3 342 341 329
3 328 329 341
3 341 340 328
3 327 328 340
3 340 1 327
3 344 331 332
3 345 344 332
3 345 332 333
3 346 345 333
3 346 333 334
3 347 346 334
3 347 334 335
3 348 347 335
3 348 335 349
3 336 349 335
3 349 336 350
3 337 350 336
3 350 337 351
3 338 351 337
3 351 338 352
3 339 352 338
3 352 339 0
3 357 356 344
3 343 344 356
3 356 355 343
3 342 343 355
3 355 354 342
3 341 342 354
3 354 353 341
3 340 341 353
3 353 1 340
3 357 344 345
3 358 357 345
3 358 345 346
3 359 358 346
3 359 346 347
3 360 359 347
3 360 347 348
3 361 360 348
3 361 348 362
3 349 362 348
3 362 349 363
3 350 363 349
3 363 350 364
3 351 364 350
3 364 351 365
3 352 365 351
3 365 352 0
3 370 369 357
3 356 357 369
3 369 368 356
3 355 356 368
3 368 367 355
3 354 355 367
3 367 366 354
3 353 354 366
3 366 1 353
3 370 357 358
3 371 370 358
3 371 358 359
3 372 371 359
3 372 359 360
3 373 372 360
3 373 360 361
3 374 373 361
3 374 361 375
3 362 375 361
3 375 362 376
3 363 376 362
3 376 363 377
3 364 377 363
3 377 364 378
3 365 378 364
3 378 365 0
3 383 382 370
3 369 370 382
3 382 381 369
3 368 369 381
3 381 380 368
3 367 368 380
3 380 379 367
3 366 367 379
3 379 1 366
3 383 370 371
3 384 383 371
3 384 371 372
3 385 384 372
3 385 372 373
3 386 385 373
3 386 373 374
3 387 386 374
3 387 374 388
3 375 388 374
3 388 375 389
3 376 389 375
3 389 376 390
3 377 390 376
3 390 377 391
3 378 391 377
3 391 378 0
3 396 395 383
3 382 383 395
3 395 394 382
3 381 382 394
3 394 393 381
3 380 381 393
3 393 392 380
3 379 380 392
3 392 1 379
3 396 383 384
3 397 396 384
3 397 384 385
3 398 397 385
3 398 385 386
3 399 398 386
3 399 386 387
3 400 399 387
3 400 387 401
3 388 401 387
3 401 388 402
3 389 402 388
3 402 389 403
3 390 403 389
3 403 390 404
3 391 404 390
3 404 391 0
3 409 408 396
3 395 396 408
3 408 407 395
3 394 395 407
3 407 406 394
3 393 394 406
3 406 405 393
3 392 393 405
3 405 1 392
3 409 396 397
3 410 409 397
3 410 397 398
3 411 410 398
3 411 398 399
3 412 411 399
3 412 399 400
3 413 412 400
3 413 400 414
3 401 414 400
3 414 401 415
3 402 415 401
3 415 402 416
3 403 416 402
3 416 403 417
3 404 417 403
3 417 404 0
3 422 421 409
3 408 409 421
3 421 420 408
3 407 408 420
3 420 419 407
3 406 407 419
3 419 418 406
3 405 406 418
3 418 1 405
3 422 409 410
3 423 422 410
3 423 410 411
3 424 423 411
3 424 411 412
3 425 424 412
3 425 412 413
3 426 425 413
3 426 413 427
3 414 427 413
3 427 414 428
3 415 428 414
3 428 415 429
3 416 429 415
3 429 416 430
3 417 430 416
3 430 417 0
3 435 434 422
3 421 422 434
3 434 433 421
3 420 421 433
3 433 432 420
3 419 420 432
3 432 431 419
3 418 419 431
3 431 1 418
3 435 422 423
3 436 435 423
3 436 423 424
3 437 436 424
3 437 424 425
3 438 437 425
3 438 425 426
3 439 438 426
3 439 426 440
3 427 440 426
3 440 427 441
3 428 441 427
3 441 428 442
3 429 442 428
3 442 429 443
3 430 443 429
3 443 430 0
3 448 447 435
3 434 435 447
3 447 446 434
3 433 434 446
3 446 445 433
3 432 433 445
3 445 444 432
3 431 432 444
3 444 1 431
3 448 435 436
3 449 448 436
3 449 436 437
3 450 449 437
3 450 437 438
3 451 450 438
3 451 438 439
3 452 451 439
3 452 439 453
3 440 453 439
3 453 440 454
3 441 454 440
3 454 441 455
3 442 455 441
3 455 442 456
3 443 456 442
3 456 443 0
3 461 460 448
3 447 448 460
3 460 459 447
3 446 447 459
3 459 458 446
3 445 446 458
3 458 457 445
3 444 445 457
3 457 1 444
3 461 448 449
3 462 461 449
3 462 449 450
3 463 462 450
3 463 450 451
3 464 463 451
3 464 451 452
3 465 464 452
3 465 452 466
3 453 466 452
3 466 453 467
3 454 467 453
3 467 454 468
3 455 468 454
3 468 455 469
3 456 469 455
3 469 456 0
3 474 473 461
3 460 461 473
3 473 472 460
3 459 460 472
3 472 471 459
3 458 459 471
3 471 470 458
3 457 458 470
3 470 1 457
3 474 461 462
3 475 474 462
3 475 462 463
3 476 475 463
3 476 463 464
3 477 476 464
3 477 464 465
3 478 477 465
3 478 465 479
3 466 479 465
3 479 466 480
3 467 480 466
3 480 467 481
3 468 481 467
3 481 468 482
3 469 482 468
3 482 469 0
3 487 486 474
3 473 474 486
3 486 485 473
3 472 473 485
3 485 484 472
3 471 472 484
3 484 483 471
3 470 471 483
3 483 1 470
3 487 474 475
3 488 487 475
3 488 475 476
3 489 488 476
3 489 476 477
3 490 489 477
3 490 477 478
3 491 490 478
3 491 478 492
3 479 492 478
3 492 479 493
3 480 493 479
3 493 480 494
3 481 494 480
3 494 481 495
3 482 495 481
3 495 482 0
