OFF
613 1196 0
0.000000 0.000000 1.000000
0.000000 0.000000 0.000000
0.035520 28022.000000 0.000000
0.071041 56044.000000 0.000000
0.106561 84066.000000 0.000000
0.142082 112088.000000 0.000000
0.177602 140110.000000 0.000000
0.174904 137981.406250 24329.845703
0.166891 131660.328125 47920.441406
0.153808 121338.820312 70055.000000
0.125584 99072.796875 99072.671875
0.100467 79258.242188 79258.140625
0.075350 59443.679688 59443.605469
0.050234 39629.121094 39629.070312
0.025117 19814.560547 19814.535156
3899.835205 27749.394531 0.000000
7799.670410 55498.789062 0.000000
11699.505859 83248.187500 0.000000
15599.340820 110997.578125 0.000000
19499.175781 138746.968750 0.000000
19202.939453 136639.093750 24329.925781
18323.232422 130379.500000 47920.597656
16886.781250 120158.398438 70055.226562
13788.008789 98108.984375 99072.992188
11030.407227 78487.187500 79258.398438
8272.805664 58865.394531 59443.796875
5515.203613 39243.593750 39629.199219
2757.601807 19621.796875 19814.599609
7729.434570 26955.791016 0.000000
15458.869141 53911.582031 0.000000
23188.304688 80867.375000 0.000000
30917.738281 107823.164062 0.000000
38647.171875 134778.953125 0.000000
38060.035156 132731.359375 24347.289062
36316.460938 126650.789062 47954.796875
33469.433594 116721.992188 70105.226562
27327.695312 95303.171875 99143.695312
21862.156250 76242.539062 79314.960938
16396.617188 57181.906250 59486.218750
10931.078125 38121.269531 39657.480469
5465.539062 19060.634766 19828.740234
11405.632812 25617.585938 0.000000
22811.265625 51235.171875 0.000000
34216.898438 76852.757812 0.000000
45622.531250 102470.343750 0.000000
57028.164062 128087.929688 0.000000
56161.777344 126141.984375 24347.140625
53588.945312 120363.281250 47954.503906
49387.839844 110927.398438 70104.796875
40325.027344 90571.906250 99143.085938
32260.021484 72457.523438 79314.468750
24195.017578 54343.144531 59485.855469
16130.010742 36228.761719 39657.234375
8065.005371 18114.380859 19828.617188
14860.030273 23780.982422 0.000000
29720.060547 47561.964844 0.000000
44580.089844 71342.945312 0.000000
59440.121094 95123.929688 0.000000
74300.148438 118904.906250 0.000000
73171.359375 117098.468750 24347.238281
69819.304688 111734.062500 47954.699219
64345.816406 102974.664062 70105.078125
52538.171875 84078.523438 99143.492188
42030.539062 67262.820312 79314.796875
31522.904297 50447.117188 59486.097656
21015.269531 33631.410156 39657.398438
10507.634766 16815.705078 19828.699219
18037.826172 21496.777344 0.000000
36075.652344 42993.554688 0.000000
54113.480469 64490.332031 0.000000
72151.304688 85987.109375 0.000000
90189.132812 107483.882812 0.000000
88818.953125 105850.960938 24364.556641
84750.062500 101001.812500 47988.808594
78106.078125 93083.773438 70154.945312
63773.390625 76002.632812 99214.007812
51018.714844 60802.105469 79371.210938
38264.035156 45601.582031 59528.406250
25509.357422 30401.052734 39685.605469
12754.678711 15200.526367 19842.802734
20854.224609 18777.154297 0.000000
41708.449219 37554.308594 0.000000
62562.671875 56331.460938 0.000000
83416.898438 75108.617188 0.000000
104271.117188 93885.765625 0.000000
102687.000000 92459.429688 24364.642578
97982.796875 88223.757812 47988.976562
90301.437500 81307.453125 70155.187500
73730.859375 66387.304688 99214.359375
58984.687500 53109.843750 79371.492188
44238.515625 39832.382812 59528.617188
29492.343750 26554.921875 39685.746094
14746.171875 13277.460938 19842.873047
23264.419922 15692.070312 0.000000
46528.839844 31384.140625 0.000000
69793.265625 47076.210938 0.000000
93057.679688 62768.281250 0.000000
116322.101562 78460.351562 0.000000
114554.906250 77268.359375 24364.552734
109307.023438 73728.609375 47988.800781
100737.890625 67948.656250 70154.929688
82252.203125 55479.882812 99213.992188
65801.765625 44383.906250 79371.195312
49351.324219 33287.929688 59528.398438
32900.882812 22191.953125 39685.597656
16450.441406 11095.976562 19842.798828
25240.015625 12310.328125 0.000000
50480.031250 24620.656250 0.000000
75720.046875 36930.984375 0.000000
100960.062500 49241.312500 0.000000
126200.078125 61551.640625 0.000000
124282.812500 60616.531250 24382.000000
118589.281250 57839.621094 48023.164062
109292.468750 53305.285156 70205.171875
89236.992188 43523.609375 99285.039062
71389.593750 34818.886719 79428.031250
53542.199219 26114.166016 59571.027344
35694.796875 17409.443359 39714.015625
17847.398438 8704.721680 19857.007812
26707.613281 8677.806641 0.000000
53415.226562 17355.613281 0.000000
80122.843750 26033.419922 0.000000
106830.453125 34711.226562 0.000000
133538.062500 43389.031250 0.000000
131509.312500 42729.851562 24381.974609
125484.734375 40772.351562 48023.113281
115647.351562 37576.003906 70205.093750
94425.734375 30680.699219 99284.937500
75540.585938 24544.560547 79427.953125
56655.441406 18408.419922 59570.964844
37770.292969 12272.280273 39713.976562
18885.146484 6136.140137 19856.988281
27655.406250 4876.364746 0.000000
55310.812500 9752.729492 0.000000
82966.218750 14629.094727 0.000000
110621.625000 19505.458984 0.000000
138277.031250 24381.824219 0.000000
136176.296875 24011.408203 24381.966797
129937.906250 22911.419922 48023.101562
119751.421875 21115.279297 70205.078125
97776.687500 17240.564453 99284.906250
78221.351562 13792.452148 79427.929688
58666.015625 10344.338867 59570.945312
39110.675781 6896.226074 39713.964844
19555.337891 3448.113037 19856.982422
28065.000000 980.014465 0.000000
56130.000000 1960.028931 0.000000
84195.000000 2940.043457 0.000000
112260.000000 3920.057861 0.000000
140325.000000 4900.072266 0.000000
138193.140625 4825.628906 24382.033203
131862.359375 4604.561523 48023.230469
121525.015625 4243.586914 70205.265625
99224.828125 3464.876709 99285.171875
79379.867188 2771.901367 79428.140625
59534.898438 2078.926025 59571.105469
39689.933594 1385.950684 39714.070312
19844.966797 692.975342 19857.035156
27928.197266 -2935.415527 0.000000
55856.394531 -5870.831055 0.000000
83784.593750 -8806.247070 0.000000
111712.789062 -11741.662109 0.000000
139640.984375 -14677.077148 0.000000
137519.515625 -14454.098633 24381.972656
131219.609375 -13791.941406 48023.113281
120932.640625 -12710.721680 70205.093750
98741.148438 -10378.267578 99284.937500
78992.921875 -8302.614258 79427.953125
59244.691406 -6226.960938 59570.964844
39496.460938 -4151.307129 39713.976562
19748.230469 -2075.653564 19856.988281
27247.791016 -6793.694824 0.000000
54495.582031 -13587.389648 0.000000
81743.375000 -20381.083984 0.000000
108991.164062 -27174.779297 0.000000
136238.953125 -33968.472656 0.000000
134169.171875 -33452.414062 24381.904297
128022.742188 -31919.923828 48022.976562
117986.390625 -29417.560547 70204.898438
96335.554688 -24019.353516 99284.656250
77068.445312 -19215.482422 79427.726562
57801.335938 -14411.612305 59570.796875
38534.222656 -9607.741211 39713.863281
19267.111328 -4803.870605 19856.931641
26037.185547 -10519.752930 0.000000
52074.371094 -21039.505859 0.000000
78111.562500 -31559.259766 0.000000
104148.742188 -42079.011719 0.000000
130185.929688 -52598.765625 0.000000
128208.109375 -51799.671875 24381.964844
122334.757812 -49426.671875 48023.093750
112744.320312 -45551.867188 70205.070312
92055.414062 -37192.968750 99284.898438
73644.335938 -29754.375000 79427.921875
55233.250000 -22315.781250 59570.941406
36822.167969 -14877.187500 39713.960938
18411.083984 -7438.593750 19856.980469
24302.382812 -14031.051758 0.000000
48604.765625 -28062.103516 0.000000
72907.148438 -42093.156250 0.000000
97209.531250 -56124.207031 0.000000
121511.914062 -70155.257812 0.000000
119665.875000 -69089.437500 24364.582031
114183.851562 -65924.375000 47988.859375
105232.406250 -60756.234375 70155.015625
85921.953125 -49607.292969 99214.109375
68737.562500 -39685.835938 79371.289062
51553.175781 -29764.376953 59528.468750
34368.781250 -19842.917969 39685.644531
17184.390625 -9921.458984 19842.822266
22113.177734 -17276.748047 0.000000
44226.355469 -34553.496094 0.000000
66339.539062 -51830.246094 0.000000
88452.710938 -69106.992188 0.000000
110565.890625 -86383.742188 0.000000
108886.140625 -85071.375000 24364.619141
103897.953125 -81174.164062 47988.933594
95752.867188 -74810.515625 70155.125000
78181.945312 -61082.570312 99214.265625
62545.558594 -48866.058594 79371.414062
46909.167969 -36649.542969 59528.562500
31272.779297 -24433.029297 39685.707031
15636.389648 -12216.514648 19842.853516
19493.375000 -20186.224609 0.000000
38986.750000 -40372.449219 0.000000
58480.128906 -60558.675781 0.000000
77973.500000 -80744.898438 0.000000
97466.875000 -100931.125000 0.000000
95986.132812 -99397.750000 24364.568359
91588.906250 -94844.234375 47988.832031
84408.789062 -87408.914062 70154.976562
68919.531250 -71369.132812 99214.054688
55135.625000 -57095.308594 79371.242188
41351.718750 -42821.480469 59528.433594
27567.812500 -28547.654297 39685.621094
13783.906250 -14273.827148 19842.810547
16482.572266 -22686.419922 0.000000
32965.144531 -45372.839844 0.000000
49447.718750 -68059.265625 0.000000
65930.289062 -90745.679688 0.000000
82412.859375 -113432.101562 0.000000
81160.820312 -111708.812500 24347.134766
77442.757812 -106591.304688 47954.496094
71371.625000 -98235.078125 70104.781250
58274.730469 -80208.664062 99143.070312
46619.785156 -64166.933594 79314.460938
34964.839844 -48125.199219 59485.843750
23309.892578 -32083.466797 39657.230469
11654.946289 -16041.733398 19828.615234
13164.768555 -24759.617188 0.000000
26329.537109 -49519.234375 0.000000
39494.308594 -74278.851562 0.000000
52659.074219 -99038.468750 0.000000
65823.843750 -123798.085938 0.000000
64823.832031 -121917.312500 24347.148438
61854.179688 -116332.148438 47954.523438
57005.121094 -107212.289062 70104.820312
46544.515625 -87538.523438 99143.125000
37235.613281 -70030.820312 79314.500000
27926.710938 -52523.117188 59485.878906
18617.806641 -35015.410156 39657.250000
9308.903320 -17507.705078 19828.625000
9590.766602 -26351.013672 0.000000
19181.533203 -52702.027344 0.000000
28772.300781 -79053.039062 0.000000
38363.066406 -105404.054688 0.000000
47953.832031 -131755.062500 0.000000
47225.304688 -129753.406250 24347.287109
45061.863281 -123809.257812 47954.792969
41529.234375 -114103.226562 70105.218750
33908.503906 -93164.960938 99143.687500
27126.802734 -74531.968750 79314.953125
20345.103516 -55898.980469 59486.214844
13563.401367 -37265.984375 39657.476562
6781.700684 -18632.992188 19828.738281
5830.165527 -27429.207031 0.000000
11660.331055 -54858.414062 0.000000
17490.496094 -82287.625000 0.000000
23320.662109 -109716.828125 0.000000
29150.826172 -137146.031250 0.000000
28707.958984 -135062.468750 24347.185547
27392.816406 -128875.109375 47954.597656
25245.355469 -118771.945312 70104.929688
20612.759766 -96976.953125 99143.281250
16490.208984 -77581.562500 79314.625000
12367.656250 -58186.175781 59485.972656
8245.104492 -38790.781250 39657.312500
4122.552246 -19395.390625 19828.656250
1954.564697 -27953.802734 0.000000
3909.129395 -55907.605469 0.000000
5863.694336 -83861.414062 0.000000
7818.258789 -111815.210938 0.000000
9772.823242 -139769.015625 0.000000
9624.351562 -137645.609375 24329.892578
9183.450195 -131339.906250 47920.531250
8463.512695 -121043.515625 70055.132812
6910.434082 -98831.687500 99072.851562
5528.347168 -79065.351562 79258.281250
4146.260742 -59299.015625 59443.714844
2764.173584 -39532.675781 39629.140625
1382.086792 -19766.337891 19814.570312
-1954.635376 -27953.796875 0.000000
-3909.270752 -55907.593750 0.000000
-5863.906250 -83861.390625 0.000000
-7818.541504 -111815.187500 0.000000
-9773.176758 -139768.984375 0.000000
-9624.700195 -137645.578125 24329.890625
-9183.782227 -131339.875000 47920.531250
-8463.819336 -121043.492188 70055.125000
-6910.684082 -98831.664062 99072.851562
-5528.547363 -79065.335938 79258.281250
-4146.410645 -59299.000000 59443.714844
-2764.273682 -39532.667969 39629.140625
-1382.136841 -19766.333984 19814.570312
-5830.234863 -27429.193359 0.000000
-11660.469727 -54858.386719 0.000000
-17490.705078 -82287.585938 0.000000
-23320.939453 -109716.773438 0.000000
-29151.173828 -137145.968750 0.000000
-28708.300781 -135062.406250 24347.187500
-27393.142578 -128875.054688 47954.601562
-25245.656250 -118771.890625 70104.937500
-20613.005859 -96976.906250 99143.289062
-16490.404297 -77581.523438 79314.632812
-12367.803711 -58186.144531 59485.976562
-8245.202148 -38790.761719 39657.316406
-4122.601074 -19395.380859 19828.658203
-9590.833984 -26350.988281 0.000000
-19181.667969 -52701.976562 0.000000
-28772.501953 -79052.968750 0.000000
-38363.335938 -105403.953125 0.000000
-47954.167969 -131754.937500 0.000000
-47225.636719 -129753.281250 24347.287109
-45062.175781 -123809.140625 47954.792969
-41529.527344 -114103.117188 70105.218750
-33908.738281 -93164.867188 99143.687500
-27126.990234 -74531.898438 79314.953125
-20345.244141 -55898.921875 59486.214844
-13563.495117 -37265.949219 39657.476562
-6781.747559 -18632.974609 19828.738281
-13164.831055 -24759.583984 0.000000
-26329.662109 -49519.167969 0.000000
-39494.496094 -74278.750000 0.000000
-52659.324219 -99038.335938 0.000000
-65824.156250 -123797.914062 0.000000
-64824.136719 -121917.140625 24347.148438
-61854.472656 -116331.984375 47954.519531
-57005.390625 -107212.132812 70104.820312
-46544.738281 -87538.398438 99143.125000
-37235.792969 -70030.718750 79314.500000
-27926.843750 -52523.042969 59485.878906
-18617.896484 -35015.359375 39657.250000
-9308.948242 -17507.679688 19828.625000
-16482.628906 -22686.380859 0.000000
-32965.257812 -45372.761719 0.000000
-49447.886719 -68059.140625 0.000000
-65930.515625 -90745.523438 0.000000
-82413.140625 -113431.898438 0.000000
-81161.101562 -111708.609375 24347.134766
-77443.023438 -106591.117188 47954.496094
-71371.875000 -98234.906250 70104.781250
-58274.929688 -80208.515625 99143.070312
-46619.945312 -64166.812500 79314.460938
-34964.960938 -48125.109375 59485.843750
-23309.972656 -32083.406250 39657.230469
-11654.986328 -16041.703125 19828.615234
-19493.425781 -20186.175781 0.000000
-38986.851562 -40372.351562 0.000000
-58480.277344 -60558.527344 0.000000
-77973.703125 -80744.703125 0.000000
-97467.125000 -100930.875000 0.000000
-95986.375000 -99397.507812 24364.566406
-91589.140625 -94844.000000 47988.828125
-84409.007812 -87408.703125 70154.976562
-68919.710938 -71368.953125 99214.054688
-55135.769531 -57095.164062 79371.242188
-41351.828125 -42821.375000 59528.433594
-27567.884766 -28547.582031 39685.621094
-13783.942383 -14273.791016 19842.810547
-22113.222656 -17276.693359 0.000000
-44226.445312 -34553.386719 0.000000
-66339.671875 -51830.078125 0.000000
-88452.890625 -69106.773438 0.000000
-110566.109375 -86383.460938 0.000000
-108886.359375 -85071.101562 24364.619141
-103898.156250 -81173.898438 47988.933594
-95753.054688 -74810.273438 70155.125000
-78182.093750 -61082.371094 99214.265625
-62545.675781 -48865.898438 79371.414062
-46909.257812 -36649.425781 59528.562500
-31272.837891 -24432.949219 39685.707031
-15636.418945 -12216.474609 19842.853516
-24302.417969 -14030.989258 0.000000
-48604.835938 -28061.978516 0.000000
-72907.257812 -42092.968750 0.000000
-97209.671875 -56123.957031 0.000000
-121512.085938 -70154.945312 0.000000
-119666.039062 -69089.132812 24364.580078
-114184.007812 -65924.085938 47988.855469
-105232.554688 -60755.964844 70155.015625
-85922.078125 -49607.070312 99214.109375
-68737.664062 -39685.656250 79371.289062
-51553.250000 -29764.244141 59528.468750
-34368.832031 -19842.828125 39685.644531
-17184.416016 -9921.414062 19842.822266
-26037.214844 -10519.687500 0.000000
-52074.429688 -21039.375000 0.000000
-78111.648438 -31559.064453 0.000000
-104148.859375 -42078.750000 0.000000
-130186.070312 -52598.437500 0.000000
-128208.250000 -51799.347656 24381.964844
-122334.890625 -49426.363281 48023.097656
-112744.445312 -45551.582031 70205.070312
-92055.515625 -37192.734375 99284.898438
-73644.414062 -29754.187500 79427.921875
-55233.312500 -22315.640625 59570.941406
-36822.207031 -14877.093750 39713.960938
-18411.103516 -7438.546875 19856.980469
-27247.810547 -6793.625977 0.000000
-54495.621094 -13587.251953 0.000000
-81743.429688 -20380.878906 0.000000
-108991.242188 -27174.503906 0.000000
-136239.046875 -33968.128906 0.000000
-134169.265625 -33452.074219 24381.906250
-128022.828125 -31919.599609 48022.980469
-117986.476562 -29417.261719 70204.898438
-96335.617188 -24019.109375 99284.656250
-77068.492188 -19215.287109 79427.726562
-57801.371094 -14411.465820 59570.796875
-38534.246094 -9607.643555 39713.863281
-19267.123047 -4803.821777 19856.931641
-27928.203125 -2935.344727 0.000000
-55856.406250 -5870.689453 0.000000
-83784.609375 -8806.034180 0.000000
-111712.812500 -11741.378906 0.000000
-139641.015625 -14676.723633 0.000000
-137519.546875 -14453.750977 24381.972656
-131219.625000 -13791.608398 48023.109375
-120932.664062 -12710.415039 70205.093750
-98741.171875 -10378.017578 99284.929688
-78992.937500 -8302.414062 79427.945312
-59244.707031 -6226.811035 59570.960938
-39496.468750 -4151.207031 39713.972656
-19748.234375 -2075.603516 19856.986328
-28065.000000 980.085571 0.000000
-56130.000000 1960.171143 0.000000
-84195.000000 2940.256836 0.000000
-112260.000000 3920.342285 0.000000
-140325.000000 4900.427734 0.000000
-138193.140625 4825.979004 24382.035156
-131862.359375 4604.895996 48023.234375
-121525.015625 4243.895020 70205.273438
-99224.828125 3465.127930 99285.179688
-79379.867188 2772.102295 79428.148438
-59534.898438 2079.076904 59571.109375
-39689.933594 1386.051147 39714.074219
-19844.966797 693.025574 19857.037109
-27655.394531 4876.435059 0.000000
-55310.789062 9752.870117 0.000000
-82966.187500 14629.305664 0.000000
-110621.578125 19505.740234 0.000000
-138276.968750 24382.175781 0.000000
-136176.234375 24011.755859 24381.966797
-129937.843750 22911.750000 48023.101562
-119751.367188 21115.583984 70205.078125
-97776.648438 17240.812500 99284.906250
-78221.320312 13792.650391 79427.929688
-58665.992188 10344.488281 59570.945312
-39110.660156 6896.325195 39713.964844
-19555.330078 3448.162598 19856.982422
-26707.587891 8677.874023 0.000000
-53415.175781 17355.748047 0.000000
-80122.765625 26033.621094 0.000000
-106830.351562 34711.496094 0.000000
-133537.937500 43389.367188 0.000000
-131509.187500 42730.183594 24381.970703
-125484.617188 40772.667969 48023.109375
-115647.242188 37576.292969 70205.085938
-94425.640625 30680.935547 99284.921875
-75540.515625 24544.748047 79427.937500
-56655.386719 18408.562500 59570.957031
-37770.257812 12272.374023 39713.968750
-18885.128906 6136.187012 19856.984375
-25239.984375 12310.392578 0.000000
-50479.968750 24620.785156 0.000000
-75719.953125 36931.179688 0.000000
-100959.937500 49241.570312 0.000000
-126199.921875 61551.960938 0.000000
-124282.656250 60616.847656 24382.000000
-118589.132812 57839.921875 48023.164062
-109292.335938 53305.562500 70205.171875
-89236.882812 43523.835938 99285.039062
-71389.507812 34819.070312 79428.031250
-53542.132812 26114.302734 59571.027344
-35694.753906 17409.535156 39714.015625
-17847.376953 8704.767578 19857.007812
-23264.380859 15692.129883 0.000000
-46528.761719 31384.259766 0.000000
-69793.140625 47076.390625 0.000000
-93057.523438 62768.519531 0.000000
-116321.898438 78460.648438 0.000000
-114554.703125 77268.656250 24364.552734
-109306.828125 73728.890625 47988.800781
-100737.718750 67948.914062 70154.929688
-82252.054688 55480.093750 99213.992188
-65801.648438 44384.074219 79371.195312
-49351.234375 33288.058594 59528.398438
-32900.824219 22192.037109 39685.597656
-16450.412109 11096.018555 19842.798828
-20854.177734 18777.207031 0.000000
-41708.355469 37554.414062 0.000000
-62562.531250 56331.621094 0.000000
-83416.710938 75108.828125 0.000000
-104270.882812 93886.031250 0.000000
-102686.773438 92459.687500 24364.642578
-97982.578125 88224.007812 47988.976562
-90301.234375 81307.687500 70155.195312
-73730.695312 66387.492188 99214.359375
-58984.558594 53109.996094 79371.492188
-44238.417969 39832.496094 59528.617188
-29492.279297 26554.998047 39685.746094
-14746.139648 13277.499023 19842.873047
-18037.773438 21496.824219 0.000000
-36075.546875 42993.648438 0.000000
-54113.324219 64490.472656 0.000000
-72151.093750 85987.296875 0.000000
-90188.867188 107484.117188 0.000000
-88818.695312 105851.187500 24364.558594
-84749.812500 101002.031250 47988.812500
-78105.851562 93083.976562 70154.945312
-63773.203125 76002.796875 99214.015625
-51018.562500 60802.238281 79371.210938
-38263.921875 45601.679688 59528.410156
-25509.281250 30401.119141 39685.605469
-12754.640625 15200.559570 19842.802734
-14859.970703 23781.019531 0.000000
-29719.941406 47562.039062 0.000000
-44579.914062 71343.062500 0.000000
-59439.882812 95124.078125 0.000000
-74299.851562 118905.093750 0.000000
-73171.070312 117098.656250 24347.238281
-69819.023438 111734.242188 47954.699219
-64345.558594 102974.828125 70105.078125
-52537.964844 84078.656250 99143.492188
-42030.371094 67262.929688 79314.796875
-31522.779297 50447.195312 59486.097656
-21015.185547 33631.464844 39657.398438
-10507.592773 16815.732422 19828.699219
-11405.567383 25617.615234 0.000000
-22811.134766 51235.230469 0.000000
-34216.703125 76852.843750 0.000000
-45622.269531 102470.460938 0.000000
-57027.835938 128088.070312 0.000000
-56161.453125 126142.125000 24347.138672
-53588.636719 120363.414062 47954.503906
-49387.554688 110927.523438 70104.789062
-40324.796875 90572.000000 99143.085938
-32259.837891 72457.601562 79314.468750
-24194.878906 54343.203125 59485.855469
-16129.918945 36228.800781 39657.234375
-8064.959473 18114.400391 19828.617188
-7729.365723 26955.810547 0.000000
-15458.731445 53911.621094 0.000000
-23188.097656 80867.429688 0.000000
-30917.462891 107823.242188 0.000000
-38646.828125 134779.046875 0.000000
-38059.695312 132731.453125 24347.289062
-36316.140625 126650.875000 47954.796875
-33469.132812 116722.078125 70105.218750
-27327.453125 95303.242188 99143.695312
-21861.962891 76242.593750 79314.960938
-16396.472656 57181.949219 59486.218750
-10930.981445 38121.296875 39657.480469
-5465.490723 19060.648438 19828.740234
-3899.764893 27749.406250 0.000000
-7799.529785 55498.812500 0.000000
-11699.294922 83248.218750 0.000000
-15599.059570 110997.625000 0.000000
-19498.824219 138747.031250 0.000000
-19202.593750 136639.156250 24329.927734
-18322.900391 130379.562500 47920.601562
-16886.476562 120158.453125 70055.234375
-13787.759766 98109.031250 99073.000000
-11030.208008 78487.226562 79258.398438
-8272.656250 58865.421875 59443.800781
-5515.104004 39243.613281 39629.199219
-2757.552002 19621.806641 19814.599609
0.035520 28022.000000 0.000000
0.071041 56044.000000 0.000000
0.106561 84066.000000 0.000000
0.142082 112088.000000 0.000000
0.177602 140110.000000 0.000000
0.174904 137981.406250 24329.845703
0.166891 131660.328125 47920.441406
0.153808 121338.820312 70055.000000
0.125584 99072.796875 99072.671875
0.100467 79258.242188 79258.140625
0.075350 59443.679688 59443.605469
0.050234 39629.121094 39629.070312
0.025117 19814.560547 19814.535156
0.035520 28022.000000 0.000000
0.071041 56044.000000 0.000000
0.106561 84066.000000 0.000000
0.142082 112088.000000 0.000000
0.177602 140110.000000 0.000000
0.174904 137981.406250 24329.845703
0.166891 131660.328125 47920.441406
0.153808 121338.820312 70055.000000
0.125584 99072.796875 99072.671875
0.100467 79258.242188 79258.140625
0.075350 59443.679688 59443.605469
0.050234 39629.121094 39629.070312
0.025117 19814.560547 19814.535156
3 19 18 6
3 5 6 18
3 18 17 5
3 4 5 17
3 17 16 4
3 3 4 16
3 16 15 3
3 2 3 15
3 15 1 2
3 19 6 7
3 20 19 7
3 20 7 8
3 21 20 8
3 21 8 9
3 22 21 9
3 22 9 10
3 23 22 10
3 23 10 24
3 11 24 10
3 24 11 25
3 12 25 11
3 25 12 26
3 13 26 12
3 26 13 27
3 14 27 13
3 27 14 0
3 32 31 19
3 18 19 31
3 31 30 18
3 17 18 30
3 30 29 17
3 16 17 29
3 29 28 16
3 15 16 28
3 28 1 15
3 32 19 20
3 33 32 20
3 33 20 21
3 34 33 21
3 34 21 22
3 35 34 22
3 35 22 23
3 36 35 23
3 36 23 37
3 24 37 23
3 37 24 38
3 25 38 24
3 38 25 39
3 26 39 25
3 39 26 40
3 27 40 26
3 40 27 0
3 45 44 32
3 31 32 44
3 44 43 31
3 30 31 43
3 43 42 30
3 29 30 42
3 42 41 29
3 28 29 41
3 41 1 28
3 45 32 33
3 46 45 33
3 46 33 34
3 47 46 34
3 47 34 35
3 48 47 35
3 48 35 36
3 49 48 36
3 49 36 50
3 37 50 36
3 50 37 51
3 38 51 37
3 51 38 52
3 39 52 38
3 52 39 53
3 40 53 39
3 53 40 0
3 58 57 45
3 44 45 57
3 57 56 44
3 43 44 56
3 56 55 43
3 42 43 55
3 55 54 42
3 41 42 54
3 54 1 41
3 58 45 46
3 59 58 46
3 59 46 47
3 60 59 47
3 60 47 48
3 61 60 48
3 61 48 49
3 62 61 49
3 62 49 63
3 50 63 49
3 63 50 64
3 51 64 50
3 64 51 65
3 52 65 51
3 65 52 66
3 53 66 52
3 66 53 0
3 71 70 58
3 57 58 70
3 70 69 57
3 56 57 69
3 69 68 56
3 55 56 68
3 68 67 55
3 54 55 67
3 67 1 54
3 71 58 59
3 72 71 59
3 72 59 60
3 73 72 60
3 73 60 61
3 74 73 61
3 74 61 62
3 75 74 62
3 75 62 76
3 63 76 62
3 76 63 77
3 64 77 63
3 77 64 78
3 65 78 64
3 78 65 79
3 66 79 65
3 79 66 0
3 84 83 71
3 70 71 83
3 83 82 70
3 69 70 82
3 82 81 69
3 68 69 81
3 81 80 68
3 67 68 80
3 80 1 67
3 84 71 72
3 85 84 72
3 85 72 73
3 86 85 73
3 86 73 74
3 87 86 74
3 87 74 75
3 88 87 75
3 88 75 89
3 76 89 75
3 89 76 90
3 77 90 76
3 90 77 91
3 78 91 77
3 91 78 92
3 79 92 78
3 92 79 0
3 97 96 84
3 83 84 96
3 96 95 83
3 82 83 95
3 95 94 82
3 81 82 94
3 94 93 81
3 80 81 93
3 93 1 80
3 97 84 85
3 98 97 85
3 98 85 86
3 99 98 86
3 99 86 87
3 100 99 87
3 100 87 88
3 101 100 88
3 101 88 102
3 89 102 88
3 102 89 103
3 90 103 89
3 103 90 104
3 91 104 90
3 104 91 105
3 92 105 91
3 105 92 0
3 110 109 97
3 96 97 109
3 109 108 96
3 95 96 108
3 108 107 95
3 94 95 107
3 107 106 94
3 93 94 106
3 106 1 93
3 110 97 98
3 111 110 98
3 111 98 99
3 112 111 99
3 112 99 100
3 113 112 100
3 113 100 101
3 114 113 101
3 114 101 115
3 102 115 101
3 115 102 116
3 103 116 102
3 116 103 117
3 104 117 103
3 117 104 118
3 105 118 104
3 118 105 0
3 123 122 110
3 109 110 122
3 122 121 109
3 108 109 121
3 121 120 108
3 107 108 120
3 120 119 107
3 106 107 119
3 119 1 106
3 123 110 111
3 124 123 111
3 124 111 112
3 125 124 112
3 125 112 113
3 126 125 113
3 126 113 114
3 127 126 114
3 127 114 128
3 115 128 114
3 128 115 129
3 116 129 115
3 129 116 130
3 117 130 116
3 130 117 131
3 118 131 117
3 131 118 0
3 136 135 123
3 122 123 135
3 135 134 122
3 121 122 134
3 134 133 121
3 120 121 133
3 133 132 120
3 119 120 132
3 132 1 119
3 136 123 124
3 137 136 124
3 137 124 125
3 138 137 125
3 138 125 126
3 139 138 126
3 139 126 127
3 140 139 127
3 140 127 141
3 128 141 127
3 141 128 142
3 129 142 128
3 142 129 143
3 130 143 129
3 143 130 144
3 131 144 130
3 144 131 0
3 149 148 136
3 135 136 148
3 148 147 135
3 134 135 147
3 147 146 134
3 133 134 146
3 146 145 133
3 132 133 145
3 145 1 132
3 149 136 137
3 150 149 137
3 150 137 138
3 151 150 138
3 151 138 139
3 152 151 139
3 152 139 140
3 153 152 140
3 153 140 154
3 141 154 140
3 154 141 155
3 142 155 141
3 155 142 156
3 143 156 142
3 156 143 157
3 144 157 143
3 157 144 0
3 162 161 149
3 148 149 161
3 161 160 148
3 147 148 160
3 160 159 147
3 146 147 159
3 159 158 146
3 145 146 158
3 158 1 145
3 162 149 150
3 163 162 150
3 163 150 151
3 164 163 151
3 164 151 152
3 165 164 152
3 165 152 153
3 166 165 153
3 166 153 167
3 154 167 153
3 167 154 168
3 155 168 154
3 168 155 169
3 156 169 155
3 169 156 170
3 157 170 156
3 170 157 0
3 175 174 162
3 161 162 174
3 174 173 161
3 160 161 173
3 173 172 160
3 159 160 172
3 172 171 159
3 158 159 171
3 171 1 158
3 175 162 163
3 176 175 163
3 176 163 164
3 177 176 164
3 177 164 165
3 178 177 165
3 178 165 166
3 179 178 166
3 179 166 180
3 167 180 166
3 180 167 181
3 168 181 167
3 181 168 182
3 169 182 168
3 182 169 183
3 170 183 169
3 183 170 0
3 188 187 175
3 174 175 187
3 187 186 174
3 173 174 186
3 186 185 173
3 172 173 185
3 185 184 172
3 171 172 184
3 184 1 171
3 188 175 176
3 189 188 176
3 189 176 177
3 190 189 177
3 190 177 178
3 191 190 178
3 191 178 179
3 192 191 179
3 192 179 193
3 180 193 179
3 193 180 194
3 181 194 180
3 194 181 195
3 182 195 181
3 195 182 196
3 183 196 182
3 196 183 0
3 201 200 188
3 187 188 200
3 200 199 187
3 186 187 199
3 199 198 186
3 185 186 198
3 198 197 185
3 184 185 197
3 197 1 184
3 201 188 189
3 202 201 189
3 202 189 190
3 203 202 190
3 203 190 191
3 204 203 191
3 204 191 192
3 205 204 192
3 205 192 206
3 193 206 192
3 206 193 207
3 194 207 193
3 207 194 208
3 195 208 194
3 208 195 209
3 196 209 195
3 209 196 0
3 214 213 201
3 200 201 213
3 213 212 200
3 199 200 212
3 212 211 199
3 198 199 211
3 211 210 198
3 197 198 210
3 210 1 197
3 214 201 202
3 215 214 202
3 215 202 203
3 216 215 203
3 216 203 204
3 217 216 204
3 217 204 205
3 218 217 205
3 218 205 219
3 206 219 205
3 219 206 220
3 207 220 206
3 220 207 221
3 208 221 207
3 221 208 222
3 209 222 208
3 222 209 0
3 227 226 214
3 213 214 226
3 226 225 213
3 212 213 225
3 225 224 212
3 211 212 224
3 224 223 211
3 210 211 223
3 223 1 210
3 227 214 215
3 228 227 215
3 228 215 216
3 229 228 216
3 229 216 217
3 230 229 217
3 230 217 218
3 231 230 218
3 231 218 232
3 219 232 218
3 232 219 233
3 220 233 219
3 233 220 234
3 221 234 220
3 234 221 235
3 222 235 221
3 235 222 0
3 240 239 227
3 226 227 239
3 239 238 226
3 225 226 238
3 238 237 225
3 224 225 237
3 237 236 224
3 223 224 236
3 236 1 223
3 240 227 228
3 241 240 228
3 241 228 229
3 242 241 229
3 242 229 230
3 243 242 230
3 243 230 231
3 244 243 231
3 244 231 245
3 232 245 231
3 245 232 246
3 233 246 232
3 246 233 247
3 234 247 233
3 247 234 248
3 235 248 234
3 248 235 0
3 253 252 240
3 239 240 252
3 252 251 239
3 238 239 251
3 251 250 238
3 237 238 250
3 250 249 237
3 236 237 249
3 249 1 236
3 253 240 241
3 254 253 241
3 254 241 242
3 255 254 242
3 255 242 243
3 256 255 243
3 256 243 244
3 257 256 244
3 257 244 258
3 245 258 244
3 258 245 259
3 246 259 245
3 259 246 260
3 247 260 246
3 260 247 261
3 248 261 247
3 261 248 0
3 266 265 253
3 252 253 265
3 265 264 252
3 251 252 264
3 264 263 251
3 250 251 263
3 263 262 250
3 249 250 262
3 262 1 249
3 266 253 254
3 267 266 254
3 267 254 255
3 268 267 255
3 268 255 256
3 269 268 256
3 269 256 257
3 270 269 257
3 270 257 271
3 258 271 257
3 271 258 272
3 259 272 258
3 272 259 273
3 260 273 259
3 273 260 274
3 261 274 260
3 274 261 0
3 279 278 266
3 265 266 278
3 278 277 265
3 264 265 277
3 277 276 264
3 263 264 276
3 276 275 263
3 262 263 275
3 275 1 262
3 279 266 267
3 280 279 267
3 280 267 268
3 281 280 268
3 281 268 269
3 282 281 269
3 282 269 270
3 283 282 270
3 283 270 284
3 271 284 270
3 284 271 285
3 272 285 271
3 285 272 286
3 273 286 272
3 286 273 287
3 274 287 273
3 287 274 0
3 292 291 279
3 278 279 291
3 291 290 278
3 277 278 290
3 290 289 277
3 276 277 289
3 289 288 276
3 275 276 288
3 288 1 275
3 292 279 280
3 293 292 280
3 293 280 281
3 294 293 281
3 294 281 282
3 295 294 282
3 295 282 283
3 296 295 283
3 296 283 297
3 284 297 283
3 297 284 298
3 285 298 284
3 298 285 299
3 286 299 285
3 299 286 300
3 287 300 286
3 300 287 0
3 305 304 292
3 291 292 304
3 304 303 291
3 290 291 303
3 303 302 290
3 289 290 302
3 302 301 289
3 288 289 301
3 301 1 288
3 305 292 293
3 306 305 293
3 306 293 294
3 307 306 294
3 307 294 295
3 308 307 295
3 308 295 296
3 309 308 296
3 309 296 310
3 297 310 296
3 310 297 311
3 298 311 297
3 311 298 312
3 299 312 298
3 312 299 313
3 300 313 299
3 313 300 0
3 318 317 305
3 304 305 317
3 317 316 304
3 303 304 316
3 316 315 303
3 302 303 315
3 315 314 302
3 301 302 314
3 314 1 301
3 318 305 306
3 319 318 306
3 319 306 307
3 320 319 307
3 320 307 308
3 321 320 308
3 321 308 309
3 322 321 309
3 322 309 323
3 310 323 309
3 323 310 324
3 311 324 310
3 324 311 325
3 312 325 311
3 325 312 326
3 313 326 312
3 326 313 0
3 331 330 318
3 317 318 330
3 330 329 317
3 316 317 329
3 329 328 316
3 315 316 328
3 328 327 315
3 314 315 327
3 327 1 314
3 331 318 319
3 332 331 319
3 332 319 320
3 333 332 320
3 333 320 321
3 334 333 321
3 334 321 322
3 335 334 322
3 335 322 336
3 323 336 322
3 336 323 337
3 324 337 323
3 337 324 338
3 325 338 324
3 338 325 339
3 326 339 325
3 339 326 0
3 344 343 331
3 330 331 343
3 343 342 330
3 329 330 342
3 342 341 329
3 328 329 341
3 341 340 328
3 327 328 340
3 340 1 327
3 344 331 332
3 345 344 332
3 345 332 333
3 346 345 333
3 346 333 334
3 347 346 334
3 347 334 335
3 348 347 335
3 348 335 349
3 336 349 335
3 349 336 350
3 337 350 336
3 350 337 351
3 338 351 337
3 351 338 352
3 339 352 338
3 352 339 0
3 357 356 344
3 343 344 356
3 356 355 343
3 342 343 355
3 355 354 342
3 341 342 354
3 354 353 341
3 340 341 353
3 353 1 340
3 357 344 345
3 358 357 345
3 358 345 346
3 359 358 346
3 359 346 347
3 360 359 347
3 360 347 348
3 361 360 348
3 361 348 362
3 349 362 348
3 362 349 363
3 350 363 349
3 363 350 364
3 351 364 350
3 364 351 365
3 352 365 351
3 365 352 0
3 370 369 357
3 356 357 369
3 369 368 356
3 355 356 368
3 368 367 355
3 354 355 367
3 367 366 354
3 353 354 366
3 366 1 353
3 370 357 358
3 371 370 358
3 371 358 359
3 372 371 359
3 372 359 360
3 373 372 360
3 373 360 361
3 374 373 361
3 374 361 375
3 362 375 361
3 375 362 376
3 363 376 362
3 376 363 377
3 364 377 363
3 377 364 378
3 365 378 364
3 378 365 0
3 383 382 370
3 369 370 382
3 382 381 369
3 368 369 381
3 381 380 368
3 367 368 380
3 380 379 367
3 366 367 379
3 379 1 366
3 383 370 371
3 384 383 371
3 384 371 372
3 385 384 372
3 385 372 373
3 386 385 373
3 386 373 374
3 387 386 374
3 387 374 388
3 375 388 374
3 388 375 389
3 376 389 375
3 389 376 390
3 377 390 376
3 390 377 391
3 378 391 377
3 391 378 0
3 396 395 383
3 382 383 395
3 395 394 382
3 381 382 394
3 394 393 381
3 380 381 393
3 393 392 380
3 379 380 392
3 392 1 379
3 396 383 384
3 397 396 384
3 397 384 385
3 398 397 385
3 398 385 386
3 399 398 386
3 399 386 387
3 400 399 387
3 400 387 401
3 388 401 387
3 401 388 402
3 389 402 388
3 402 389 403
3 390 403 389
3 403 390 404
3 391 404 390
3 404 391 0
3 409 408 396
3 395 396 408
3 408 407 395
3 394 395 407
3 407 406 394
3 393 394 406
3 406 405 393
3 392 393 405
3 405 1 392
3 409 396 397
3 410 409 397
3 410 397 398
3 411 410 398
3 411 398 399
3 412 411 399
3 412 399 400
3 413 412 400
3 413 400 414
3 401 414 400
3 414 401 415
3 402 415 401
3 415 402 416
3 403 416 402
3 416 403 417
3 404 417 403
3 417 404 0
3 422 421 409
3 408 409 421
3 421 420 408
3 407 408 420
3 420 419 407
3 406 407 419
3 419 418 406
3 405 406 418
3 418 1 405
3 422 409 410
3 423 422 410
3 423 410 411
3 424 423 411
3 424 411 412
3 425 424 412
3 425 412 413
3 426 425 413
3 426 413 427
3 414 427 413
3 427 414 428
3 415 428 414
3 428 415 429
3 416 429 415
3 429 416 430
3 417 430 416
3 430 417 0
3 435 434 422
3 421 422 434
3 434 433 421
3 420 421 433
3 433 432 420
3 419 420 432
3 432 431 419
3 418 419 431
3 431 1 418
3 435 422 423
3 436 435 423
3 436 423 424
3 437 436 424
3 437 424 425
3 438 437 425
3 438 425 426
3 439 438 426
3 439 426 440
3 427 440 426
3 440 427 441
3 428 441 427
3 441 428 442
3 429 442 428
3 442 429 443
3 430 443 429
3 443 430 0
3 448 447 435
3 434 435 447
3 447 446 434
3 433 434 446
3 446 445 433
3 432 433 445
3 445 444 432
3 431 432 444
3 444 1 431
3 448 435 436
3 449 448 436
3 449 436 437
3 450 449 437
3 450 437 438
3 451 450 438
3 451 438 439
3 452 451 439
3 452 439 453
3 440 453 439
3 453 440 454
3 441 454 440
3 454 441 455
3 442 455 441
3 455 442 456
3 443 456 442
3 456 443 0
3 461 460 448
3 447 448 460
3 460 459 447
3 446 447 459
3 459 458 446
3 445 446 458
3 458 457 445
3 444 445 457
3 457 1 444
3 461 448 449
3 462 461 449
3 462 449 450
3 463 462 450
3 463 450 451
3 464 463 451
3 464 451 452
3 465 464 452
3 465 452 466
3 453 466 452
3 466 453 467
3 454 467 453
3 467 454 468
3 455 468 454
3 468 455 469
3 456 469 455
3 469 456 0
3 474 473 461
3 460 461 473
3 473 472 460
3 459 460 472
3 472 471 459
3 458 459 471
3 471 470 458
3 457 458 470
3 470 1 457
3 474 461 462
3 475 474 462
3 475 462 463
3 476 475 463
3 476 463 464
3 477 476 464
3 477 464 465
3 478 477 465
3 478 465 479
3 466 479 465
3 479 466 480
3 467 480 466
3 480 467 481
3 468 481 467
3 481 468 482
3 469 482 468
3 482 469 0
3 487 486 474
3 473 474 486
3 486 485 473
3 472 473 485
3 485 484 472
3 471 472 484
3 484 483 471
3 470 471 483
3 483 1 470
3 487 474 475
3 488 487 475
3 488 475 476
3 489 488 476
3 489 476 477
3 490 489 477
3 490 477 478
3 491 490 478
3 491 478 492
3 479 492 478
3 492 479 493
3 480 493 479
3 493 480 494
3 481 494 480
3 494 481 495
3 482 495 481
3 495 482 0
3 500 499 487
3 486 487 499
3 499 498 486
3 485 486 498
3 498 497 485
3 484 485 497
3 497 496 484
3 483 484 496
3 496 1 483
3 500 487 488
3 501 500 488
3 501 488 489
3 502 501 489
3 502 489 490
3 503 502 490
3 503 490 491
3 504 503 491
3 504 491 505
3 492 505 491
3 505 492 506
3 493 506 492
3 506 493 507
3 494 507 493
3 507 494 508
3 495 508 494
3 508 495 0
3 513 512 500
3 499 500 512
3 512 511 499
3 498 499 511
3 511 510 498
3 497 498 510
3 510 509 497
3 496 497 509
3 509 1 496
3 513 500 501
3 514 513 501
3 514 501 502
3 515 514 502
3 515 502 503
3 516 515 503
3 516 503 504
3 517 516 504
3 517 504 518
3 505 518 504
3 518 505 519
3 506 519 505
3 519 506 520
3 507 520 506
3 520 507 521
3 508 521 507
3 521 508 0
3 526 525 513
3 512 513 525
3 525 524 512
3 511 512 524
3 524 523 511
3 510 511 523
3 523 522 510
3 509 510 522
3 522 1 509
3 526 513 514
3 527 526 514
3 527 514 515
3 528 527 515
3 528 515 516
3 529 528 516
3 529 516 517
3 530 529 517
3 530 517 531
3 518 531 517
3 531 518 532
3 519 532 518
3 532 519 533
3 520 533 519
3 533 520 534
3 521 534 520
3 534 521 0
3 539 538 526
3 525 526 538
3 538 537 525
3 524 525 537
3 537 536 524
3 523 524 536
3 536 535 523
3 522 523 535
3 535 1 522
3 539 526 527
3 540 539 527
3 540 527 528
3 541 540 528
3 541 528 529
3 542 541 529
3 542 529 530
3 543 542 530
3 543 530 544
3 531 544 530
3 544 531 545
3 532 545 531
3 545 532 546
3 533 546 532
3 546 533 547
3 534 547 533
3 547 534 0
3 552 551 539
3 538 539 551
3 551 550 538
3 537 538 550
3 550 549 537
3 536 537 549
3 549 548 536
3 535 536 548
3 548 1 535
3 552 539 540
3 553 552 540
3 553 540 541
3 554 553 541
3 554 541 542
3 555 554 542
3 555 542 543
3 556 555 543
3 556 543 557
3 544 557 543
3 557 544 558
3 545 558 544
3 558 545 559
3 546 559 545
3 559 546 560
3 547 560 546
3 560 547 0
3 565 564 552
3 551 552 564
3 564 563 551
3 550 551 563
3 563 562 550
3 549 550 562
3 562 561 549
3 548 549 561
3 561 1 548
3 565 552 553
3 566 565 553
3 566 553 554
3 567 566 554
3 567 554 555
3 568 567 555
3 568 555 556
3 569 568 556
3 569 556 570
3 557 570 556
3 570 557 571
3 558 571 557
3 571 558 572
3 559 572 558
3 572 559 573
3 560 573 559
3 573 560 0
3 578 577 565
3 564 565 577
3 577 576 564
3 563 564 576
3 576 575 563
3 562 563 575
3 575 574 562
3 561 562 574
3 574 1 561
3 578 565 566
3 579 578 566
3 579 566 567
3 580 579 567
3 580 567 568
3 581 580 568
3 581 568 569
3 582 581 569
3 582 569 583
3 570 583 569
3 583 570 584
3 571 584 570
3 584 571 585
3 572 585 571
3 585 572 586
3 573 586 572
3 586 573 0
3 591 590 578
3 577 578 590
3 590 589 577
3 576 577 589
3 589 588 576
3 575 576 588
3 588 587 575
3 574 575 587
3 587 1 574
3 591 578 579
3 592 591 579
3 592 579 580
3 593 592 580
3 593 580 581
3 594 593 581
3 594 581 582
3 595 594 582
3 595 582 596
3 583 596 582
3 596 583 597
3 584 597 583
3 597 584 598
3 585 598 584
3 598 585 599
3 586 599 585
3 599 586 0
3 604 603 591
3 590 591 603
3 603 602 590
3 589 590 602
3 602 601 589
3 588 589 601
3 601 600 588
3 587 588 600
3 600 1 587
3 604 591 592
3 605 604 592
3 605 592 593
3 606 605 593
3 606 593 594
3 607 606 594
3 607 594 595
3 608 607 595
3 608 595 609
3 596 609 595
3 609 596 610
3 597 610 596
3 610 597 611
3 598 611 597
3 611 598 612
3 599 612 598
3 612 599 0
