OFF
418 806 0
0.000000 0.000000 1.000000
0.000000 0.000000 0.000000
0.035520 28022.000000 0.000000
0.071041 56044.000000 0.000000
0.106561 84066.000000 0.000000
0.142082 112088.000000 0.000000
0.177602 140110.000000 0.000000
0.174904 137981.406250 24329.845703
0.166891 131660.328125 47920.441406
0.153808 121338.820312 70055.000000
0.125584 99072.796875 99072.671875
0.100467 79258.242188 79258.140625
0.075350 59443.679688 59443.605469
0.050234 39629.121094 39629.070312
0.025117 19814.560547 19814.535156
5830.234863 27429.193359 0.000000
11660.469727 54858.386719 0.000000
17490.705078 82287.585938 0.000000
23320.939453 109716.773438 0.000000
29151.173828 137145.968750 0.000000
28708.300781 135062.406250 24347.187500
27393.142578 128875.054688 47954.601562
25245.656250 118771.890625 70104.937500
20613.005859 96976.906250 99143.289062
16490.404297 77581.523438 79314.632812
12367.803711 58186.144531 59485.976562
8245.202148 38790.761719 39657.316406
4122.601074 19395.380859 19828.658203
11405.632812 25617.585938 0.000000
22811.265625 51235.171875 0.000000
34216.898438 76852.757812 0.000000
45622.531250 102470.343750 0.000000
57028.164062 128087.929688 0.000000
56161.777344 126141.984375 24347.140625
53588.945312 120363.281250 47954.503906
49387.839844 110927.398438 70104.796875
40325.027344 90571.906250 99143.085938
32260.021484 72457.523438 79314.468750
24195.017578 54343.144531 59485.855469
16130.010742 36228.761719 39657.234375
8065.005371 18114.380859 19828.617188
16482.628906 22686.380859 0.000000
32965.257812 45372.761719 0.000000
49447.886719 68059.140625 0.000000
65930.515625 90745.523438 0.000000
82413.140625 113431.898438 0.000000
81161.101562 111708.609375 24347.134766
77443.023438 106591.117188 47954.496094
71371.875000 98234.906250 70104.781250
58274.929688 80208.515625 99143.070312
46619.945312 64166.812500 79314.460938
34964.960938 48125.109375 59485.843750
23309.972656 32083.406250 39657.230469
11654.986328 16041.703125 19828.615234
20854.224609 18777.154297 0.000000
41708.449219 37554.308594 0.000000
62562.671875 56331.460938 0.000000
83416.898438 75108.617188 0.000000
104271.117188 93885.765625 0.000000
102687.000000 92459.429688 24364.642578
97982.796875 88223.757812 47988.976562
90301.437500 81307.453125 70155.187500
73730.859375 66387.304688 99214.359375
58984.687500 53109.843750 79371.492188
44238.515625 39832.382812 59528.617188
29492.343750 26554.921875 39685.746094
14746.171875 13277.460938 19842.873047
24302.417969 14030.989258 0.000000
48604.835938 28061.978516 0.000000
72907.257812 42092.968750 0.000000
97209.671875 56123.957031 0.000000
121512.085938 70154.945312 0.000000
119666.039062 69089.132812 24364.580078
114184.007812 65924.085938 47988.855469
105232.554688 60755.964844 70155.015625
85922.078125 49607.070312 99214.109375
68737.664062 39685.656250 79371.289062
51553.250000 29764.244141 59528.468750
34368.832031 19842.828125 39685.644531
17184.416016 9921.414062 19842.822266
26707.613281 8677.806641 0.000000
53415.226562 17355.613281 0.000000
80122.843750 26033.419922 0.000000
106830.453125 34711.226562 0.000000
133538.062500 43389.031250 0.000000
131509.312500 42729.851562 24381.974609
125484.734375 40772.351562 48023.113281
115647.351562 37576.003906 70205.093750
94425.734375 30680.699219 99284.937500
75540.585938 24544.560547 79427.953125
56655.441406 18408.419922 59570.964844
37770.292969 12272.280273 39713.976562
18885.146484 6136.140137 19856.988281
27928.203125 2935.344727 0.000000
55856.406250 5870.689453 0.000000
83784.609375 8806.034180 0.000000
111712.812500 11741.378906 0.000000
139641.015625 14676.723633 0.000000
137519.546875 14453.750977 24381.972656
131219.625000 13791.608398 48023.109375
120932.664062 12710.415039 70205.093750
98741.171875 10378.017578 99284.929688
78992.937500 8302.414062 79427.945312
59244.707031 6226.811035 59570.960938
39496.468750 4151.207031 39713.972656
19748.234375 2075.603516 19856.986328
27928.197266 -2935.415527 0.000000
55856.394531 -5870.831055 0.000000
83784.593750 -8806.247070 0.000000
111712.789062 -11741.662109 0.000000
139640.984375 -14677.077148 0.000000
137519.515625 -14454.098633 24381.972656
131219.609375 -13791.941406 48023.113281
120932.640625 -12710.721680 70205.093750
98741.148438 -10378.267578 99284.937500
78992.921875 -8302.614258 79427.953125
59244.691406 -6226.960938 59570.964844
39496.460938 -4151.307129 39713.976562
19748.230469 -2075.653564 19856.988281
26707.587891 -8677.874023 0.000000
53415.175781 -17355.748047 0.000000
80122.765625 -26033.621094 0.000000
106830.351562 -34711.496094 0.000000
133537.937500 -43389.367188 0.000000
131509.187500 -42730.183594 24381.970703
125484.617188 -40772.667969 48023.109375
115647.242188 -37576.292969 70205.085938
94425.640625 -30680.935547 99284.921875
75540.515625 -24544.748047 79427.937500
56655.386719 -18408.562500 59570.957031
37770.257812 -12272.374023 39713.968750
18885.128906 -6136.187012 19856.984375
24302.382812 -14031.051758 0.000000
48604.765625 -28062.103516 0.000000
72907.148438 -42093.156250 0.000000
97209.531250 -56124.207031 0.000000
121511.914062 -70155.257812 0.000000
119665.875000 -69089.437500 24364.582031
114183.851562 -65924.375000 47988.859375
105232.406250 -60756.234375 70155.015625
85921.953125 -49607.292969 99214.109375
68737.562500 -39685.835938 79371.289062
51553.175781 -29764.376953 59528.468750
34368.781250 -19842.917969 39685.644531
17184.390625 -9921.458984 19842.822266
20854.177734 -18777.207031 0.000000
41708.355469 -37554.414062 0.000000
62562.531250 -56331.621094 0.000000
83416.710938 -75108.828125 0.000000
104270.882812 -93886.031250 0.000000
102686.773438 -92459.687500 24364.642578
97982.578125 -88224.007812 47988.976562
90301.234375 -81307.687500 70155.195312
73730.695312 -66387.492188 99214.359375
58984.558594 -53109.996094 79371.492188
44238.417969 -39832.496094 59528.617188
29492.279297 -26554.998047 39685.746094
14746.139648 -13277.499023 19842.873047
16482.572266 -22686.419922 0.000000
32965.144531 -45372.839844 0.000000
49447.718750 -68059.265625 0.000000
65930.289062 -90745.679688 0.000000
82412.859375 -113432.101562 0.000000
81160.820312 -111708.812500 24347.134766
77442.757812 -106591.304688 47954.496094
71371.625000 -98235.078125 70104.781250
58274.730469 -80208.664062 99143.070312
46619.785156 -64166.933594 79314.460938
34964.839844 -48125.199219 59485.843750
23309.892578 -32083.466797 39657.230469
11654.946289 -16041.733398 19828.615234
11405.567383 -25617.615234 0.000000
22811.134766 -51235.230469 0.000000
34216.703125 -76852.843750 0.000000
45622.269531 -102470.460938 0.000000
57027.835938 -128088.070312 0.000000
56161.453125 -126142.125000 24347.138672
53588.636719 -120363.414062 47954.503906
49387.554688 -110927.523438 70104.789062
40324.796875 -90572.000000 99143.085938
32259.837891 -72457.601562 79314.468750
24194.878906 -54343.203125 59485.855469
16129.918945 -36228.800781 39657.234375
8064.959473 -18114.400391 19828.617188
5830.165527 -27429.207031 0.000000
11660.331055 -54858.414062 0.000000
17490.496094 -82287.625000 0.000000
23320.662109 -109716.828125 0.000000
29150.826172 -137146.031250 0.000000
28707.958984 -135062.468750 24347.185547
27392.816406 -128875.109375 47954.597656
25245.355469 -118771.945312 70104.929688
20612.759766 -96976.953125 99143.281250
16490.208984 -77581.562500 79314.625000
12367.656250 -58186.175781 59485.972656
8245.104492 -38790.781250 39657.312500
4122.552246 -19395.390625 19828.656250
-0.035520 -28022.000000 0.000000
-0.071041 -56044.000000 0.000000
-0.106561 -84066.000000 0.000000
-0.142082 -112088.000000 0.000000
-0.177602 -140110.000000 0.000000
-0.174904 -137981.406250 24329.845703
-0.166891 -131660.328125 47920.441406
-0.153808 -121338.820312 70055.000000
-0.125584 -99072.796875 99072.671875
-0.100467 -79258.242188 79258.140625
-0.075350 -59443.679688 59443.605469
-0.050234 -39629.121094 39629.070312
-0.025117 -19814.560547 19814.535156
-5830.234863 -27429.193359 0.000000
-11660.469727 -54858.386719 0.000000
-17490.705078 -82287.585938 0.000000
-23320.939453 -109716.773438 0.000000
-29151.173828 -137145.968750 0.000000
-28708.300781 -135062.406250 24347.187500
-27393.142578 -128875.054688 47954.601562
-25245.656250 -118771.890625 70104.937500
-20613.005859 -96976.906250 99143.289062
-16490.404297 -77581.523438 79314.632812
-12367.803711 -58186.144531 59485.976562
-8245.202148 -38790.761719 39657.316406
-4122.601074 -19395.380859 19828.658203
-11405.632812 -25617.585938 0.000000
-22811.265625 -51235.171875 0.000000
-34216.898438 -76852.757812 0.000000
-45622.531250 -102470.343750 0.000000
-57028.164062 -128087.929688 0.000000
-56161.777344 -126141.984375 24347.140625
-53588.945312 -120363.281250 47954.503906
-49387.839844 -110927.398438 70104.796875
-40325.027344 -90571.906250 99143.085938
-32260.021484 -72457.523438 79314.468750
-24195.017578 -54343.144531 59485.855469
-16130.010742 -36228.761719 39657.234375
-8065.005371 -18114.380859 19828.617188
-16482.628906 -22686.380859 0.000000
-32965.257812 -45372.761719 0.000000
-49447.886719 -68059.140625 0.000000
-65930.515625 -90745.523438 0.000000
-82413.140625 -113431.898438 0.000000
-81161.101562 -111708.609375 24347.134766
-77443.023438 -106591.117188 47954.496094
-71371.875000 -98234.906250 70104.781250
-58274.929688 -80208.515625 99143.070312
-46619.945312 -64166.812500 79314.460938
-34964.960938 -48125.109375 59485.843750
-23309.972656 -32083.406250 39657.230469
-11654.986328 -16041.703125 19828.615234
-20854.224609 -18777.154297 0.000000
-41708.449219 -37554.308594 0.000000
-62562.671875 -56331.460938 0.000000
-83416.898438 -75108.617188 0.000000
-104271.117188 -93885.765625 0.000000
-102687.000000 -92459.429688 24364.642578
-97982.796875 -88223.757812 47988.976562
-90301.437500 -81307.453125 70155.187500
-73730.859375 -66387.304688 99214.359375
-58984.687500 -53109.843750 79371.492188
-44238.515625 -39832.382812 59528.617188
-29492.343750 -26554.921875 39685.746094
-14746.171875 -13277.460938 19842.873047
-24302.417969 -14030.989258 0.000000
-48604.835938 -28061.978516 0.000000
-72907.257812 -42092.968750 0.000000
-97209.671875 -56123.957031 0.000000
-121512.085938 -70154.945312 0.000000
-119666.039062 -69089.132812 24364.580078
-114184.007812 -65924.085938 47988.855469
-105232.554688 -60755.964844 70155.015625
-85922.078125 -49607.070312 99214.109375
-68737.664062 -39685.656250 79371.289062
-51553.250000 -29764.244141 59528.468750
-34368.832031 -19842.828125 39685.644531
-17184.416016 -9921.414062 19842.822266
-26707.613281 -8677.806641 0.000000
-53415.226562 -17355.613281 0.000000
-80122.843750 -26033.419922 0.000000
-106830.453125 -34711.226562 0.000000
-133538.062500 -43389.031250 0.000000
-131509.312500 -42729.851562 24381.974609
-125484.734375 -40772.351562 48023.113281
-115647.351562 -37576.003906 70205.093750
-94425.734375 -30680.699219 99284.937500
-75540.585938 -24544.560547 79427.953125
-56655.441406 -18408.419922 59570.964844
-37770.292969 -12272.280273 39713.976562
-18885.146484 -6136.140137 19856.988281
-27928.203125 -2935.344727 0.000000
-55856.406250 -5870.689453 0.000000
-83784.609375 -8806.034180 0.000000
-111712.812500 -11741.378906 0.000000
-139641.015625 -14676.723633 0.000000
-137519.546875 -14453.750977 24381.972656
-131219.625000 -13791.608398 48023.109375
-120932.664062 -12710.415039 70205.093750
-98741.171875 -10378.017578 99284.929688
-78992.937500 -8302.414062 79427.945312
-59244.707031 -6226.811035 59570.960938
-39496.468750 -4151.207031 39713.972656
-19748.234375 -2075.603516 19856.986328
-27928.197266 2935.415527 0.000000
-55856.394531 5870.831055 0.000000
-83784.593750 8806.247070 0.000000
-111712.789062 11741.662109 0.000000
-139640.984375 14677.077148 0.000000
-137519.515625 14454.098633 24381.972656
-131219.609375 13791.941406 48023.113281
-120932.640625 12710.721680 70205.093750
-98741.148438 10378.267578 99284.937500
-78992.921875 8302.614258 79427.953125
-59244.691406 6226.960938 59570.964844
-39496.460938 4151.307129 39713.976562
-19748.230469 2075.653564 19856.988281
-26707.587891 8677.874023 0.000000
-53415.175781 17355.748047 0.000000
-80122.765625 26033.621094 0.000000
-106830.351562 34711.496094 0.000000
-133537.937500 43389.367188 0.000000
-131509.187500 42730.183594 24381.970703
-125484.617188 40772.667969 48023.109375
-115647.242188 37576.292969 70205.085938
-94425.640625 30680.935547 99284.921875
-75540.515625 24544.748047 79427.937500
-56655.386719 18408.562500 59570.957031
-37770.257812 12272.374023 39713.968750
-18885.128906 6136.187012 19856.984375
-24302.382812 14031.051758 0.000000
-48604.765625 28062.103516 0.000000
-72907.148438 42093.156250 0.000000
-97209.531250 56124.207031 0.000000
-121511.914062 70155.257812 0.000000
-119665.875000 69089.437500 24364.582031
-114183.851562 65924.375000 47988.859375
-105232.406250 60756.234375 70155.015625
-85921.953125 49607.292969 99214.109375
-68737.562500 39685.835938 79371.289062
-51553.175781 29764.376953 59528.468750
-34368.781250 19842.917969 39685.644531
-17184.390625 9921.458984 19842.822266
-20854.177734 18777.207031 0.000000
-41708.355469 37554.414062 0.000000
-62562.531250 56331.621094 0.000000
-83416.710938 75108.828125 0.000000
-104270.882812 93886.031250 0.000000
-102686.773438 92459.687500 24364.642578
-97982.578125 88224.007812 47988.976562
-90301.234375 81307.687500 70155.195312
-73730.695312 66387.492188 99214.359375
-58984.558594 53109.996094 79371.492188
-44238.417969 39832.496094 59528.617188
-29492.279297 26554.998047 39685.746094
-14746.139648 13277.499023 19842.873047
-16482.572266 22686.419922 0.000000
-32965.144531 45372.839844 0.000000
-49447.718750 68059.265625 0.000000
-65930.289062 90745.679688 0.000000
-82412.859375 113432.101562 0.000000
-81160.820312 111708.812500 24347.134766
-77442.757812 106591.304688 47954.496094
-71371.625000 98235.078125 70104.781250
-58274.730469 80208.664062 99143.070312
-46619.785156 64166.933594 79314.460938
-34964.839844 48125.199219 59485.843750
-23309.892578 32083.466797 39657.230469
-11654.946289 16041.733398 19828.615234
-11405.567383 25617.615234 0.000000
-22811.134766 51235.230469 0.000000
-34216.703125 76852.843750 0.000000
-45622.269531 102470.460938 0.000000
-57027.835938 128088.070312 0.000000
-56161.453125 126142.125000 24347.138672
-53588.636719 120363.414062 47954.503906
-49387.554688 110927.523438 70104.789062
-40324.796875 90572.000000 99143.085938
-32259.837891 72457.601562 79314.468750
-24194.878906 54343.203125 59485.855469
-16129.918945 36228.800781 39657.234375
-8064.959473 18114.400391 19828.617188
-5830.165527 27429.207031 0.000000
-11660.331055 54858.414062 0.000000
-17490.496094 82287.625000 0.000000
-23320.662109 109716.828125 0.000000
-29150.826172 137146.031250 0.000000
-28707.958984 135062.468750 24347.185547
-27392.816406 128875.109375 47954.597656
-25245.355469 118771.945312 70104.929688
-20612.759766 96976.953125 99143.281250
-16490.208984 77581.562500 79314.625000
-12367.656250 58186.175781 59485.972656
-8245.104492 38790.781250 39657.312500
-4122.552246 19395.390625 19828.656250
0.035520 28022.000000 0.000000
0.071041 56044.000000 0.000000
0.106561 84066.000000 0.000000
0.142082 112088.000000 0.000000
0.177602 140110.000000 0.000000
0.174904 137981.406250 24329.845703
0.166891 131660.328125 47920.441406
0.153808 121338.820312 70055.000000
0.125584 99072.796875 99072.671875
0.100467 79258.242188 79258.140625
0.075350 59443.679688 59443.605469
0.050234 39629.121094 39629.070312
0.025117 19814.560547 19814.535156
0.035520 28022.000000 0.000000
0.071041 56044.000000 0.000000
0.106561 84066.000000 0.000000
0.142082 112088.000000 0.000000
0.177602 140110.000000 0.000000
0.174904 137981.406250 24329.845703
0.166891 131660.328125 47920.441406
0.153808 121338.820312 70055.000000
0.125584 99072.796875 99072.671875
0.100467 79258.242188 79258.140625
0.075350 59443.679688 59443.605469
0.050234 39629.121094 39629.070312
0.025117 19814.560547 19814.535156
3 19 18 6
3 5 6 18
3 18 17 5
3 4 5 17
3 17 16 4
3 3 4 16
3 16 15 3
3 2 3 15
3 15 1 2
3 19 6 7
3 20 19 7
3 20 7 8
3 21 20 8
3 21 8 9
3 22 21 9
3 22 9 10
3 23 22 10
3 23 10 24
3 11 24 10
3 24 11 25
3 12 25 11
3 25 12 26
3 13 26 12
3 26 13 27
3 14 27 13
3 27 14 0
3 32 31 19
3 18 19 31
3 31 30 18
3 17 18 30
3 30 29 17
3 16 17 29
3 29 28 16
3 15 16 28
3 28 1 15
3 32 19 20
3 33 32 20
3 33 20 21
3 34 33 21
3 34 21 22
3 35 34 22
3 35 22 23
3 36 35 23
3 36 23 37
3 24 37 23
3 37 24 38
3 25 38 24
3 38 25 39
3 26 39 25
3 39 26 40
3 27 40 26
3 40 27 0
3 45 44 32
3 31 32 44
3 44 43 31
3 30 31 43
3 43 42 30
3 29 30 42
3 42 41 29
3 28 29 41
3 41 1 28
3 45 32 33
3 46 45 33
3 46 33 34
3 47 46 34
3 47 34 35
3 48 47 35
3 48 35 36
3 49 48 36
3 49 36 50
3 37 50 36
3 50 37 51
3 38 51 37
3 51 38 52
3 39 52 38
3 52 39 53
3 40 53 39
3 53 40 0
3 58 57 45
3 44 45 57
3 57 56 44
3 43 44 56
3 56 55 43
3 42 43 55
3 55 54 42
3 41 42 54
3 54 1 41
3 58 45 46
3 59 58 46
3 59 46 47
3 60 59 47
3 60 47 48
3 61 60 48
3 61 48 49
3 62 61 49
3 62 49 63
3 50 63 49
3 63 50 64
3 51 64 50
3 64 51 65
3 52 65 51
3 65 52 66
3 53 66 52
3 66 53 0
3 71 70 58
3 57 58 70
3 70 69 57
3 56 57 69
3 69 68 56
3 55 56 68
3 68 67 55
3 54 55 67
3 67 1 54
3 71 58 59
3 72 71 59
3 72 59 60
3 73 72 60
3 73 60 61
3 74 73 61
3 74 61 62
3 75 74 62
3 75 62 76
3 63 76 62
3 76 63 77
3 64 77 63
3 77 64 78
3 65 78 64
3 78 65 79
3 66 79 65
3 79 66 0
3 84 83 71
3 70 71 83
3 83 82 70
3 69 70 82
3 82 81 69
3 68 69 81
3 81 80 68
3 67 68 80
3 80 1 67
3 84 71 72
3 85 84 72
3 85 72 73
3 86 85 73
3 86 73 74
3 87 86 74
3 87 74 75
3 88 87 75
3 88 75 89
3 76 89 75
3 89 76 90
3 77 90 76
3 90 77 91
3 78 91 77
3 91 78 92
3 79 92 78
3 92 79 0
3 97 96 84
3 83 84 96
3 96 95 83
3 82 83 95
3 95 94 82
3 81 82 94
3 94 93 81
3 80 81 93
3 93 1 80
3 97 84 85
3 98 97 85
3 98 85 86
3 99 98 86
3 99 86 87
3 100 99 87
3 100 87 88
3 101 100 88
3 101 88 102
3 89 102 88
3 102 89 103
3 90 103 89
3 103 90 104
3 91 104 90
3 104 91 105
3 92 105 91
3 105 92 0
3 110 109 97
3 96 97 109
3 109 108 96
3 95 96 108
3 108 107 95
3 94 95 107
3 107 106 94
3 93 94 106
3 106 1 93
3 110 97 98
3 111 110 98
3 111 98 99
3 112 111 99
3 112 99 100
3 113 112 100
3 113 100 101
3 114 113 101
3 114 101 115
3 102 115 101
3 115 102 116
3 103 116 102
3 116 103 117
3 104 117 103
3 117 104 118
3 105 118 104
3 118 105 0
3 123 122 110
3 109 110 122
3 122 121 109
3 108 109 121
3 121 120 108
3 107 108 120
3 120 119 107
3 106 107 119
3 119 1 106
3 123 110 111
3 124 123 111
3 124 111 112
3 125 124 112
3 125 112 113
3 126 125 113
3 126 113 114
3 127 126 114
3 127 114 128
3 115 128 114
3 128 115 129
3 116 129 115
3 129 116 130
3 117 130 116
3 130 117 131
3 118 131 117
3 131 118 0
3 136 135 123
3 122 123 135
3 135 134 122
3 121 122 134
3 134 133 121
3 120 121 133
3 133 132 120
3 119 120 132
3 132 1 119
3 136 123 124
3 137 136 124
3 137 124 125
3 138 137 125
3 138 125 126
3 139 138 126
3 139 126 127
3 140 139 127
3 140 127 141
3 128 141 127
3 141 128 142
3 129 142 128
3 142 129 143
3 130 143 129
3 143 130 144
3 131 144 130
3 144 131 0
3 149 148 136
3 135 136 148
3 148 147 135
3 134 135 147
3 147 146 134
3 133 134 146
3 146 145 133
3 132 133 145
3 145 1 132
3 149 136 137
3 150 149 137
3 150 137 138
3 151 150 138
3 151 138 139
3 152 151 139
3 152 139 140
3 153 152 140
3 153 140 154
3 141 154 140
3 154 141 155
3 142 155 141
3 155 142 156
3 143 156 142
3 156 143 157
3 144 157 143
3 157 144 0
3 162 161 149
3 148 149 161
3 161 160 148
3 147 148 160
3 160 159 147
3 146 147 159
3 159 158 146
3 145 146 158
3 158 1 145
3 162 149 150
3 163 162 150
3 163 150 151
3 164 163 151
3 164 151 152
3 165 164 152
3 165 152 153
3 166 165 153
3 166 153 167
3 154 167 153
3 167 154 168
3 155 168 154
3 168 155 169
3 156 169 155
3 169 156 170
3 157 170 156
3 170 157 0
3 175 174 162
3 161 162 174
3 174 173 161
3 160 161 173
3 173 172 160
3 159 160 172
3 172 171 159
3 158 159 171
3 171 1 158
3 175 162 163
3 176 175 163
3 176 163 164
3 177 176 164
3 177 164 165
3 178 177 165
3 178 165 166
3 179 178 166
3 179 166 180
3 167 180 166
3 180 167 181
3 168 181 167
3 181 168 182
3 169 182 168
3 182 169 183
3 170 183 169
3 183 170 0
3 188 187 175
3 174 175 187
3 187 186 174
3 173 174 186
3 186 185 173
3 172 173 185
3 185 184 172
3 171 172 184
3 184 1 171
3 188 175 176
3 189 188 176
3 189 176 177
3 190 189 177
3 190 177 178
3 191 190 178
3 191 178 179
3 192 191 179
3 192 179 193
3 180 193 179
3 193 180 194
3 181 194 180
3 194 181 195
3 182 195 181
3 195 182 196
3 183 196 182
3 196 183 0
3 201 200 188
3 187 188 200
3 200 199 187
3 186 187 199
3 199 198 186
3 185 186 198
3 198 197 185
3 184 185 197
3 197 1 184
3 201 188 189
3 202 201 189
3 202 189 190
3 203 202 190
3 203 190 191
3 204 203 191
3 204 191 192
3 205 204 192
3 205 192 206
3 193 206 192
3 206 193 207
3 194 207 193
3 207 194 208
3 195 208 194
3 208 195 209
3 196 209 195
3 209 196 0
3 214 213 201
3 200 201 213
3 213 212 200
3 199 200 212
3 212 211 199
3 198 199 211
3 211 210 198
3 197 198 210
3 210 1 197
3 214 201 202
3 215 214 202
3 215 202 203
3 216 215 203
3 216 203 204
3 217 216 204
3 217 204 205
3 218 217 205
3 218 205 219
3 206 219 205
3 219 206 220
3 207 220 206
3 220 207 221
3 208 221 207
3 221 208 222
3 209 222 208
3 222 209 0
3 227 226 214
3 213 214 226
3 226 225 213
3 212 213 225
3 225 224 212
3 211 212 224
3 224 223 211
3 210 211 223
3 223 1 210
3 227 214 215
3 228 227 215
3 228 215 216
3 229 228 216
3 229 216 217
3 230 229 217
3 230 217 218
3 231 230 218
3 231 218 232
3 219 232 218
3 232 219 233
3 220 233 219
3 233 220 234
3 221 234 220
3 234 221 235
3 222 235 221
3 235 222 0
3 240 239 227
3 226 227 239
3 239 238 226
3 225 226 238
3 238 237 225
3 224 225 237
3 237 236 224
3 223 224 236
3 236 1 223
3 240 227 228
3 241 240 228
3 241 228 229
3 242 241 229
3 242 229 230
3 243 242 230
3 243 230 231
3 244 243 231
3 244 231 245
3 232 245 231
3 245 232 246
3 233 246 232
3 246 233 247
3 234 247 233
3 247 234 248
3 235 248 234
3 248 235 0
3 253 252 240
3 239 240 252
3 252 251 239
3 238 239 251
3 251 250 238
3 237 238 250
3 250 249 237
3 236 237 249
3 249 1 236
3 253 240 241
3 254 253 241
3 254 241 242
3 255 254 242
3 255 242 243
3 256 255 243
3 256 243 244
3 257 256 244
3 257 244 258
3 245 258 244
3 258 245 259
3 246 259 245
3 259 246 260
3 247 260 246
3 260 247 261
3 248 261 247
3 261 248 0
3 266 265 253
3 252 253 265
3 265 264 252
3 251 252 264
3 264 263 251
3 250 251 263
3 263 262 250
3 249 250 262
3 262 1 249
3 266 253 254
3 267 266 254
3 267 254 255
3 268 267 255
3 268 255 256
3 269 268 256
3 269 256 257
3 270 269 257
3 270 257 271
3 258 271 257
3 271 258 272
3 259 272 258
3 272 259 273
3 260 273 259
3 273 260 274
3 261 274 260
3 274 261 0
3 279 278 266
3 265 266 278
3 278 277 265
3 264 265 277
3 277 276 264
3 263 264 276
3 276 275 263
3 262 263 275
3 275 1 262
3 279 266 267
3 280 279 267
3 280 267 268
3 281 280 268
3 281 268 269
3 282 281 269
3 282 269 270
3 283 282 270
3 283 270 284
3 271 284 270
3 284 271 285
3 272 285 271
3 285 272 286
3 273 286 272
3 286 273 287
3 274 287 273
3 287 274 0
3 292 291 279
3 278 279 291
3 291 290 278
3 277 278 290
3 290 289 277
3 276 277 289
3 289 288 276
3 275 276 288
3 288 1 275
3 292 279 280
3 293 292 280
3 293 280 281
3 294 293 281
3 294 281 282
3 295 294 282
3 295 282 283
3 296 295 283
3 296 283 297
3 284 297 283
3 297 284 298
3 285 298 284
3 298 285 299
3 286 299 285
3 299 286 300
3 287 300 286
3 300 287 0
3 305 304 292
3 291 292 304
3 304 303 291
3 290 291 303
3 303 302 290
3 289 290 302
3 302 301 289
3 288 289 301
3 301 1 288
3 305 292 293
3 306 305 293
3 306 293 294
3 307 306 294
3 307 294 295
3 308 307 295
3 308 295 296
3 309 308 296
3 309 296 310
3 297 310 296
3 310 297 311
3 298 311 297
3 311 298 312
3 299 312 298
3 312 299 313
3 300 313 299
3 313 300 0
3 318 317 305
3 304 305 317
3 317 316 304
3 303 304 316
3 316 315 303
3 302 303 315
3 315 314 302
3 301 302 314
3 314 1 301
3 318 305 306
3 319 318 306
3 319 306 307
3 320 319 307
3 320 307 308
3 321 320 308
3 321 308 309
3 322 321 309
3 322 309 323
3 310 323 309
3 323 310 324
3 311 324 310
3 324 311 325
3 312 325 311
3 325 312 326
3 313 326 312
3 326 313 0
3 331 330 318
3 317 318 330
3 330 329 317
3 316 317 329
3 329 328 316
3 315 316 328
3 328 327 315
3 314 315 327
3 327 1 314
3 331 318 319
3 332 331 319
3 332 319 320
3 333 332 320
3 333 320 321
3 334 333 321
3 334 321 322
3 335 334 322
3 335 322 336
3 323 336 322
3 336 323 337
3 324 337 323
3 337 324 338
3 325 338 324
3 338 325 339
3 326 339 325
3 339 326 0
3 344 343 331
3 330 331 343
3 343 342 330
3 329 330 342
3 342 341 329
3 328 329 341
3 341 340 328
3 327 328 340
3 340 1 327
3 344 331 332
3 345 344 332
3 345 332 333
3 346 345 333
3 346 333 334
3 347 346 334
3 347 334 335
3 348 347 335
3 348 335 349
3 336 349 335
3 349 336 350
3 337 350 336
3 350 337 351
3 338 351 337
3 351 338 352
3 339 352 338
3 352 339 0
3 357 356 344
3 343 344 356
3 356 355 343
3 342 343 355
3 355 354 342
3 341 342 354
3 354 353 341
3 340 341 353
3 353 1 340
3 357 344 345
3 358 357 345
3 358 345 346
3 359 358 346
3 359 346 347
3 360 359 347
3 360 347 348
3 361 360 348
3 361 348 362
3 349 362 348
3 362 349 363
3 350 363 349
3 363 350 364
3 351 364 350
3 364 351 365
3 352 365 351
3 365 352 0
3 370 369 357
3 356 357 369
3 369 368 356
3 355 356 368
3 368 367 355
3 354 355 367
3 367 366 354
3 353 354 366
3 366 1 353
3 370 357 358
3 371 370 358
3 371 358 359
3 372 371 359
3 372 359 360
3 373 372 360
3 373 360 361
3 374 373 361
3 374 361 375
3 362 375 361
3 375 362 376
3 363 376 362
3 376 363 377
3 364 377 363
3 377 364 378
3 365 378 364
3 378 365 0
3 383 382 370
3 369 370 382
3 382 381 369
3 368 369 381
3 381 380 368
3 367 368 380
3 380 379 367
3 366 367 379
3 379 1 366
3 383 370 371
3 384 383 371
3 384 371 372
3 385 384 372
3 385 372 373
3 386 385 373
3 386 373 374
3 387 386 374
3 387 374 388
3 375 388 374
3 388 375 389
3 376 389 375
3 389 376 390
3 377 390 376
3 390 377 391
3 378 391 377
3 391 378 0
3 396 395 383
3 382 383 395
3 395 394 382
3 381 382 394
3 394 393 381
3 380 381 393
3 393 392 380
3 379 380 392
3 392 1 379
3 396 383 384
3 397 396 384
3 397 384 385
3 398 397 385
3 398 385 386
3 399 398 386
3 399 386 387
3 400 399 387
3 400 387 401
3 388 401 387
3 401 388 402
3 389 402 388
3 402 389 403
3 390 403 389
3 403 390 404
3 391 404 390
3 404 391 0
3 409 408 396
3 395 396 408
3 408 407 395
3 394 395 407
3 407 406 394
3 393 394 406
3 406 405 393
3 392 393 405
3 405 1 392
3 409 396 397
3 410 409 397
3 410 397 398
3 411 410 398
3 411 398 399
3 412 411 399
3 412 399 400
3 413 412 400
3 413 400 414
3 401 414 400
3 414 401 415
3 402 415 401
3 415 402 416
3 403 416 402
3 416 403 417
3 404 417 403
3 417 404 0
